# https://github.com/mikedh/trimesh
v 0.00043913 -0.05956960 0.00731512
v 0.00737512 -0.02530043 0.00000000
v 0.00643383 -0.03418374 -0.00067973
v 0.00643383 -0.03418374 0.00067973
v 0.00421518 -0.05512209 -0.00013024
v 0.00427928 -0.05451711 -0.00073861
v 0.00421518 -0.05512209 0.00013024
v 0.00363842 -0.05959509 -0.00438737
v 0.00354555 -0.05981081 -0.00438737
v 0.00353611 -0.05980629 -0.00463775
v 0.00372167 -0.05934697 -0.00438737
v 0.00364791 -0.05957008 -0.00438737
v 0.00363811 -0.05956640 -0.00463775
v 0.00378298 -0.05909253 -0.00438737
v 0.00372892 -0.05932134 -0.00438737
v 0.00371883 -0.05931854 -0.00463775
v 0.00220467 -0.05937717 -0.00691619
v 0.00222886 -0.05933762 -0.00691615
v 0.00240580 -0.05944198 -0.00677261
v 0.00131746 -0.05879206 -0.00733616
v 0.00143740 -0.05887080 -0.00730570
v 0.00140436 -0.05892162 -0.00730570
v 0.00160692 -0.05881784 -0.00727173
v 0.00147782 -0.05884853 -0.00729973
v 0.00135405 -0.05879544 -0.00732966
v 0.00382189 -0.05883373 -0.00438737
v 0.00378795 -0.05906650 -0.00438737
v 0.00377766 -0.05906459 -0.00463775
v 0.00374686 -0.05905886 -0.00488639
v 0.00380859 -0.05885199 -0.00464677
v 0.00380943 -0.05885140 -0.00463775
v 0.00362474 -0.05903613 -0.00537150
v 0.00371513 -0.05888086 -0.00515778
v 0.00369576 -0.05904935 -0.00513154
v 0.00377291 -0.05886775 -0.00490423
v 0.00377612 -0.05886673 -0.00488639
v 0.00353426 -0.05901929 -0.00560459
v 0.00363568 -0.05889124 -0.00540554
v 0.00364800 -0.05888996 -0.00537151
v 0.00342498 -0.05899895 -0.00582920
v 0.00348084 -0.05890136 -0.00575529
v 0.00353516 -0.05889880 -0.00564562
v 0.00327408 -0.05890527 -0.00609562
v 0.00341432 -0.05890349 -0.00587623
v 0.00344104 -0.05890275 -0.00582921
v 0.00329765 -0.05897526 -0.00604373
v 0.00315317 -0.05894837 -0.00624672
v 0.00288780 -0.05889844 -0.00654507
v 0.00293974 -0.05890008 -0.00649423
v 0.00299253 -0.05891847 -0.00643672
v 0.00311548 -0.05890413 -0.00630214
v 0.00262005 -0.05888733 -0.00677267
v 0.00274817 -0.05889316 -0.00667045
v 0.00259158 -0.05900508 -0.00677261
v 0.00277726 -0.05905671 -0.00661243
v 0.00239367 -0.05895004 -0.00691615
v 0.00218490 -0.05889199 -0.00704204
v 0.00232341 -0.05887088 -0.00697010
v 0.00254221 -0.05888340 -0.00682947
v 0.00123553 -0.05878435 -0.00734900
v 0.00115331 -0.05883816 -0.00735354
v 0.00112419 -0.05886436 -0.00735354
v 0.00107305 -0.05885763 -0.00735880
v 0.00106867 -0.05885553 -0.00735938
v 0.00099705 -0.05882117 -0.00736776
v 0.00103361 -0.05883873 -0.00736375
v 0.00136701 -0.05896937 -0.00730570
v 0.00129707 -0.05896406 -0.00731832
v 0.00127098 -0.05895175 -0.00732413
v 0.00117053 -0.05890414 -0.00734378
v 0.00110713 -0.05887393 -0.00735400
v 0.00160060 -0.05906176 -0.00723750
v 0.00157149 -0.05909219 -0.00723916
v 0.00152212 -0.05906932 -0.00725588
v 0.00177705 -0.05918644 -0.00715719
v 0.00174220 -0.05917057 -0.00717253
v 0.00157577 -0.05909416 -0.00723766
v 0.00164511 -0.05899331 -0.00723750
v 0.00184718 -0.05911250 -0.00714940
v 0.00179404 -0.05919416 -0.00714950
v 0.00204222 -0.05922753 -0.00704204
v 0.00195568 -0.05926705 -0.00706887
v 0.00217992 -0.05936635 -0.00693304
v 0.00216102 -0.05935807 -0.00694565
v 0.00206151 -0.05931419 -0.00700842
v 0.00254133 -0.05952110 -0.00664428
v 0.00240837 -0.05946503 -0.00676186
v 0.00235671 -0.05944296 -0.00680378
v 0.00272294 -0.05959572 -0.00645785
v 0.00281550 -0.05946204 -0.00643672
v 0.00287208 -0.05965491 -0.00627720
v 0.00296294 -0.05953247 -0.00624672
v 0.00289503 -0.05966382 -0.00624673
v 0.00309555 -0.05959583 -0.00604373
v 0.00314571 -0.05975634 -0.00585118
v 0.00314361 -0.05975561 -0.00585510
v 0.00321242 -0.05965166 -0.00582920
v 0.00307276 -0.05973048 -0.00598029
v 0.00301578 -0.05970961 -0.00607229
v 0.00315735 -0.05976037 -0.00582920
v 0.00331272 -0.05969958 -0.00560459
v 0.00325463 -0.05979259 -0.00562720
v 0.00327280 -0.05979827 -0.00558508
v 0.00339575 -0.05973924 -0.00537150
v 0.00334803 -0.05982026 -0.00539026
v 0.00335453 -0.05982202 -0.00537150
v 0.00346094 -0.05977039 -0.00513154
v 0.00342313 -0.05983844 -0.00514601
v 0.00347939 -0.05984699 -0.00489622
v 0.00350784 -0.05979279 -0.00488639
v 0.00348119 -0.05984713 -0.00488639
v 0.00351638 -0.05984584 -0.00464272
v 0.00353385 -0.05983501 -0.00438737
v 0.00368865 -0.05931015 -0.00488639
v 0.00363858 -0.05929622 -0.00513154
v 0.00356897 -0.05927687 -0.00537150
v 0.00348031 -0.05925221 -0.00560459
v 0.00337322 -0.05922243 -0.00582920
v 0.00324844 -0.05918774 -0.00604373
v 0.00310684 -0.05914836 -0.00624672
v 0.00294942 -0.05910458 -0.00643672
v 0.00281491 -0.05889583 -0.00661247
v 0.00360878 -0.05955542 -0.00488639
v 0.00356011 -0.05953718 -0.00513154
v 0.00349245 -0.05951184 -0.00537150
v 0.00340628 -0.05947955 -0.00560459
v 0.00330218 -0.05944055 -0.00582920
v 0.00318090 -0.05939512 -0.00604373
v 0.00304327 -0.05934356 -0.00624672
v 0.00289026 -0.05928623 -0.00643672
v 0.00272293 -0.05922355 -0.00661243
v 0.00254245 -0.05915593 -0.00677261
v 0.00235009 -0.05908387 -0.00691615
v 0.00214717 -0.05900785 -0.00704204
v 0.00265427 -0.05938502 -0.00661243
v 0.00248037 -0.05930194 -0.00677261
v 0.00229501 -0.05921339 -0.00691615
v 0.00209949 -0.05911998 -0.00704204
v 0.00193513 -0.05892841 -0.00714940
v 0.00189517 -0.05902237 -0.00714940
v 0.00168348 -0.05892124 -0.00723750
v 0.00173239 -0.05887657 -0.00722854
v 0.00204859 -0.05885252 -0.00711202
v 0.00209343 -0.05885570 -0.00709126
v 0.00185400 -0.05883798 -0.00719206
v 0.00271354 -0.05959192 -0.00646833
v 0.00257466 -0.05953497 -0.00661245
v 0.00132345 -0.05897648 -0.00731215
v 0.00707295 -0.02815212 -0.00719629
v 0.00382189 -0.05883373 0.00438737
v 0.00378795 -0.05906650 0.00438737
v 0.00378298 -0.05909253 0.00438737
v 0.00372892 -0.05932134 0.00438737
v 0.00372167 -0.05934697 0.00438737
v 0.00364791 -0.05957008 0.00438737
v 0.00363842 -0.05959509 0.00438737
v 0.00354555 -0.05981081 0.00438737
v 0.00353385 -0.05983501 0.00438737
v 0.00363811 -0.05956640 0.00463775
v 0.00371883 -0.05931854 0.00463775
v 0.00377766 -0.05906459 0.00463775
v 0.00293974 -0.05890008 0.00649423
v 0.00288780 -0.05889844 0.00654507
v 0.00299253 -0.05891847 0.00643672
v 0.00123553 -0.05878435 0.00734900
v 0.00140436 -0.05892162 0.00730570
v 0.00143740 -0.05887080 0.00730570
v 0.00164511 -0.05899331 0.00723750
v 0.00147782 -0.05884853 0.00729973
v 0.00350784 -0.05979279 0.00488639
v 0.00351638 -0.05984584 0.00464272
v 0.00353611 -0.05980629 0.00463775
v 0.00334803 -0.05982026 0.00539026
v 0.00335453 -0.05982202 0.00537150
v 0.00339575 -0.05973924 0.00537150
v 0.00342313 -0.05983844 0.00514601
v 0.00346094 -0.05977039 0.00513154
v 0.00347939 -0.05984699 0.00489622
v 0.00348119 -0.05984713 0.00488639
v 0.00314361 -0.05975561 0.00585510
v 0.00315735 -0.05976037 0.00582920
v 0.00321242 -0.05965166 0.00582920
v 0.00321280 -0.05977907 0.00571847
v 0.00331272 -0.05969958 0.00560459
v 0.00325463 -0.05979259 0.00562720
v 0.00332709 -0.05981443 0.00544831
v 0.00307317 -0.05973063 0.00597960
v 0.00309555 -0.05959583 0.00604373
v 0.00301578 -0.05970961 0.00607229
v 0.00296294 -0.05953247 0.00624672
v 0.00289503 -0.05966382 0.00624673
v 0.00265427 -0.05938502 0.00661243
v 0.00271354 -0.05959192 0.00646833
v 0.00281550 -0.05946204 0.00643672
v 0.00281899 -0.05963409 0.00634478
v 0.00287208 -0.05965491 0.00627720
v 0.00248037 -0.05930194 0.00677261
v 0.00254133 -0.05952110 0.00664428
v 0.00257466 -0.05953497 0.00661245
v 0.00216102 -0.05935807 0.00694565
v 0.00220467 -0.05937717 0.00691619
v 0.00222886 -0.05933762 0.00691615
v 0.00229607 -0.05941687 0.00685051
v 0.00240580 -0.05944198 0.00677261
v 0.00235671 -0.05944296 0.00680378
v 0.00251783 -0.05951127 0.00666614
v 0.00206183 -0.05931434 0.00700823
v 0.00204222 -0.05922753 0.00704204
v 0.00195568 -0.05926705 0.00706887
v 0.00184718 -0.05911250 0.00714940
v 0.00179404 -0.05919416 0.00714950
v 0.00157577 -0.05909416 0.00723766
v 0.00169569 -0.05914932 0.00719206
v 0.00160060 -0.05906176 0.00723750
v 0.00174220 -0.05917057 0.00717253
v 0.00177705 -0.05918644 0.00715719
v 0.00152212 -0.05906932 0.00725588
v 0.00136701 -0.05896937 0.00730570
v 0.00144750 -0.05903461 0.00727907
v 0.00115331 -0.05883816 0.00735354
v 0.00107305 -0.05885763 0.00735880
v 0.00110713 -0.05887393 0.00735400
v 0.00112419 -0.05886436 0.00735354
v 0.00117053 -0.05890414 0.00734378
v 0.00127098 -0.05895175 0.00732413
v 0.00129707 -0.05896406 0.00731832
v 0.00103361 -0.05883873 0.00736375
v 0.00106867 -0.05885553 0.00735938
v 0.00099705 -0.05882117 0.00736776
v 0.00135405 -0.05879544 0.00732966
v 0.00131746 -0.05879206 0.00733616
v 0.00189517 -0.05902237 0.00714940
v 0.00173239 -0.05887657 0.00722854
v 0.00168348 -0.05892124 0.00723750
v 0.00160692 -0.05881784 0.00727173
v 0.00214717 -0.05900785 0.00704204
v 0.00204859 -0.05885252 0.00711202
v 0.00193513 -0.05892841 0.00714940
v 0.00185400 -0.05883798 0.00719206
v 0.00239367 -0.05895004 0.00691615
v 0.00232341 -0.05887088 0.00697010
v 0.00218490 -0.05889199 0.00704204
v 0.00221081 -0.05886369 0.00703260
v 0.00209343 -0.05885570 0.00709126
v 0.00259158 -0.05900508 0.00677261
v 0.00254221 -0.05888340 0.00682947
v 0.00283826 -0.05889670 0.00659136
v 0.00281491 -0.05889583 0.00661247
v 0.00277726 -0.05905671 0.00661243
v 0.00274817 -0.05889316 0.00667045
v 0.00262005 -0.05888733 0.00677267
v 0.00315317 -0.05894837 0.00624672
v 0.00311548 -0.05890413 0.00630214
v 0.00333726 -0.05890486 0.00600189
v 0.00329765 -0.05897526 0.00604373
v 0.00327408 -0.05890527 0.00609562
v 0.00341432 -0.05890349 0.00587623
v 0.00342498 -0.05899895 0.00582920
v 0.00353516 -0.05889880 0.00564562
v 0.00353426 -0.05901929 0.00560459
v 0.00355408 -0.05889769 0.00560460
v 0.00362474 -0.05903613 0.00537150
v 0.00363568 -0.05889124 0.00540554
v 0.00371513 -0.05888086 0.00515778
v 0.00369576 -0.05904935 0.00513154
v 0.00372219 -0.05887962 0.00513154
v 0.00374686 -0.05905886 0.00488639
v 0.00377291 -0.05886775 0.00490423
v 0.00379465 -0.05885969 0.00476773
v 0.00380859 -0.05885199 0.00464677
v 0.00380943 -0.05885140 0.00463775
v 0.00229501 -0.05921339 0.00691615
v 0.00209949 -0.05911998 0.00704204
v 0.00368865 -0.05931015 0.00488639
v 0.00363858 -0.05929622 0.00513154
v 0.00356897 -0.05927687 0.00537150
v 0.00348031 -0.05925221 0.00560459
v 0.00337322 -0.05922243 0.00582920
v 0.00324844 -0.05918774 0.00604373
v 0.00310684 -0.05914836 0.00624672
v 0.00294942 -0.05910458 0.00643672
v 0.00360878 -0.05955542 0.00488639
v 0.00356011 -0.05953718 0.00513154
v 0.00349245 -0.05951184 0.00537150
v 0.00340628 -0.05947955 0.00560459
v 0.00330218 -0.05944055 0.00582920
v 0.00318090 -0.05939512 0.00604373
v 0.00304327 -0.05934356 0.00624672
v 0.00289026 -0.05928623 0.00643672
v 0.00272293 -0.05922355 0.00661243
v 0.00254245 -0.05915593 0.00677261
v 0.00235009 -0.05908387 0.00691615
v 0.00450686 -0.05236937 0.00483460
v -0.00730000 -0.06000000 -0.00727813
v -0.00646987 -0.06000000 -0.00727999
v -0.00646849 -0.06000000 -0.00728000
v -0.00630822 -0.06000000 -0.00728027
v -0.00311795 -0.06000000 -0.00727826
v -0.00116976 -0.06000000 -0.00727547
v -0.00115049 -0.06000000 -0.00727543
v -0.00111798 -0.06000000 -0.00727536
v -0.00109692 -0.06000000 -0.00727530
v -0.00106821 -0.06000000 -0.00727521
v -0.00104585 -0.06000000 -0.00727512
v -0.00427815 -0.06000000 0.00727604
v 0.00025719 -0.06000000 -0.00726962
v 0.00028648 -0.06000000 -0.00726936
v -0.00735606 -0.06000000 -0.00727683
v -0.00830000 -0.06000000 -0.00625964
v -0.00829982 -0.06000000 -0.00629438
v -0.00829982 -0.06000000 -0.00629458
v -0.00829017 -0.06000000 -0.00641553
v -0.00829680 -0.06000000 -0.00635569
v -0.00829008 -0.06000000 -0.00641637
v -0.00827981 -0.06000000 -0.00647580
v -0.00827966 -0.06000000 -0.00647665
v -0.00826557 -0.06000000 -0.00653630
v -0.00824782 -0.06000000 -0.00659509
v -0.00820195 -0.06000000 -0.00670833
v -0.00822647 -0.06000000 -0.00665279
v -0.00817365 -0.06000000 -0.00676318
v -0.00820158 -0.06000000 -0.00670917
v -0.00817321 -0.06000000 -0.00676402
v -0.00814147 -0.06000000 -0.00681712
v -0.00810645 -0.06000000 -0.00686824
v -0.00806826 -0.06000000 -0.00691719
v -0.00798371 -0.06000000 -0.00700697
v -0.00802704 -0.06000000 -0.00696376
v -0.00798299 -0.06000000 -0.00700769
v -0.00788755 -0.06000000 -0.00708660
v -0.00793614 -0.06000000 -0.00704894
v -0.00788672 -0.06000000 -0.00708724
v -0.00778180 -0.06000000 -0.00715386
v -0.00783491 -0.06000000 -0.00712245
v -0.00772581 -0.06000000 -0.00718246
v -0.00778088 -0.06000000 -0.00715440
v -0.00772485 -0.06000000 -0.00718295
v -0.00766702 -0.06000000 -0.00720796
v -0.00760863 -0.06000000 -0.00722894
v -0.00760761 -0.06000000 -0.00722931
v -0.00754683 -0.06000000 -0.00724689
v -0.00748601 -0.06000000 -0.00726038
v -0.00748493 -0.06000000 -0.00726062
v -0.00742324 -0.06000000 -0.00727023
v -0.00742214 -0.06000000 -0.00727041
v -0.00738422 -0.06000000 0.00727541
v -0.00830000 -0.06000000 0.00627587
v -0.00829906 -0.06000000 0.00631463
v -0.00745215 -0.06000000 0.00726624
v -0.00751113 -0.06000000 0.00725528
v -0.00751218 -0.06000000 0.00725509
v -0.00762898 -0.06000000 0.00722208
v -0.00757154 -0.06000000 0.00724025
v -0.00762999 -0.06000000 0.00722176
v -0.00774234 -0.06000000 0.00717448
v -0.00768732 -0.06000000 0.00719967
v -0.00779677 -0.06000000 0.00714544
v -0.00774329 -0.06000000 0.00717404
v -0.00779769 -0.06000000 0.00714495
v -0.00785029 -0.06000000 0.00711249
v -0.00790005 -0.06000000 0.00707735
v -0.00794849 -0.06000000 0.00703853
v -0.00790089 -0.06000000 0.00707676
v -0.00794928 -0.06000000 0.00703789
v -0.00799526 -0.06000000 0.00699600
v -0.00803786 -0.06000000 0.00695204
v -0.00803856 -0.06000000 0.00695132
v -0.00811620 -0.06000000 0.00685462
v -0.00807916 -0.06000000 0.00690385
v -0.00811679 -0.06000000 0.00685383
v -0.00815077 -0.06000000 0.00680226
v -0.00818206 -0.06000000 0.00674773
v -0.00815130 -0.06000000 0.00680145
v -0.00818253 -0.06000000 0.00674690
v -0.00823424 -0.06000000 0.00663293
v -0.00821034 -0.06000000 0.00669037
v -0.00823460 -0.06000000 0.00663208
v -0.00827176 -0.06000000 0.00651195
v -0.00825518 -0.06000000 0.00657224
v -0.00827200 -0.06000000 0.00651108
v -0.00828494 -0.06000000 0.00644885
v -0.00829380 -0.06000000 0.00638669
v -0.00829861 -0.06000000 0.00632792
v -0.00829393 -0.06000000 0.00638583
v -0.00829869 -0.06000000 0.00632645
v 0.00035014 -0.06000000 -0.00726855
v 0.00038313 -0.06000000 -0.00726752
v 0.00041756 -0.06000000 -0.00726604
v 0.00045292 -0.06000000 -0.00726409
v 0.00052299 -0.06000000 -0.00725941
v 0.00051875 -0.06000000 -0.00725973
v 0.00048490 -0.06000000 -0.00726200
v 0.00061823 -0.06000000 -0.00725070
v 0.00055612 -0.06000000 -0.00725674
v 0.00189908 -0.06000000 -0.00686300
v 0.00187257 -0.06000000 -0.00687704
v 0.00185239 -0.06000000 -0.00688749
v 0.00183527 -0.06000000 -0.00689607
v 0.00172906 -0.06000000 -0.00694786
v 0.00191509 -0.06000000 -0.00685397
v 0.00207864 -0.06000000 -0.00675918
v 0.00214855 -0.06000000 -0.00671452
v 0.00209263 -0.06000000 -0.00675035
v 0.00230603 -0.06000000 -0.00660382
v 0.00250672 -0.06000000 -0.00643940
v 0.00235350 -0.06000000 -0.00656736
v 0.00136820 -0.06000000 -0.00709050
v 0.00133201 -0.06000000 -0.00710236
v 0.00116190 -0.06000000 -0.00715123
v 0.00113247 -0.06000000 -0.00715950
v 0.00108248 -0.06000000 -0.00717168
v 0.00113683 -0.06000000 -0.00715839
v 0.00077372 -0.06000000 -0.00723117
v 0.00074775 -0.06000000 -0.00723501
v 0.00064880 -0.06000000 -0.00724745
v 0.00080283 -0.06000000 -0.00722684
v 0.00082899 -0.06000000 -0.00722273
v 0.00105632 -0.06000000 -0.00717791
v 0.00085738 -0.06000000 -0.00721726
v 0.00139085 -0.06000000 -0.00708291
v 0.00140841 -0.06000000 -0.00707697
v 0.00159815 -0.06000000 -0.00700523
v 0.00345321 -0.06000000 -0.00437154
v 0.00344108 -0.06000000 -0.00462892
v 0.00345288 -0.06000000 -0.00438054
v 0.00340707 -0.06000000 -0.00486956
v 0.00344063 -0.06000000 -0.00463283
v 0.00340460 -0.06000000 -0.00488300
v 0.00340642 -0.06000000 -0.00487346
v 0.00302685 -0.06000000 -0.00582974
v 0.00302452 -0.06000000 -0.00583341
v 0.00303985 -0.06000000 -0.00580909
v 0.00304329 -0.06000000 -0.00580329
v 0.00315151 -0.06000000 -0.00561252
v 0.00315420 -0.06000000 -0.00560738
v 0.00317433 -0.06000000 -0.00556738
v 0.00317663 -0.06000000 -0.00556233
v 0.00325945 -0.06000000 -0.00537649
v 0.00326835 -0.06000000 -0.00535398
v 0.00334395 -0.06000000 -0.00513277
v 0.00334509 -0.06000000 -0.00512863
v 0.00302063 -0.06000000 -0.00583922
v 0.00294136 -0.06000000 -0.00595654
v 0.00287784 -0.06000000 -0.00604182
v 0.00252623 -0.06000000 -0.00642210
v 0.00251585 -0.06000000 -0.00643146
v 0.00253470 -0.06000000 -0.00641392
v 0.00269995 -0.06000000 -0.00625099
v 0.00270681 -0.06000000 -0.00624363
v 0.00273232 -0.06000000 -0.00621588
v 0.00287285 -0.06000000 -0.00604847
v 0.00345321 -0.06000000 0.00437311
v 0.00345288 -0.06000000 0.00438051
v 0.00344108 -0.06000000 0.00462889
v 0.00304331 -0.06000000 0.00580326
v 0.00310499 -0.06000000 0.00569906
v 0.00315153 -0.06000000 0.00561249
v 0.00302454 -0.06000000 0.00583338
v 0.00303987 -0.06000000 0.00580905
v 0.00302065 -0.06000000 0.00583919
v 0.00294183 -0.06000000 0.00595587
v 0.00287287 -0.06000000 0.00604844
v 0.00286743 -0.06000000 0.00605494
v 0.00273236 -0.06000000 0.00621585
v 0.00270684 -0.06000000 0.00624359
v 0.00344064 -0.06000000 0.00463280
v 0.00340707 -0.06000000 0.00486953
v 0.00340460 -0.06000000 0.00488298
v 0.00340642 -0.06000000 0.00487344
v 0.00334510 -0.06000000 0.00512860
v 0.00340374 -0.06000000 0.00488690
v 0.00334396 -0.06000000 0.00513274
v 0.00326836 -0.06000000 0.00535395
v 0.00334258 -0.06000000 0.00513688
v 0.00325946 -0.06000000 0.00537646
v 0.00323648 -0.06000000 0.00543206
v 0.00315421 -0.06000000 0.00560735
v 0.00323435 -0.06000000 0.00543673
v 0.00025601 -0.06000000 0.00727608
v 0.00052301 -0.06000000 0.00725941
v 0.00055613 -0.06000000 0.00725674
v 0.00061824 -0.06000000 0.00725070
v 0.00051877 -0.06000000 0.00725973
v 0.00064882 -0.06000000 0.00724745
v 0.00074777 -0.06000000 0.00723501
v 0.00077373 -0.06000000 0.00723118
v 0.00128407 -0.06000000 0.00711728
v 0.00133205 -0.06000000 0.00710235
v 0.00136824 -0.06000000 0.00709049
v 0.00113687 -0.06000000 0.00715838
v 0.00108252 -0.06000000 0.00717167
v 0.00105635 -0.06000000 0.00717791
v 0.00098089 -0.06000000 0.00719454
v 0.00095351 -0.06000000 0.00719982
v 0.00080287 -0.06000000 0.00722684
v 0.00250676 -0.06000000 0.00643937
v 0.00235355 -0.06000000 0.00656732
v 0.00230607 -0.06000000 0.00660379
v 0.00228032 -0.06000000 0.00662289
v 0.00209268 -0.06000000 0.00675032
v 0.00226836 -0.06000000 0.00663131
v 0.00201304 -0.06000000 0.00679894
v 0.00207869 -0.06000000 0.00675915
v 0.00185244 -0.06000000 0.00688747
v 0.00189913 -0.06000000 0.00686297
v 0.00183531 -0.06000000 0.00689606
v 0.00172945 -0.06000000 0.00694769
v 0.00171073 -0.06000000 0.00695598
v 0.00159820 -0.06000000 0.00700521
v 0.00157782 -0.06000000 0.00701311
v 0.00140845 -0.06000000 0.00707695
v 0.00264085 -0.06000000 0.00631244
v 0.00269998 -0.06000000 0.00625096
v 0.00251589 -0.06000000 0.00643143
v 0.00263308 -0.06000000 0.00631995
v 0.00345321 -0.06000000 -0.00419455
v 0.00345321 -0.06000000 0.00419455
v 0.00713473 -0.02500000 0.00914205
v 0.00715281 -0.02500000 0.00910063
v 0.00655989 -0.02500000 0.00999453
v 0.00661469 -0.02500000 0.00993473
v 0.00674293 -0.02500000 0.00978501
v 0.00666804 -0.02500000 0.00987582
v 0.00708936 -0.02500000 0.00923964
v 0.00676546 -0.02500000 0.00975669
v 0.00687166 -0.02500000 0.00961074
v 0.00694107 -0.02500000 0.00950438
v 0.00699675 -0.02500000 0.00940996
v 0.00701684 -0.02500000 0.00937565
v 0.00715570 -0.02500000 0.00909331
v 0.00723102 -0.02500000 0.00889811
v 0.00723062 -0.02500000 0.00889927
v 0.00469151 -0.02500000 0.01087208
v 0.00458025 -0.02500000 0.01087864
v 0.00461493 -0.02500000 0.01087725
v 0.00448098 -0.02500000 0.01088064
v 0.00475053 -0.02500000 0.01086786
v 0.00481941 -0.02500000 0.01085992
v 0.00488739 -0.02500000 0.01085182
v 0.00494970 -0.02500000 0.01084157
v 0.00516322 -0.02500000 0.01079886
v 0.00502510 -0.02500000 0.01082889
v 0.00508218 -0.02500000 0.01081660
v 0.00521658 -0.02500000 0.01078456
v 0.00530126 -0.02500000 0.01076157
v 0.00532692 -0.02500000 0.01075448
v 0.00543874 -0.02500000 0.01071800
v 0.00571333 -0.02500000 0.01060477
v 0.00584262 -0.02500000 0.01053940
v 0.00620479 -0.02500000 0.01030804
v 0.00622254 -0.02500000 0.01029498
v 0.00596754 -0.02500000 0.01046812
v 0.00609946 -0.02500000 0.01038353
v 0.00622256 -0.02500000 0.01029496
v 0.00629955 -0.02500000 0.01023298
v 0.00635097 -0.02500000 0.01019147
v 0.00645561 -0.02500000 0.01009769
v 0.00642039 -0.02500000 0.01012934
v 0.00544844 -0.02500000 0.01071452
v 0.00555892 -0.02500000 0.01067219
v 0.00557512 -0.02500000 0.01066591
v 0.00557513 -0.02500000 0.01066591
v 0.00066914 -0.02500000 0.01088315
v -0.00730000 -0.02500000 0.01088337
v -0.00219814 -0.02500000 -0.01088337
v -0.00730000 -0.02500000 -0.01088337
v 0.00448098 -0.02500000 -0.01088150
v 0.00740695 -0.02500000 -0.00072937
v 0.00740695 -0.02500000 0.00731889
v 0.00740695 -0.02500000 0.00785782
v 0.00736298 -0.02500000 -0.00839069
v 0.00736246 -0.02500000 -0.00839396
v 0.00740695 -0.02500000 -0.00775036
v 0.00740695 -0.02500000 -0.00786979
v 0.00739615 -0.02500000 -0.00812881
v 0.00739581 -0.02500000 -0.00813389
v 0.00738298 -0.02500000 -0.00825529
v 0.00725112 -0.02500000 -0.00883880
v 0.00725615 -0.02500000 -0.00882352
v 0.00730727 -0.02500000 -0.00864931
v 0.00730765 -0.02500000 -0.00864784
v 0.00732934 -0.02500000 -0.00855933
v 0.00733391 -0.02500000 -0.00853892
v -0.00830000 -0.02500000 -0.00984621
v -0.00829982 -0.02500000 -0.00986561
v -0.00829977 -0.02500000 -0.00986685
v -0.00829620 -0.02500000 -0.00993526
v -0.00829614 -0.02500000 -0.00993587
v -0.00828482 -0.02500000 -0.01002369
v -0.00828479 -0.02500000 -0.01002386
v -0.00827966 -0.02500000 -0.01005140
v -0.00764202 -0.02500000 -0.01082059
v -0.00762547 -0.02500000 -0.01082651
v -0.00780000 -0.02500000 -0.01074390
v -0.00778967 -0.02500000 -0.01074996
v -0.00800711 -0.02500000 -0.01057847
v -0.00799127 -0.02500000 -0.01059441
v -0.00806604 -0.02500000 -0.01051152
v -0.00811915 -0.02500000 -0.01043947
v -0.00810957 -0.02500000 -0.01045339
v -0.00820631 -0.02500000 -0.01028232
v -0.00820224 -0.02500000 -0.01029128
v -0.00826593 -0.02500000 -0.01011181
v -0.00824899 -0.02500000 -0.01017021
v -0.00824726 -0.02500000 -0.01017593
v -0.00823969 -0.02500000 -0.01019842
v -0.00816603 -0.02500000 -0.01036288
v -0.00794279 -0.02500000 -0.01063982
v -0.00790889 -0.02500000 -0.01066736
v -0.00788127 -0.02500000 -0.01068940
v -0.00787358 -0.02500000 -0.01069511
v -0.00772262 -0.02500000 -0.01078584
v -0.00768228 -0.02500000 -0.01080323
v -0.00755882 -0.02500000 -0.01084790
v -0.00752501 -0.02500000 -0.01085591
v -0.00738716 -0.02500000 -0.01087941
v -0.00737476 -0.02500000 -0.01088035
v -0.00747870 -0.02500000 -0.01086659
v -0.00747365 -0.02500000 -0.01086755
v -0.00731346 -0.02500000 0.01088315
v -0.00828481 -0.02500000 0.01002378
v -0.00828494 -0.02500000 0.01002303
v -0.00828496 -0.02500000 0.01002285
v -0.00829617 -0.02500000 0.00993556
v -0.00829622 -0.02500000 0.00993498
v -0.00830000 -0.02500000 0.00984592
v -0.00763621 -0.02500000 0.01082275
v -0.00764202 -0.02500000 0.01082059
v -0.00772262 -0.02500000 0.01078584
v -0.00773328 -0.02500000 0.01078050
v -0.00799927 -0.02500000 0.01058650
v -0.00800711 -0.02500000 0.01057847
v -0.00804817 -0.02500000 0.01053182
v -0.00806604 -0.02500000 0.01051152
v -0.00807550 -0.02500000 0.01049953
v -0.00815423 -0.02500000 0.01038346
v -0.00816603 -0.02500000 0.01036288
v -0.00820631 -0.02500000 0.01028232
v -0.00820982 -0.02500000 0.01027439
v -0.00825574 -0.02500000 0.01014851
v -0.00826593 -0.02500000 0.01011181
v -0.00823969 -0.02500000 0.01019842
v -0.00825432 -0.02500000 0.01015320
v -0.00811915 -0.02500000 0.01043947
v -0.00814449 -0.02500000 0.01039936
v -0.00794279 -0.02500000 0.01063982
v -0.00797653 -0.02500000 0.01060817
v -0.00787358 -0.02500000 0.01069511
v -0.00788968 -0.02500000 0.01068294
v -0.00780000 -0.02500000 0.01074390
v -0.00784141 -0.02500000 0.01071644
v -0.00755882 -0.02500000 0.01084790
v -0.00759230 -0.02500000 0.01083715
v -0.00747365 -0.02500000 0.01086755
v -0.00749097 -0.02500000 0.01086401
v -0.00738716 -0.02500000 0.01087941
v -0.00742531 -0.02500000 0.01087418
v 0.00725813 -0.02500000 0.00881742
v 0.00730734 -0.02500000 0.00864908
v 0.00725798 -0.02500000 0.00881790
v 0.00725803 -0.02500000 0.00881773
v 0.00740695 -0.02500000 0.00787209
v 0.00739588 -0.02500000 0.00813297
v 0.00739536 -0.02500000 0.00813809
v 0.00738294 -0.02500000 0.00825615
v 0.00733494 -0.02500000 0.00853419
v 0.00736256 -0.02500000 0.00839342
v 0.00733445 -0.02500000 0.00853666
v 0.00733449 -0.02500000 0.00853647
v 0.00675618 -0.02500000 -0.00976858
v 0.00675747 -0.02500000 -0.00976694
v 0.00673955 -0.02500000 -0.00978938
v 0.00679422 -0.02500000 -0.00971717
v 0.00686915 -0.02500000 -0.00961435
v 0.00542097 -0.02500000 -0.01072421
v 0.00543171 -0.02500000 -0.01072037
v 0.00541824 -0.02500000 -0.01072514
v 0.00472721 -0.02500000 -0.01086998
v 0.00478096 -0.02500000 -0.01086620
v 0.00479528 -0.02500000 -0.01086483
v 0.00521041 -0.02500000 -0.01078806
v 0.00527356 -0.02500000 -0.01077068
v 0.00528294 -0.02500000 -0.01076806
v 0.00530571 -0.02500000 -0.01076090
v 0.00555564 -0.02500000 -0.01067384
v 0.00555810 -0.02500000 -0.01067285
v 0.00569857 -0.02500000 -0.01061170
v 0.00580364 -0.02500000 -0.01055944
v 0.00582528 -0.02500000 -0.01054864
v 0.00608610 -0.02500000 -0.01039258
v 0.00608444 -0.02500000 -0.01039369
v 0.00610747 -0.02500000 -0.01037775
v 0.00628709 -0.02500000 -0.01024307
v 0.00634280 -0.02500000 -0.01019836
v 0.00665893 -0.02500000 -0.00988633
v 0.00669422 -0.02500000 -0.00984444
v 0.00655436 -0.02500000 -0.01000030
v 0.00701565 -0.02500000 -0.00937779
v 0.00693247 -0.02500000 -0.00951811
v 0.00693517 -0.02500000 -0.00951382
v 0.00723100 -0.02500000 -0.00889815
v 0.00720645 -0.02500000 -0.00896641
v 0.00723060 -0.02500000 -0.00889933
v 0.00713453 -0.02500000 -0.00914253
v 0.00708526 -0.02500000 -0.00924802
v 0.00514093 -0.02500000 -0.01080534
v 0.00507145 -0.02500000 -0.01082080
v 0.00500072 -0.02500000 -0.01083469
v 0.00493274 -0.02500000 -0.01084633
v 0.00486373 -0.02500000 -0.01085645
v 0.00459144 -0.02500000 -0.01087826
v 0.00641382 -0.02500000 -0.01013552
v 0.00644418 -0.02500000 -0.01010838
v 0.00619550 -0.02500000 -0.01031508
v 0.00620873 -0.02500000 -0.01030540
v 0.00595539 -0.02500000 -0.01047545
f 628 356 354
f 359 630 650
f 650 360 359
f 357 630 359
f 358 630 357
f 629 630 358
f 629 356 628
f 649 363 648
f 348 626 347
f 385 626 348
f 563 479 536
f 564 479 563
f 310 584 585
f 310 585 311
f 648 363 361
f 361 360 648
f 648 360 651
f 360 650 651
f 356 629 355
f 355 629 358
f 363 649 362
f 362 649 364
f 569 2 568
f 569 293 4
f 4 2 569
f 3 2 4
f 149 26 574
f 3 26 149
f 565 567 297
f 297 566 565
f 46 44 40
f 138 137 84
f 652 352 353
f 354 352 652
f 305 479 564
f 564 346 305
f 351 652 353
f 308 566 294
f 338 337 612
f 607 324 323
f 325 600 598
f 325 324 599
f 599 600 325
f 599 324 607
f 584 310 309
f 606 601 320
f 604 317 603
f 625 626 385
f 705 42 41
f 704 42 705
f 38 703 39
f 574 26 575
f 575 26 31
f 9 10 8
f 31 26 27
f 573 568 2
f 573 2 3
f 6 26 3
f 3 5 6
f 6 5 26
f 7 4 293
f 7 293 150
f 298 297 567
f 566 297 296
f 567 306 304
f 69 70 60
f 60 710 69
f 70 710 60
f 680 710 70
f 18 84 137
f 52 715 53
f 134 137 138
f 56 58 716
f 570 293 569
f 150 293 570
f 570 662 150
f 266 268 669
f 669 268 666
f 268 667 666
f 663 270 271
f 271 662 663
f 150 662 271
f 628 354 627
f 620 346 564
f 620 656 346
f 349 657 654
f 656 657 349
f 346 656 349
f 655 351 654
f 652 351 655
f 254 255 258
f 258 524 529
f 261 519 518
f 259 524 258
f 259 518 524
f 261 518 259
f 483 1 479
f 227 1 483
f 549 548 242
f 252 255 256
f 256 525 252
f 164 523 521
f 334 332 611
f 594 334 611
f 333 334 594
f 594 336 333
f 308 345 616
f 613 592 338
f 338 612 613
f 335 612 337
f 336 612 335
f 595 336 594
f 595 612 336
f 618 341 615
f 618 343 342
f 342 341 618
f 321 322 607
f 607 323 321
f 325 598 326
f 326 598 596
f 596 328 326
f 311 585 586
f 589 314 588
f 313 586 587
f 311 586 313
f 587 588 313
f 316 591 603
f 603 317 316
f 607 322 602
f 322 601 602
f 606 320 318
f 317 604 318
f 319 601 322
f 319 320 601
f 365 364 646
f 364 649 646
f 634 369 367
f 376 374 638
f 638 374 637
f 383 384 624
f 624 625 383
f 383 625 385
f 623 384 622
f 624 384 623
f 382 381 622
f 622 384 382
f 642 379 377
f 380 641 621
f 621 381 380
f 622 381 621
f 378 641 380
f 379 641 378
f 640 641 379
f 45 41 40
f 705 41 45
f 40 44 45
f 37 704 38
f 42 704 37
f 37 117 40
f 40 41 37
f 37 41 42
f 702 703 38
f 38 704 702
f 581 582 33
f 33 580 581
f 579 580 33
f 33 39 579
f 576 575 31
f 35 572 36
f 33 35 34
f 286 285 278
f 285 277 278
f 278 277 258
f 278 287 286
f 286 287 182
f 182 287 188
f 182 285 286
f 113 10 9
f 115 34 114
f 567 300 299
f 299 298 567
f 294 566 295
f 566 296 295
f 307 306 567
f 567 386 307
f 705 45 698
f 698 45 44
f 53 715 693
f 693 694 53
f 61 680 70
f 65 388 711
f 66 65 711
f 711 386 567
f 142 675 145
f 59 690 692
f 687 143 686
f 691 56 716
f 691 690 59
f 59 56 691
f 137 134 133
f 133 134 58
f 58 56 133
f 264 266 659
f 263 519 261
f 264 661 263
f 664 270 663
f 664 665 270
f 269 665 667
f 269 667 268
f 270 665 269
f 354 652 653
f 653 627 354
f 654 351 350
f 350 349 654
f 527 254 257
f 257 254 258
f 258 529 257
f 188 287 288
f 169 235 541
f 479 1 535
f 227 533 535
f 552 549 241
f 241 240 552
f 552 240 553
f 553 245 550
f 242 548 244
f 548 237 244
f 238 239 232
f 252 525 522
f 522 523 252
f 525 256 526
f 526 256 255
f 526 254 527
f 255 254 526
f 520 164 521
f 252 523 253
f 523 164 253
f 610 331 609
f 610 611 332
f 329 327 597
f 597 327 328
f 597 328 596
f 608 331 329
f 329 597 608
f 609 331 608
f 566 308 617
f 308 616 617
f 619 616 345
f 345 344 619
f 619 344 343
f 619 343 618
f 338 592 339
f 592 340 339
f 341 340 614
f 614 615 341
f 312 588 314
f 312 313 588
f 591 316 590
f 590 314 589
f 606 318 605
f 605 318 604
f 647 631 365
f 365 646 647
f 365 631 632
f 635 644 370
f 370 368 635
f 635 368 369
f 635 369 634
f 642 377 639
f 376 638 639
f 643 379 642
f 643 640 379
f 119 46 40
f 126 127 118
f 118 117 126
f 40 117 118
f 118 119 40
f 125 126 116
f 126 117 116
f 97 127 126
f 578 579 39
f 583 572 35
f 33 582 583
f 583 35 33
f 30 36 577
f 577 576 30
f 30 576 31
f 577 36 571
f 571 36 572
f 276 284 283
f 283 275 276
f 285 284 276
f 276 277 285
f 265 266 264
f 268 266 265
f 274 283 282
f 274 275 283
f 274 265 275
f 283 284 175
f 175 177 283
f 258 255 279
f 279 278 258
f 287 278 279
f 279 255 252
f 423 113 516
f 112 424 427
f 10 113 112
f 425 113 423
f 10 123 13
f 12 8 13
f 13 8 10
f 13 11 12
f 155 159 156
f 301 300 567
f 567 302 301
f 567 304 303
f 303 302 567
f 700 698 44
f 44 46 700
f 695 50 697
f 46 119 47
f 53 694 122
f 697 50 49
f 69 710 709
f 62 70 71
f 62 61 70
f 680 61 62
f 679 64 66
f 679 62 71
f 680 62 679
f 386 711 387
f 387 711 388
f 706 24 707
f 139 143 134
f 686 143 139
f 677 675 142
f 142 684 677
f 84 18 83
f 18 17 83
f 88 18 137
f 88 17 18
f 86 404 402
f 54 52 53
f 54 56 59
f 692 714 54
f 59 692 54
f 54 714 715
f 715 52 54
f 131 90 135
f 121 49 50
f 48 49 121
f 134 143 144
f 143 687 144
f 716 58 689
f 70 415 393
f 658 661 264
f 264 659 658
f 668 266 669
f 668 659 266
f 260 263 261
f 261 259 260
f 258 277 260
f 260 259 258
f 150 271 151
f 527 257 528
f 528 257 529
f 187 182 188
f 188 189 187
f 188 288 190
f 190 189 188
f 191 189 190
f 272 203 197
f 491 217 492
f 219 169 167
f 217 169 219
f 543 542 167
f 543 169 541
f 167 169 543
f 165 539 224
f 539 231 540
f 536 479 534
f 479 535 534
f 229 1 227
f 227 535 229
f 229 535 1
f 227 483 228
f 228 537 533
f 228 533 227
f 223 222 224
f 537 222 223
f 197 290 291
f 290 245 291
f 291 245 240
f 243 549 242
f 242 241 243
f 243 241 549
f 240 245 246
f 246 553 240
f 245 553 246
f 235 169 168
f 168 169 217
f 250 556 555
f 555 554 250
f 550 245 551
f 245 554 551
f 251 245 250
f 250 554 251
f 251 554 245
f 557 558 247
f 247 163 557
f 330 610 332
f 331 610 330
f 593 340 592
f 593 614 340
f 314 590 315
f 315 590 316
f 365 632 366
f 366 632 367
f 634 367 633
f 367 632 633
f 370 644 371
f 644 373 371
f 637 373 636
f 637 374 372
f 372 373 637
f 376 639 375
f 375 639 377
f 129 94 92
f 92 90 129
f 128 94 129
f 128 118 127
f 119 118 128
f 127 97 128
f 128 97 94
f 117 37 32
f 32 116 117
f 32 37 38
f 38 39 32
f 32 39 33
f 33 34 32
f 32 34 115
f 115 116 32
f 94 97 98
f 101 97 126
f 101 126 125
f 125 104 101
f 701 39 703
f 701 578 39
f 36 30 28
f 28 30 31
f 27 14 28
f 31 27 28
f 263 260 262
f 264 263 262
f 262 265 264
f 262 276 275
f 275 265 262
f 277 276 262
f 262 260 277
f 267 269 268
f 268 265 267
f 265 274 267
f 186 175 184
f 184 284 285
f 184 175 284
f 285 182 184
f 184 182 183
f 280 288 287
f 287 279 280
f 280 279 252
f 252 253 280
f 103 101 105
f 105 101 104
f 452 517 158
f 282 283 170
f 283 177 170
f 46 674 699
f 699 700 46
f 672 47 696
f 50 695 51
f 51 121 50
f 695 696 51
f 51 696 47
f 89 90 91
f 91 92 93
f 90 92 91
f 147 406 404
f 147 404 86
f 86 135 147
f 48 122 713
f 713 49 48
f 697 49 713
f 66 711 678
f 678 679 66
f 148 67 417
f 22 709 708
f 683 141 682
f 683 684 142
f 142 141 683
f 682 141 681
f 78 76 72
f 72 76 77
f 422 421 82
f 82 421 80
f 676 145 675
f 676 139 145
f 142 145 140
f 145 139 140
f 140 141 142
f 140 78 141
f 140 134 138
f 140 139 134
f 400 395 17
f 401 88 403
f 87 88 19
f 87 19 86
f 86 402 87
f 55 54 53
f 131 54 55
f 53 122 55
f 55 121 131
f 55 122 48
f 48 121 55
f 131 135 136
f 86 19 136
f 136 135 86
f 136 88 137
f 19 88 136
f 137 133 136
f 130 90 131
f 131 121 130
f 129 90 130
f 130 121 129
f 57 689 58
f 58 134 57
f 134 144 57
f 57 144 687
f 389 66 392
f 63 679 71
f 64 679 63
f 519 263 530
f 263 532 530
f 531 532 263
f 152 151 161
f 161 151 271
f 161 271 270
f 270 269 161
f 269 267 161
f 154 159 155
f 496 514 193
f 192 290 197
f 197 206 192
f 182 187 180
f 461 189 462
f 461 187 189
f 462 189 463
f 513 465 196
f 191 190 196
f 196 190 195
f 164 520 162
f 162 520 557
f 557 163 162
f 290 289 281
f 281 162 163
f 164 162 281
f 281 253 164
f 281 280 253
f 281 289 288
f 288 280 281
f 500 501 204
f 204 501 206
f 204 206 197
f 509 209 510
f 240 241 292
f 292 291 240
f 292 272 197
f 197 291 292
f 200 272 273
f 202 272 200
f 203 272 202
f 493 219 494
f 167 542 166
f 166 219 167
f 225 165 224
f 225 226 231
f 225 231 539
f 539 165 225
f 495 226 486
f 542 540 230
f 230 540 231
f 230 166 542
f 231 226 230
f 226 166 230
f 539 538 220
f 224 539 220
f 220 538 537
f 220 223 224
f 537 223 220
f 482 484 224
f 221 222 537
f 537 228 221
f 232 168 210
f 211 209 210
f 233 232 239
f 239 547 233
f 214 217 212
f 214 168 217
f 559 239 238
f 559 547 239
f 562 237 548
f 238 237 562
f 562 561 238
f 248 558 556
f 248 247 558
f 248 556 250
f 645 373 644
f 645 636 373
f 103 437 436
f 96 98 97
f 94 98 99
f 93 92 99
f 99 92 94
f 99 451 450
f 99 450 93
f 36 28 29
f 35 36 29
f 29 34 35
f 29 114 34
f 16 14 15
f 16 28 14
f 114 29 16
f 16 29 28
f 15 11 16
f 11 13 16
f 16 123 114
f 16 13 123
f 186 184 185
f 185 184 183
f 185 457 477
f 177 175 176
f 175 174 176
f 478 476 186
f 473 174 475
f 112 111 110
f 10 112 110
f 110 123 10
f 439 108 440
f 106 108 439
f 439 438 106
f 106 438 105
f 106 105 104
f 104 108 106
f 109 110 111
f 466 454 171
f 172 158 157
f 171 158 172
f 157 156 172
f 172 156 159
f 172 170 171
f 172 159 282
f 282 170 172
f 452 158 453
f 171 170 179
f 670 47 672
f 670 671 47
f 43 674 46
f 46 47 43
f 47 671 43
f 120 51 47
f 121 51 120
f 129 121 120
f 120 47 119
f 120 128 129
f 119 128 120
f 448 91 449
f 445 89 447
f 146 147 135
f 146 90 89
f 146 135 90
f 712 122 694
f 712 713 122
f 417 67 419
f 67 418 419
f 416 413 68
f 67 148 68
f 68 22 67
f 21 708 707
f 21 22 708
f 707 24 21
f 24 22 21
f 706 681 23
f 24 706 23
f 23 681 141
f 23 78 24
f 141 78 23
f 412 77 409
f 72 77 73
f 399 422 85
f 422 82 85
f 686 139 685
f 139 676 685
f 76 78 79
f 78 140 79
f 79 75 76
f 80 75 79
f 79 82 80
f 397 398 84
f 132 54 131
f 131 136 132
f 132 136 133
f 132 133 56
f 56 54 132
f 688 57 687
f 689 57 688
f 660 263 661
f 660 531 263
f 160 154 153
f 159 154 160
f 282 159 160
f 160 274 282
f 160 267 274
f 160 161 267
f 160 153 152
f 152 161 160
f 206 501 499
f 193 192 199
f 498 497 199
f 194 289 290
f 290 192 194
f 194 192 193
f 193 195 194
f 195 190 194
f 194 190 288
f 288 289 194
f 183 182 181
f 182 180 181
f 459 455 181
f 458 180 460
f 515 512 195
f 506 504 200
f 500 204 205
f 197 203 205
f 205 204 197
f 236 241 242
f 236 292 241
f 242 244 236
f 272 292 236
f 236 273 272
f 236 244 237
f 236 237 238
f 238 232 236
f 232 273 236
f 201 202 200
f 203 202 201
f 219 166 218
f 218 166 226
f 218 495 494
f 494 219 218
f 218 226 495
f 213 210 168
f 168 214 213
f 213 214 212
f 490 487 213
f 213 212 490
f 234 168 232
f 232 233 234
f 235 168 234
f 238 561 560
f 560 559 238
f 249 248 250
f 250 245 249
f 249 245 290
f 247 248 249
f 290 281 249
f 163 247 249
f 249 281 163
f 442 96 431
f 451 99 444
f 470 176 472
f 472 176 474
f 173 475 174
f 173 175 186
f 173 174 175
f 111 426 429
f 123 110 124
f 124 104 125
f 125 116 124
f 124 116 115
f 115 114 124
f 114 123 124
f 441 440 108
f 441 109 428
f 108 109 441
f 467 179 469
f 178 170 177
f 178 179 170
f 177 176 178
f 674 43 673
f 673 43 671
f 405 146 446
f 20 68 69
f 69 709 20
f 411 418 74
f 74 418 67
f 67 22 74
f 72 73 74
f 74 22 24
f 74 78 72
f 24 78 74
f 420 407 75
f 84 85 81
f 138 84 81
f 81 85 82
f 82 79 81
f 81 140 138
f 81 79 140
f 198 192 206
f 198 199 192
f 498 199 198
f 507 207 508
f 208 207 200
f 200 273 208
f 209 207 208
f 208 210 209
f 208 273 232
f 232 210 208
f 500 205 503
f 505 502 203
f 203 201 505
f 210 213 215
f 546 233 547
f 546 234 233
f 432 100 433
f 102 101 103
f 97 101 102
f 102 100 97
f 107 124 110
f 107 109 108
f 110 109 107
f 107 108 104
f 104 124 107
f 468 178 471
f 709 22 25
f 25 20 709
f 22 68 25
f 68 20 25
f 489 511 216
f 216 511 211
f 211 210 216
f 210 215 216
f 541 235 544
f 235 234 544
f 95 96 97
f 97 100 95
f 434 102 435
f 234 546 545
f 545 544 234
f 626 584 309
f 347 626 309
f 573 149 574
f 3 149 573
f 7 5 3
f 3 4 7
f 150 26 7
f 26 5 7
f 388 66 389
f 388 65 66
f 414 70 69
f 414 415 70
f 425 112 113
f 424 112 425
f 156 8 12
f 12 155 156
f 9 8 156
f 156 157 9
f 393 394 71
f 71 70 393
f 151 26 150
f 151 27 26
f 151 14 27
f 152 14 151
f 153 14 152
f 15 14 153
f 490 212 491
f 212 217 491
f 9 157 158
f 158 113 9
f 158 517 516
f 158 516 113
f 91 448 447
f 447 89 91
f 400 88 401
f 17 88 400
f 402 403 87
f 87 403 88
f 64 391 392
f 66 64 392
f 154 155 12
f 12 11 154
f 15 153 154
f 154 11 15
f 463 189 191
f 191 464 463
f 196 512 513
f 195 512 196
f 196 465 464
f 196 464 191
f 211 511 510
f 510 209 211
f 492 217 493
f 217 219 493
f 484 485 225
f 224 484 225
f 486 225 485
f 226 225 486
f 222 481 482
f 224 222 482
f 456 457 185
f 183 456 185
f 186 185 478
f 478 185 477
f 438 437 103
f 103 105 438
f 426 112 427
f 426 111 112
f 171 454 453
f 453 158 171
f 93 450 449
f 449 91 93
f 146 405 406
f 406 147 146
f 417 416 68
f 68 148 417
f 68 414 69
f 68 413 414
f 409 76 408
f 409 77 76
f 412 410 73
f 73 77 412
f 408 76 407
f 76 75 407
f 85 398 399
f 84 398 85
f 71 394 390
f 390 63 71
f 390 391 64
f 64 63 390
f 497 496 199
f 199 496 193
f 458 459 181
f 181 180 458
f 181 456 183
f 181 455 456
f 460 180 187
f 187 461 460
f 193 514 515
f 515 195 193
f 507 506 207
f 207 506 200
f 480 228 483
f 480 221 228
f 480 481 222
f 222 221 480
f 98 96 442
f 442 443 98
f 98 443 444
f 444 99 98
f 474 174 473
f 474 176 174
f 476 475 173
f 186 476 173
f 428 109 429
f 429 109 111
f 467 466 171
f 171 179 467
f 178 468 469
f 469 179 178
f 89 445 446
f 446 146 89
f 74 410 411
f 74 73 410
f 420 75 80
f 80 421 420
f 396 83 17
f 17 395 396
f 84 83 396
f 396 397 84
f 198 499 498
f 206 499 198
f 508 209 509
f 508 207 209
f 203 502 503
f 503 205 203
f 200 504 505
f 505 201 200
f 487 488 215
f 215 213 487
f 102 436 435
f 103 436 102
f 176 470 471
f 471 178 176
f 216 488 489
f 216 215 488
f 433 100 434
f 100 102 434
f 703 702 545
f 545 567 565
f 545 711 567
f 603 591 545
f 545 584 626
f 626 625 545
f 565 566 545
f 545 526 527
f 545 604 603
f 628 627 545
f 545 655 654
f 545 563 536
f 585 584 545
f 545 599 607
f 545 629 628
f 545 573 574
f 675 677 545
f 545 691 716
f 545 553 550
f 521 523 545
f 536 534 545
f 596 598 545
f 545 650 630
f 630 629 545
f 545 649 648
f 648 651 545
f 545 623 622
f 569 568 545
f 680 679 545
f 715 714 545
f 545 570 569
f 661 658 545
f 564 563 545
f 545 653 652
f 545 522 525
f 545 595 594
f 545 610 609
f 592 613 545
f 618 615 545
f 589 588 545
f 545 651 650
f 545 646 649
f 545 635 634
f 607 602 545
f 545 704 705
f 545 576 577
f 574 575 545
f 637 636 545
f 545 695 697
f 545 670 672
f 663 662 545
f 669 666 545
f 654 657 545
f 545 620 564
f 545 712 694
f 545 518 519
f 527 528 545
f 548 549 545
f 545 558 557
f 594 611 545
f 566 617 545
f 545 598 600
f 600 599 545
f 545 586 585
f 550 551 545
f 545 601 606
f 545 590 589
f 631 647 545
f 545 593 592
f 545 625 624
f 622 621 545
f 642 639 545
f 582 581 545
f 545 643 642
f 568 573 545
f 705 698 545
f 545 701 703
f 545 693 715
f 710 680 545
f 682 681 545
f 545 678 711
f 662 570 545
f 545 668 669
f 545 666 667
f 667 665 545
f 545 664 663
f 656 620 545
f 545 657 656
f 652 655 545
f 545 529 524
f 524 518 545
f 539 540 545
f 545 549 552
f 674 673 545
f 545 555 556
f 545 520 521
f 609 608 545
f 545 608 597
f 545 613 612
f 612 595 545
f 545 619 618
f 587 586 545
f 545 588 587
f 545 602 601
f 606 605 545
f 634 633 545
f 545 638 637
f 624 623 545
f 545 621 641
f 641 640 545
f 545 702 704
f 545 581 580
f 580 579 545
f 575 576 545
f 545 583 582
f 577 571 545
f 545 699 674
f 694 693 545
f 707 708 545
f 545 709 710
f 545 683 682
f 545 692 690
f 545 687 686
f 690 691 545
f 716 689 545
f 665 664 545
f 627 653 545
f 545 543 541
f 545 535 533
f 533 537 545
f 552 553 545
f 545 538 539
f 523 522 545
f 525 526 545
f 547 559 545
f 556 558 545
f 557 520 545
f 611 610 545
f 545 597 596
f 545 617 616
f 616 619 545
f 615 614 545
f 591 590 545
f 545 605 604
f 545 647 646
f 545 632 631
f 644 635 545
f 545 639 638
f 640 643 545
f 579 578 545
f 572 583 545
f 545 571 572
f 698 700 545
f 545 560 561
f 672 696 545
f 708 709 545
f 697 713 545
f 545 706 707
f 545 677 684
f 545 714 692
f 686 685 545
f 545 658 659
f 659 668 545
f 519 530 545
f 545 528 529
f 542 543 545
f 545 540 542
f 545 534 535
f 537 538 545
f 545 688 687
f 554 555 545
f 545 551 554
f 614 593 545
f 545 633 632
f 545 562 548
f 578 701 545
f 700 699 545
f 545 645 644
f 545 696 695
f 679 678 545
f 684 683 545
f 545 681 706
f 545 676 675
f 545 530 532
f 532 531 545
f 545 660 661
f 561 562 545
f 636 645 545
f 671 670 545
f 713 712 545
f 545 685 676
f 689 688 545
f 531 660 545
f 559 560 545
f 545 673 671
f 545 546 547
f 541 544 545
f 353 352 430
f 430 310 311
f 430 299 300
f 363 362 430
f 430 368 370
f 430 337 338
f 359 360 430
f 430 342 343
f 430 517 452
f 430 351 353
f 317 318 430
f 430 335 337
f 385 348 430
f 306 307 430
f 514 496 430
f 430 357 359
f 430 354 356
f 430 361 363
f 430 364 365
f 314 315 430
f 430 374 376
f 430 425 423
f 381 382 430
f 479 305 430
f 346 349 430
f 430 483 479
f 329 331 430
f 430 352 354
f 356 355 430
f 347 309 430
f 358 357 430
f 430 348 347
f 427 424 430
f 376 375 430
f 430 445 447
f 430 396 395
f 430 332 334
f 494 495 430
f 430 308 294
f 430 324 325
f 322 321 430
f 430 327 329
f 325 326 430
f 360 361 430
f 430 355 358
f 430 362 364
f 380 381 430
f 430 378 380
f 430 480 483
f 294 295 430
f 430 438 439
f 430 409 408
f 430 305 346
f 399 398 430
f 430 465 513
f 430 508 509
f 430 485 484
f 334 333 430
f 343 344 430
f 430 323 324
f 328 327 430
f 430 309 310
f 311 313 430
f 430 316 317
f 430 319 322
f 430 383 385
f 430 372 374
f 365 366 430
f 473 475 430
f 430 505 504
f 297 298 430
f 430 296 297
f 430 388 389
f 430 304 306
f 417 419 430
f 386 387 430
f 430 416 417
f 430 350 351
f 509 510 430
f 389 392 430
f 430 487 490
f 489 488 430
f 495 486 430
f 430 333 336
f 430 345 308
f 336 335 430
f 430 340 341
f 341 342 430
f 430 321 323
f 430 326 328
f 338 339 430
f 430 330 332
f 430 318 320
f 320 319 430
f 369 368 430
f 430 367 369
f 430 312 314
f 384 383 430
f 430 382 384
f 430 377 379
f 379 378 430
f 430 501 500
f 430 457 456
f 298 299 430
f 430 295 296
f 430 441 428
f 430 307 386
f 300 301 430
f 430 303 304
f 447 448 430
f 411 410 430
f 415 414 430
f 414 413 430
f 349 350 430
f 430 393 415
f 462 463 430
f 430 511 489
f 490 491 430
f 430 493 494
f 430 344 345
f 430 339 340
f 313 312 430
f 370 371 430
f 435 436 430
f 469 468 430
f 430 434 435
f 430 478 477
f 423 516 430
f 424 425 430
f 430 426 427
f 430 301 302
f 302 303 430
f 452 453 430
f 404 406 430
f 430 387 388
f 430 449 450
f 430 422 399
f 430 400 401
f 430 402 404
f 401 403 430
f 430 420 421
f 394 393 430
f 430 497 498
f 430 461 462
f 458 460 430
f 430 491 492
f 430 488 487
f 504 506 430
f 331 330 430
f 430 315 316
f 430 366 367
f 430 371 373
f 373 372 430
f 430 375 377
f 450 451 430
f 484 482 430
f 468 471 430
f 451 444 430
f 430 459 458
f 456 455 430
f 477 457 430
f 516 517 430
f 439 440 430
f 406 405 430
f 430 410 412
f 430 418 411
f 430 421 422
f 395 400 430
f 408 407 430
f 430 403 402
f 430 413 416
f 430 392 391
f 430 496 497
f 430 390 394
f 498 499 430
f 464 465 430
f 430 463 464
f 513 512 430
f 430 515 514
f 500 503 430
f 430 510 511
f 492 493 430
f 430 486 485
f 430 482 481
f 430 436 437
f 430 442 431
f 430 455 459
f 476 478 430
f 430 475 476
f 437 438 430
f 430 474 473
f 428 429 430
f 454 466 430
f 430 453 454
f 448 449 430
f 430 467 469
f 430 419 418
f 412 409 430
f 405 446 430
f 398 397 430
f 391 390 430
f 430 499 501
f 430 460 461
f 512 515 430
f 430 506 507
f 481 480 430
f 443 442 430
f 430 444 443
f 430 470 472
f 472 474 430
f 430 429 426
f 440 441 430
f 466 467 430
f 430 446 445
f 407 420 430
f 397 396 430
f 507 508 430
f 430 503 502
f 502 505 430
f 430 432 433
f 430 471 470
f 433 434 430
f 431 96 430
f 96 95 430
f 100 432 430
f 430 95 100
