# https://github.com/mikedh/trimesh
v -0.01163429 0.00789091 0.06572033
v -0.01163407 0.00718527 0.07552733
v -0.01161921 0.00712169 0.07552302
v -0.01247364 0.00792101 0.07551420
v -0.01194065 0.00767716 0.07556068
v -0.01199124 0.00771858 0.07556349
v -0.01160000 0.00659460 0.08026760
v -0.01160214 0.00699230 0.07551424
v -0.01160000 0.00763043 0.06572033
v -0.01160214 0.00769605 0.06572033
v -0.01173397 0.00742590 0.07554365
v -0.01176853 0.00748134 0.07554740
v -0.01180665 0.00753441 0.07555100
v -0.01184816 0.00758488 0.07555443
v -0.01189289 0.00763253 0.07555766
v -0.01221732 0.00784881 0.07557233
v -0.01215771 0.00782186 0.07557049
v -0.01210000 0.00779109 0.07556841
v -0.01204443 0.00775661 0.07556608
v -0.01246947 0.00791622 0.07557689
v -0.01240491 0.00790558 0.07557617
v -0.01234118 0.00789076 0.07557517
v -0.01227856 0.00787181 0.07557388
v -0.01260000 0.00863377 0.06572033
v -0.01253460 0.00863162 0.06572033
v -0.01251313 0.00862997 0.06572033
v -0.01242691 0.00861862 0.06572033
v -0.01240491 0.00861449 0.06572033
v -0.01234199 0.00859979 0.06572033
v -0.01227856 0.00858052 0.06572033
v -0.01225899 0.00857363 0.06572033
v -0.01217854 0.00854030 0.06572033
v -0.01215771 0.00853029 0.06572033
v -0.01210125 0.00850007 0.06572033
v -0.01204443 0.00846467 0.06572033
v -0.01202771 0.00845321 0.06572033
v -0.01195847 0.00840009 0.06572033
v -0.01194065 0.00838477 0.06572033
v -0.01189407 0.00834107 0.06572033
v -0.01184816 0.00829197 0.06572033
v -0.01183501 0.00827662 0.06572033
v -0.01178175 0.00820720 0.06572033
v -0.01176853 0.00818785 0.06572033
v -0.01173470 0.00813334 0.06572033
v -0.01170313 0.00736832 0.07553975
v -0.01170313 0.00807419 0.06572033
v -0.01169423 0.00805561 0.06572033
v -0.01167612 0.00730885 0.07553571
v -0.01166067 0.00797459 0.06572033
v -0.01165307 0.00724775 0.07553156
v -0.01165307 0.00795294 0.06572033
v -0.01160383 0.00771815 0.06572033
v -0.01160855 0.00776139 0.06572033
v -0.01160855 0.00705727 0.07551865
v -0.01161529 0.00780521 0.06572033
v -0.01161921 0.00782617 0.06572033
v -0.01246947 -0.00791622 0.07557689
v -0.01240491 -0.00790558 0.07557617
v -0.01234118 -0.00789076 0.07557517
v -0.01227856 -0.00787181 0.07557388
v -0.01221732 -0.00784881 0.07557233
v -0.01215771 -0.00782186 0.07557049
v -0.01210000 -0.00779109 0.07556841
v -0.01204443 -0.00775661 0.07556608
v -0.01199124 -0.00771858 0.07556349
v -0.01194065 -0.00767716 0.07556068
v -0.01189289 -0.00763253 0.07555766
v -0.01184816 -0.00758488 0.07555443
v -0.01180665 -0.00753441 0.07555100
v -0.01176853 -0.00748134 0.07554740
v -0.01173397 -0.00742590 0.07554365
v -0.01170313 -0.00736832 0.07553975
v -0.01167612 -0.00730885 0.07553571
v -0.01165307 -0.00724775 0.07553156
v -0.01163407 -0.00718527 0.07552733
v -0.01161921 -0.00712169 0.07552302
v -0.01160855 -0.00705727 0.07551865
v -0.01160214 -0.00699230 0.07551424
v -0.01160000 -0.00692473 0.07554919
v -0.01161529 -0.00780522 0.06572033
v -0.01160855 -0.00776139 0.06572033
v -0.01160383 -0.00771816 0.06572033
v -0.01160214 -0.00769605 0.06572033
v -0.01160000 -0.00763043 0.06572033
v -0.01169424 -0.00805562 0.06572033
v -0.01167612 -0.00801438 0.06572033
v -0.01166068 -0.00797460 0.06572033
v -0.01163429 -0.00789092 0.06572033
v -0.01163407 -0.00789011 0.06572033
v -0.01183502 -0.00827663 0.06572033
v -0.01180664 -0.00824122 0.06572033
v -0.01178175 -0.00820721 0.06572033
v -0.01173470 -0.00813335 0.06572033
v -0.01173397 -0.00813209 0.06572033
v -0.01202772 -0.00845322 0.06572033
v -0.01199124 -0.00842643 0.06572033
v -0.01195848 -0.00840009 0.06572033
v -0.01189408 -0.00834108 0.06572033
v -0.01189289 -0.00833989 0.06572033
v -0.01225900 -0.00857363 0.06572033
v -0.01221731 -0.00855739 0.06572033
v -0.01217855 -0.00854031 0.06572033
v -0.01210126 -0.00850007 0.06572033
v -0.01210000 -0.00849934 0.06572033
v -0.01253460 -0.00863162 0.06572033
v -0.01251314 -0.00862997 0.06572033
v -0.01246947 -0.00862518 0.06572033
v -0.01242693 -0.00861862 0.06572033
v -0.01234200 -0.00859980 0.06572033
v -0.01234118 -0.00859958 0.06572033
v -0.01260000 -0.00863377 0.06572033
v -0.01853315 -0.00748322 0.08174381
v -0.01840848 -0.00748961 0.08169892
v -0.02494033 -0.00521140 0.07229446
v -0.02151743 -0.00455878 0.08169881
v -0.02121245 -0.00473940 0.08250825
v -0.02117300 -0.00501220 0.08251484
v -0.02114379 -0.00515012 0.08251481
v -0.02110802 -0.00528843 0.08251241
v -0.02106557 -0.00542663 0.08250757
v -0.02101636 -0.00556420 0.08250023
v -0.02096034 -0.00570060 0.08249032
v -0.02089755 -0.00583528 0.08247781
v -0.02082804 -0.00596766 0.08246268
v -0.02075195 -0.00609718 0.08244493
v -0.02066944 -0.00622330 0.08242459
v -0.02058076 -0.00634546 0.08240169
v -0.02048619 -0.00646316 0.08237631
v -0.02119582 -0.00487515 0.08251262
v -0.01865982 -0.00747072 0.08178896
v -0.01878802 -0.00745185 0.08183417
v -0.01904746 -0.00739405 0.08192416
v -0.01891738 -0.00742636 0.08187930
v -0.01930801 -0.00730836 0.08201241
v -0.01917783 -0.00735476 0.08196859
v -0.02038606 -0.00657589 0.08234853
v -0.01943750 -0.00725477 0.08205542
v -0.01956578 -0.00719396 0.08209744
v -0.01981662 -0.00705088 0.08217775
v -0.01969233 -0.00712597 0.08213828
v -0.02005632 -0.00688002 0.08225187
v -0.01993813 -0.00696883 0.08221567
v -0.02028075 -0.00668321 0.08231844
v -0.02017069 -0.00678471 0.08228618
v -0.01840848 0.00748961 0.08169892
v -0.01853325 0.00748321 0.08174385
v -0.02121245 0.00473940 0.08250825
v -0.02151789 0.00455887 0.08169754
v -0.02389585 0.00501534 0.07516415
v -0.02038610 0.00657585 0.08234854
v -0.02028080 0.00668317 0.08231845
v -0.02017074 0.00678467 0.08228619
v -0.02005637 0.00687998 0.08225188
v -0.01993819 0.00696879 0.08221569
v -0.01981669 0.00705084 0.08217777
v -0.01969240 0.00712593 0.08213830
v -0.01956585 0.00719392 0.08209746
v -0.01943757 0.00725473 0.08205544
v -0.01930809 0.00730833 0.08201244
v -0.01917792 0.00735473 0.08196862
v -0.01904755 0.00739403 0.08192419
v -0.01891747 0.00742634 0.08187933
v -0.01878812 0.00745183 0.08183420
v -0.01865992 0.00747071 0.08178899
v -0.02119582 0.00487515 0.08251262
v -0.02114379 0.00515011 0.08251481
v -0.02117300 0.00501220 0.08251484
v -0.02106558 0.00542661 0.08250757
v -0.02110803 0.00528841 0.08251241
v -0.02096035 0.00570058 0.08249032
v -0.02101636 0.00556418 0.08250023
v -0.02082806 0.00596763 0.08246268
v -0.02089756 0.00583525 0.08247781
v -0.02066947 0.00622326 0.08242460
v -0.02075197 0.00609715 0.08244494
v -0.02048623 0.00646312 0.08237632
v -0.02058079 0.00634543 0.08240170
v -0.01667849 -0.00765493 0.07946879
v -0.01667849 0.00765493 0.07946879
v -0.01613129 -0.00769317 0.07893294
v -0.01613129 0.00769317 0.07893294
v -0.01677663 0.00764911 0.07954980
v -0.01677903 0.00764899 0.07955144
v -0.01672707 -0.00765180 0.07951239
v -0.01672707 0.00765180 0.07951239
v -0.01677663 -0.00764911 0.07954980
v -0.01677903 -0.00764899 0.07955144
v -0.01682919 0.00764672 0.07958300
v -0.01683430 0.00764651 0.07958592
v -0.01682919 -0.00764672 0.07958300
v -0.01683430 -0.00764651 0.07958592
v -0.01688429 0.00764465 0.07961174
v -0.01689235 0.00764438 0.07961547
v -0.01688429 -0.00764465 0.07961174
v -0.01689235 -0.00764438 0.07961547
v -0.01694145 0.00764292 0.07963577
v -0.01695274 0.00764262 0.07963987
v -0.01694145 -0.00764292 0.07963577
v -0.01700049 0.00764153 0.07965501
v -0.01701503 0.00764125 0.07965894
v -0.01706081 0.00764050 0.07966929
v -0.01707873 0.00764026 0.07967253
v -0.01713177 0.00763976 0.07967953
v -0.01714337 0.00763969 0.07968055
v -0.01719366 0.00763952 0.07968288
v -0.01720847 0.00763951 0.07968292
v -0.01725571 0.00763965 0.07968110
v -0.01727353 0.00763975 0.07967964
v -0.01731746 0.00764015 0.07967419
v -0.01733805 0.00764040 0.07967072
v -0.02652124 -0.00064952 0.06795096
v -0.02652124 0.00064952 0.06795096
v -0.02303279 0.00048209 0.07753538
v -0.02339418 0.00057453 0.07654248
v -0.02339418 -0.00057453 0.07654248
v -0.02303279 -0.00048209 0.07753538
v -0.01430000 0.00870280 0.06500000
v -0.01330000 0.00769026 0.06500000
v -0.01330453 0.00779282 0.06500000
v -0.01330053 0.00772528 0.06500000
v -0.01330376 0.00778582 0.06500000
v -0.01330016 0.00771606 0.06500000
v -0.01331467 0.00786986 0.06500000
v -0.01330992 0.00783994 0.06500000
v -0.01333636 0.00796632 0.06500000
v -0.01333431 0.00795952 0.06500000
v -0.01332034 0.00790028 0.06500000
v -0.01335970 0.00804035 0.06500000
v -0.01335218 0.00801885 0.06500000
v -0.01339472 0.00812521 0.06500000
v -0.01337353 0.00807661 0.06500000
v -0.01343378 0.00820031 0.06500000
v -0.01342679 0.00818796 0.06500000
v -0.01348312 0.00827770 0.06500000
v -0.01345853 0.00824111 0.06500000
v -0.01353464 0.00834476 0.06500000
v -0.01353174 0.00834129 0.06500000
v -0.01365910 0.00846922 0.06500000
v -0.01359674 0.00841226 0.06500000
v -0.01361701 0.00843189 0.06500000
v -0.01359163 0.00840715 0.06500000
v -0.01372603 0.00852063 0.06500000
v -0.01371328 0.00851153 0.06500000
v -0.01388490 0.00861166 0.06500000
v -0.01387815 0.00860874 0.06500000
v -0.01382565 0.00858209 0.06500000
v -0.01380334 0.00856986 0.06500000
v -0.01381911 0.00857875 0.06500000
v -0.01379705 0.00856613 0.06500000
v -0.01395596 0.00864110 0.06500000
v -0.01393298 0.00863237 0.06500000
v -0.01404330 0.00866877 0.06500000
v -0.01399239 0.00865374 0.06500000
v -0.01421642 0.00869885 0.06500000
v -0.01412554 0.00868700 0.06500000
v -0.01411507 0.00868509 0.06500000
v -0.01420902 0.00869817 0.06500000
v -0.01424121 0.00870066 0.06500000
v -0.01421257 -0.00869856 0.06500000
v -0.01404041 -0.00866799 0.06500000
v -0.01408782 -0.00867955 0.06500000
v -0.01412936 -0.00868766 0.06500000
v -0.01412235 -0.00868635 0.06500000
v -0.01414786 -0.00869072 0.06500000
v -0.01379525 -0.00856497 0.06500000
v -0.01380137 -0.00856875 0.06500000
v -0.01385037 -0.00859502 0.06500000
v -0.01385671 -0.00859842 0.06500000
v -0.01387599 -0.00860770 0.06500000
v -0.01388252 -0.00861069 0.06500000
v -0.01396027 -0.00864271 0.06500000
v -0.01395359 -0.00864013 0.06500000
v -0.01397001 -0.00864619 0.06500000
v -0.01365757 -0.00846792 0.06500000
v -0.01369911 -0.00850103 0.06500000
v -0.01373027 -0.00852357 0.06500000
v -0.01372438 -0.00851940 0.06500000
v -0.01374971 -0.00853680 0.06500000
v -0.01353337 -0.00834320 0.06500000
v -0.01356144 -0.00837546 0.06500000
v -0.01359531 -0.00841089 0.06500000
v -0.01359028 -0.00840569 0.06500000
v -0.01360474 -0.00842018 0.06500000
v -0.01339370 -0.00812302 0.06500000
v -0.01341747 -0.00817082 0.06500000
v -0.01343270 -0.00819831 0.06500000
v -0.01343632 -0.00820464 0.06500000
v -0.01348192 -0.00827602 0.06500000
v -0.01347792 -0.00826994 0.06500000
v -0.01348321 -0.00827787 0.06500000
v -0.01331526 -0.00787359 0.06500000
v -0.01332801 -0.00793476 0.06500000
v -0.01333356 -0.00795660 0.06500000
v -0.01333550 -0.00796367 0.06500000
v -0.01336122 -0.00804462 0.06500000
v -0.01335884 -0.00803770 0.06500000
v -0.01336540 -0.00805588 0.06500000
v -0.01330000 -0.00769895 0.06500000
v -0.01330117 -0.00774469 0.06500000
v -0.01330409 -0.00778929 0.06500000
v -0.01330607 -0.00780937 0.06500000
v -0.01426598 -0.00870185 0.06500000
v -0.01430000 -0.00870259 0.06500000
v -0.02463842 -0.00871305 0.06500000
v -0.02758498 -0.00603934 0.06500000
v -0.02759530 -0.00579475 0.06500000
v -0.02754813 -0.00631203 0.06500000
v -0.02751906 -0.00644957 0.06500000
v -0.02748262 -0.00658728 0.06500000
v -0.02743865 -0.00672467 0.06500000
v -0.02738705 -0.00686121 0.06500000
v -0.02732777 -0.00699635 0.06500000
v -0.02726080 -0.00712955 0.06500000
v -0.02718621 -0.00726024 0.06500000
v -0.02710412 -0.00738787 0.06500000
v -0.02701470 -0.00751189 0.06500000
v -0.02691822 -0.00763177 0.06500000
v -0.02681496 -0.00774700 0.06500000
v -0.02757002 -0.00617514 0.06500000
v -0.02478139 -0.00870423 0.06500000
v -0.02492589 -0.00868905 0.06500000
v -0.02521760 -0.00863865 0.06500000
v -0.02507145 -0.00866726 0.06500000
v -0.02550958 -0.00856026 0.06500000
v -0.02536382 -0.00860302 0.06500000
v -0.02670528 -0.00785710 0.06500000
v -0.02565431 -0.00851026 0.06500000
v -0.02579745 -0.00845299 0.06500000
v -0.02607652 -0.00831678 0.06500000
v -0.02593838 -0.00838848 0.06500000
v -0.02634208 -0.00815241 0.06500000
v -0.02621128 -0.00823803 0.06500000
v -0.02658960 -0.00796162 0.06500000
v -0.02646836 -0.00806018 0.06500000
v -0.02758498 0.00603934 0.06500000
v -0.02759530 0.00579556 0.06500000
v -0.02670532 0.00785706 0.06500000
v -0.02666292 0.00789565 0.06500000
v -0.02658965 0.00796158 0.06500000
v -0.02654570 0.00799760 0.06500000
v -0.02646842 0.00806014 0.06500000
v -0.02642318 0.00809347 0.06500000
v -0.02634214 0.00815237 0.06500000
v -0.02629588 0.00818294 0.06500000
v -0.02621134 0.00823799 0.06500000
v -0.02616433 0.00826576 0.06500000
v -0.02463853 0.00871304 0.06500000
v -0.02473975 0.00870710 0.06500000
v -0.02478150 0.00870422 0.06500000
v -0.02488292 0.00869387 0.06500000
v -0.02492599 0.00868904 0.06500000
v -0.02502729 0.00867418 0.06500000
v -0.02507155 0.00866725 0.06500000
v -0.02517238 0.00864780 0.06500000
v -0.02521770 0.00863862 0.06500000
v -0.02531771 0.00861456 0.06500000
v -0.02536391 0.00860300 0.06500000
v -0.02546277 0.00857429 0.06500000
v -0.02550967 0.00856023 0.06500000
v -0.02560700 0.00852691 0.06500000
v -0.02565440 0.00851023 0.06500000
v -0.02574985 0.00847234 0.06500000
v -0.02579753 0.00845296 0.06500000
v -0.02589074 0.00841058 0.06500000
v -0.02593845 0.00838844 0.06500000
v -0.02607659 0.00831674 0.06500000
v -0.02602910 0.00834169 0.06500000
v -0.02757918 0.00609214 0.06500000
v -0.02757002 0.00617514 0.06500000
v -0.02751906 0.00644956 0.06500000
v -0.02753684 0.00636565 0.06500000
v -0.02756153 0.00622845 0.06500000
v -0.02754813 0.00631202 0.06500000
v -0.02743866 0.00672465 0.06500000
v -0.02746556 0.00664081 0.06500000
v -0.02750491 0.00650326 0.06500000
v -0.02748262 0.00658727 0.06500000
v -0.02732778 0.00699633 0.06500000
v -0.02736415 0.00691366 0.06500000
v -0.02741866 0.00677779 0.06500000
v -0.02738706 0.00686119 0.06500000
v -0.02718623 0.00726021 0.06500000
v -0.02723220 0.00717991 0.06500000
v -0.02730198 0.00704789 0.06500000
v -0.02726082 0.00712952 0.06500000
v -0.02701473 0.00751186 0.06500000
v -0.02707023 0.00743514 0.06500000
v -0.02715490 0.00730917 0.06500000
v -0.02710414 0.00738784 0.06500000
v -0.02677439 0.00778799 0.06500000
v -0.02681499 0.00774696 0.06500000
v -0.02687968 0.00767505 0.06500000
v -0.02697840 0.00755727 0.06500000
v -0.02691825 0.00763173 0.06500000
v -0.01718805 -0.00874232 0.06500000
v -0.02260564 0.00872615 0.06500000
v -0.02260564 -0.00872615 0.06500000
v -0.02264834 -0.00872599 0.06500000
v -0.02165456 -0.00872921 0.06500000
v -0.02759530 0.00344114 0.06500000
v -0.02759530 0.00309180 0.06500000
v -0.01259519 0.00721269 0.08500000
v -0.01195806 0.00697882 0.08500000
v -0.01195999 0.00698041 0.08500000
v -0.01160000 0.00621100 0.08500000
v -0.01160198 0.00627185 0.08500000
v -0.01160214 0.00627465 0.08500000
v -0.01160377 0.00629600 0.08500000
v -0.01163433 0.00646980 0.08500000
v -0.01173483 0.00671248 0.08500000
v -0.01178144 0.00678571 0.08500000
v -0.01178289 0.00678774 0.08500000
v -0.01180664 0.00682020 0.08500000
v -0.01183574 0.00685649 0.08500000
v -0.01189289 0.00691895 0.08500000
v -0.01189428 0.00692034 0.08500000
v -0.01202659 0.00703151 0.08500000
v -0.01199124 0.00700554 0.08500000
v -0.01215771 0.00710948 0.08500000
v -0.01210368 0.00708054 0.08500000
v -0.01204655 0.00704513 0.08500000
v -0.01210147 0.00707936 0.08500000
v -0.01204443 0.00704381 0.08500000
v -0.01225761 0.00715229 0.08500000
v -0.01218027 0.00712026 0.08500000
v -0.01240491 0.00719373 0.08500000
v -0.01234457 0.00717963 0.08500000
v -0.01228096 0.00716047 0.08500000
v -0.01234213 0.00717906 0.08500000
v -0.01227856 0.00715974 0.08500000
v -0.01253210 0.00721062 0.08500000
v -0.01251153 0.00720905 0.08500000
v -0.01242867 0.00719814 0.08500000
v -0.01166134 0.00655513 0.08500000
v -0.01166047 0.00655279 0.08500000
v -0.01173397 0.00671100 0.08500000
v -0.01169469 0.00663543 0.08500000
v -0.01167612 0.00659321 0.08500000
v -0.01160855 0.00634004 0.08500000
v -0.01161546 0.00638482 0.08500000
v -0.01163407 0.00646885 0.08500000
v -0.01251152 -0.00720905 0.08500000
v -0.01253210 -0.00721062 0.08500000
v -0.01242866 -0.00719814 0.08500000
v -0.01242618 -0.00719773 0.08500000
v -0.01240491 -0.00719373 0.08500000
v -0.01234212 -0.00717906 0.08500000
v -0.01227856 -0.00715974 0.08500000
v -0.01225994 -0.00715318 0.08500000
v -0.01225760 -0.00715229 0.08500000
v -0.01218026 -0.00712026 0.08500000
v -0.01217798 -0.00711922 0.08500000
v -0.01215771 -0.00710948 0.08500000
v -0.01210146 -0.00707935 0.08500000
v -0.01204443 -0.00704381 0.08500000
v -0.01202861 -0.00703297 0.08500000
v -0.01202658 -0.00703151 0.08500000
v -0.01195999 -0.00698041 0.08500000
v -0.01195805 -0.00697882 0.08500000
v -0.01194065 -0.00696386 0.08500000
v -0.01189427 -0.00692033 0.08500000
v -0.01184816 -0.00687099 0.08500000
v -0.01183574 -0.00685648 0.08500000
v -0.01183415 -0.00685454 0.08500000
v -0.01178289 -0.00678773 0.08500000
v -0.01178143 -0.00678570 0.08500000
v -0.01176853 -0.00676680 0.08500000
v -0.01173482 -0.00671248 0.08500000
v -0.01170313 -0.00665306 0.08500000
v -0.01169469 -0.00663542 0.08500000
v -0.01169366 -0.00663315 0.08500000
v -0.01166134 -0.00655512 0.08500000
v -0.01166046 -0.00655278 0.08500000
v -0.01165307 -0.00653172 0.08500000
v -0.01163433 -0.00646979 0.08500000
v -0.01161921 -0.00640486 0.08500000
v -0.01160214 -0.00627465 0.08500000
v -0.01160401 -0.00629848 0.08500000
v -0.01160855 -0.00634004 0.08500000
v -0.01161546 -0.00638481 0.08500000
v -0.01160206 -0.00627217 0.08500000
v -0.01160000 -0.00620900 0.08500000
v -0.01259513 -0.00721268 0.08500000
v -0.01723986 -0.00721441 0.08500000
v -0.01722022 -0.00721478 0.08500000
v -0.02031589 -0.00426371 0.08500000
v -0.02030923 -0.00442618 0.08500000
v -0.02030557 -0.00450985 0.08500000
v -0.02026870 -0.00478262 0.08500000
v -0.02025894 -0.00482898 0.08500000
v -0.02023961 -0.00492020 0.08500000
v -0.02022739 -0.00496660 0.08500000
v -0.02020315 -0.00505795 0.08500000
v -0.02018839 -0.00510428 0.08500000
v -0.02015916 -0.00519537 0.08500000
v -0.02014181 -0.00524149 0.08500000
v -0.02010753 -0.00533193 0.08500000
v -0.02008755 -0.00537770 0.08500000
v -0.02004822 -0.00546709 0.08500000
v -0.02002557 -0.00551237 0.08500000
v -0.01998123 -0.00560029 0.08500000
v -0.01995589 -0.00564494 0.08500000
v -0.01990662 -0.00573097 0.08500000
v -0.01987857 -0.00577483 0.08500000
v -0.01982452 -0.00585858 0.08500000
v -0.01979377 -0.00590149 0.08500000
v -0.01973511 -0.00598256 0.08500000
v -0.01970168 -0.00602437 0.08500000
v -0.01963865 -0.00610238 0.08500000
v -0.01960256 -0.00614293 0.08500000
v -0.01953543 -0.00621753 0.08500000
v -0.02028324 -0.00469189 0.08500000
v -0.02030053 -0.00455578 0.08500000
v -0.02029060 -0.00464569 0.08500000
v -0.01765099 -0.00715880 0.08500000
v -0.01794158 -0.00710823 0.08500000
v -0.01788123 -0.00712050 0.08500000
v -0.01773499 -0.00714650 0.08500000
v -0.01779598 -0.00713691 0.08500000
v -0.01823257 -0.00702984 0.08500000
v -0.01817411 -0.00704741 0.08500000
v -0.01802778 -0.00708752 0.08500000
v -0.01808729 -0.00707259 0.08500000
v -0.01949674 -0.00625667 0.08500000
v -0.01942583 -0.00632754 0.08500000
v -0.01831965 -0.00700006 0.08500000
v -0.01837686 -0.00697988 0.08500000
v -0.01846382 -0.00694540 0.08500000
v -0.01851959 -0.00692269 0.08500000
v -0.01879799 -0.00678666 0.08500000
v -0.01874564 -0.00681420 0.08500000
v -0.01860601 -0.00688343 0.08500000
v -0.01866016 -0.00685826 0.08500000
v -0.01906306 -0.00662253 0.08500000
v -0.01901478 -0.00665447 0.08500000
v -0.01888209 -0.00673783 0.08500000
v -0.01893248 -0.00670803 0.08500000
v -0.01938460 -0.00636510 0.08500000
v -0.01931025 -0.00643196 0.08500000
v -0.01926656 -0.00646780 0.08500000
v -0.01914312 -0.00656437 0.08500000
v -0.01918916 -0.00653041 0.08500000
v -0.01722282 0.00719695 0.08500000
v -0.01728923 0.00719581 0.08500000
v -0.02030557 0.00450985 0.08500000
v -0.02031069 0.00440464 0.08500000
v -0.02031589 0.00427972 0.08500000
v -0.01808739 0.00707256 0.08500000
v -0.01823266 0.00702981 0.08500000
v -0.01837695 0.00697985 0.08500000
v -0.01851967 0.00692265 0.08500000
v -0.01866024 0.00685822 0.08500000
v -0.01879806 0.00678663 0.08500000
v -0.01893255 0.00670799 0.08500000
v -0.01906312 0.00662249 0.08500000
v -0.01918921 0.00653037 0.08500000
v -0.01931030 0.00643192 0.08500000
v -0.01942587 0.00632750 0.08500000
v -0.01779608 0.00713689 0.08500000
v -0.01765109 0.00715879 0.08500000
v -0.01750719 0.00717411 0.08500000
v -0.01794168 0.00710821 0.08500000
v -0.02029060 0.00464569 0.08500000
v -0.02023961 0.00492019 0.08500000
v -0.02026870 0.00478261 0.08500000
v -0.02015916 0.00519535 0.08500000
v -0.02020315 0.00505793 0.08500000
v -0.02004823 0.00546706 0.08500000
v -0.02010754 0.00533191 0.08500000
v -0.01990664 0.00573094 0.08500000
v -0.01998124 0.00560026 0.08500000
v -0.01973514 0.00598252 0.08500000
v -0.01982454 0.00585855 0.08500000
v -0.01953547 0.00621749 0.08500000
v -0.01963868 0.00610234 0.08500000
v -0.01285896 -0.00721455 0.08500000
v -0.01280556 -0.00721429 0.08500000
v -0.01280556 0.00721429 0.08500000
v -0.01286399 -0.00721457 0.08500000
v -0.01286888 -0.00721459 0.08500000
v -0.01286911 -0.00721459 0.08500000
v -0.01287382 -0.00721461 0.08500000
v -0.01287429 -0.00721461 0.08500000
v -0.01287877 -0.00721462 0.08500000
v -0.01287947 -0.00721462 0.08500000
v -0.01288367 -0.00721463 0.08500000
v -0.01288461 -0.00721463 0.08500000
v -0.02031589 0.00110517 0.08500000
v -0.02031589 -0.00110540 0.08500000
f 181 396 179
f 396 181 217
f 7 9 10
f 115 306 305
f 486 114 115
f 115 114 306
f 80 291 81
f 81 77 80
f 82 77 81
f 478 77 78
f 78 77 82
f 7 10 8
f 55 54 53
f 9 218 222
f 222 10 9
f 401 306 211
f 306 114 211
f 589 114 486
f 87 88 74
f 398 113 304
f 112 320 304
f 304 113 112
f 440 439 54
f 479 77 478
f 480 77 479
f 299 298 84
f 301 81 291
f 82 81 301
f 301 300 82
f 83 78 82
f 83 299 84
f 84 79 83
f 83 79 78
f 300 299 83
f 82 300 83
f 478 78 477
f 139 329 140
f 50 51 49
f 3 54 55
f 3 440 54
f 441 440 3
f 3 2 441
f 42 43 234
f 252 256 28
f 28 256 27
f 27 21 28
f 27 257 26
f 23 424 16
f 25 217 24
f 52 10 221
f 221 53 52
f 52 8 10
f 54 8 52
f 52 53 54
f 221 10 220
f 10 222 220
f 335 336 148
f 116 115 305
f 118 308 309
f 120 310 311
f 312 313 122
f 316 125 315
f 314 315 124
f 124 315 125
f 126 316 317
f 126 125 316
f 293 89 88
f 284 85 285
f 108 264 262
f 395 113 399
f 395 57 180
f 321 320 130
f 320 112 130
f 406 405 7
f 408 407 8
f 54 439 408
f 408 8 54
f 481 79 482
f 140 329 330
f 47 230 46
f 46 45 47
f 1 51 50
f 50 2 1
f 228 49 51
f 14 41 40
f 20 27 26
f 21 27 20
f 26 25 20
f 255 27 256
f 257 27 255
f 145 396 347
f 158 360 361
f 415 414 14
f 50 435 409
f 441 2 409
f 409 2 50
f 438 434 48
f 50 49 48
f 48 437 438
f 45 437 48
f 49 47 48
f 48 47 45
f 12 411 410
f 12 43 42
f 12 44 43
f 16 424 425
f 31 23 16
f 217 25 258
f 376 370 166
f 166 567 169
f 377 376 169
f 169 376 166
f 335 148 147
f 369 147 165
f 114 589 216
f 401 211 212
f 212 211 114
f 114 214 212
f 400 214 336
f 401 212 400
f 400 212 214
f 336 214 149
f 547 148 149
f 149 148 336
f 149 588 547
f 319 307 129
f 319 116 305
f 129 116 319
f 117 307 308
f 117 308 118
f 129 307 117
f 121 120 311
f 311 312 121
f 121 312 122
f 119 309 310
f 310 120 119
f 118 309 119
f 494 493 119
f 122 313 123
f 123 313 314
f 314 124 123
f 392 394 177
f 386 174 393
f 177 394 393
f 393 174 177
f 75 476 475
f 475 74 75
f 75 74 88
f 88 89 75
f 294 293 88
f 292 291 80
f 80 89 292
f 89 293 292
f 97 65 96
f 274 96 275
f 97 96 274
f 297 295 87
f 474 74 475
f 474 473 74
f 469 72 470
f 87 74 73
f 73 72 85
f 103 266 104
f 62 102 103
f 61 102 62
f 100 110 273
f 110 260 273
f 100 272 101
f 101 61 100
f 101 102 61
f 261 108 263
f 108 262 263
f 113 398 397
f 397 399 113
f 395 303 111
f 111 57 395
f 303 302 111
f 58 57 108
f 531 530 139
f 536 537 142
f 540 539 143
f 538 525 136
f 326 143 136
f 326 333 143
f 55 223 227
f 226 1 227
f 55 53 224
f 224 223 55
f 56 3 55
f 55 227 56
f 56 227 1
f 2 3 56
f 56 1 2
f 49 228 231
f 230 47 231
f 231 47 49
f 229 228 51
f 51 1 229
f 236 40 41
f 235 234 43
f 43 44 235
f 235 44 232
f 46 230 233
f 233 44 46
f 232 44 233
f 4 25 24
f 4 20 25
f 24 217 4
f 4 217 181
f 433 426 21
f 21 20 433
f 243 37 238
f 38 39 240
f 240 238 38
f 38 238 37
f 35 242 249
f 396 145 210
f 162 352 353
f 353 354 162
f 179 396 185
f 396 182 185
f 177 174 575
f 362 158 361
f 436 437 45
f 414 413 13
f 14 414 13
f 13 12 42
f 13 41 14
f 42 41 13
f 44 12 11
f 11 45 46
f 46 44 11
f 11 436 45
f 410 436 11
f 11 12 410
f 16 425 17
f 30 22 23
f 23 31 30
f 250 31 251
f 253 30 250
f 250 30 31
f 251 31 32
f 32 244 251
f 32 31 16
f 245 244 32
f 33 245 32
f 16 17 32
f 32 17 33
f 26 257 254
f 254 25 26
f 254 258 25
f 246 245 33
f 33 248 246
f 377 169 375
f 375 168 374
f 375 169 168
f 374 168 380
f 381 380 171
f 171 380 168
f 165 565 167
f 167 373 165
f 167 371 373
f 370 371 167
f 166 370 167
f 564 567 166
f 166 167 564
f 564 167 565
f 165 373 372
f 372 369 165
f 335 147 368
f 147 369 368
f 337 390 150
f 215 214 114
f 114 216 215
f 213 216 589
f 589 588 213
f 213 149 214
f 588 149 213
f 116 488 487
f 513 488 116
f 511 128 524
f 127 126 317
f 476 75 76
f 480 476 76
f 76 77 480
f 80 77 76
f 76 89 80
f 76 75 89
f 87 295 296
f 296 88 87
f 296 294 88
f 279 290 91
f 285 85 94
f 85 72 94
f 287 94 93
f 91 290 92
f 92 93 70
f 97 274 283
f 87 73 86
f 86 73 85
f 86 297 87
f 284 297 86
f 85 284 86
f 265 104 266
f 278 104 265
f 95 104 278
f 278 276 95
f 64 104 95
f 275 96 95
f 95 65 64
f 95 96 65
f 271 272 100
f 100 273 271
f 103 102 268
f 102 269 268
f 270 101 272
f 270 269 102
f 102 101 270
f 109 58 108
f 109 108 261
f 261 260 109
f 109 260 110
f 59 109 110
f 58 109 59
f 577 57 483
f 577 180 57
f 323 133 322
f 321 130 131
f 131 323 321
f 133 323 131
f 132 325 322
f 322 133 132
f 534 141 535
f 143 333 144
f 142 141 331
f 318 127 317
f 128 127 318
f 136 128 318
f 318 326 136
f 219 53 221
f 219 224 53
f 225 1 226
f 225 229 1
f 39 40 241
f 40 236 241
f 237 236 41
f 237 41 42
f 42 234 237
f 432 20 431
f 432 433 20
f 403 416 5
f 39 38 5
f 5 38 37
f 36 35 19
f 36 37 243
f 243 242 36
f 242 35 36
f 145 543 578
f 179 185 578
f 578 182 145
f 578 185 182
f 578 181 179
f 209 145 208
f 209 210 145
f 209 208 396
f 396 210 209
f 357 358 160
f 396 189 188
f 188 189 145
f 145 189 192
f 192 189 396
f 177 575 574
f 572 575 174
f 572 175 573
f 174 175 572
f 157 362 363
f 158 362 157
f 157 550 158
f 412 13 413
f 419 17 425
f 19 35 18
f 424 23 430
f 21 426 427
f 29 253 252
f 29 30 253
f 29 252 28
f 22 30 29
f 21 22 29
f 28 21 29
f 34 247 248
f 34 248 33
f 34 18 35
f 249 247 34
f 34 35 249
f 33 17 34
f 17 18 34
f 381 171 379
f 378 379 170
f 170 379 171
f 383 385 173
f 573 175 172
f 382 383 172
f 172 383 173
f 389 175 387
f 387 174 386
f 387 175 174
f 546 545 147
f 563 565 165
f 165 147 563
f 147 545 563
f 342 341 152
f 152 341 340
f 152 556 555
f 557 150 558
f 337 150 338
f 118 492 491
f 512 514 129
f 120 496 495
f 508 507 126
f 506 505 125
f 504 503 124
f 501 123 502
f 509 127 510
f 67 461 66
f 66 65 97
f 462 461 67
f 69 92 70
f 91 92 69
f 280 99 282
f 70 93 71
f 93 94 71
f 71 94 72
f 71 468 70
f 469 468 71
f 72 469 71
f 285 94 286
f 94 287 286
f 289 287 93
f 93 92 289
f 282 99 281
f 467 466 70
f 70 468 467
f 73 472 471
f 275 95 277
f 277 95 276
f 62 454 453
f 64 456 455
f 63 454 62
f 63 104 64
f 63 455 454
f 64 455 63
f 103 104 63
f 63 62 103
f 267 266 103
f 103 268 267
f 57 111 105
f 105 106 57
f 105 111 302
f 105 302 259
f 259 106 105
f 259 264 107
f 107 106 259
f 107 264 108
f 108 57 107
f 57 106 107
f 60 110 100
f 60 59 110
f 100 61 60
f 395 184 186
f 395 180 178
f 178 184 395
f 324 325 135
f 325 132 135
f 542 144 541
f 142 331 332
f 332 139 142
f 329 139 332
f 334 144 333
f 141 144 334
f 334 331 141
f 240 39 239
f 39 241 239
f 423 417 19
f 416 415 15
f 15 5 416
f 15 415 14
f 39 5 15
f 14 40 15
f 15 40 39
f 431 20 402
f 20 4 402
f 201 202 145
f 145 200 201
f 396 202 201
f 201 200 396
f 396 200 199
f 199 200 145
f 396 205 204
f 204 205 145
f 208 145 207
f 396 208 207
f 559 162 161
f 161 354 355
f 161 162 354
f 560 162 559
f 164 348 349
f 349 350 164
f 145 182 183
f 183 188 145
f 183 182 396
f 396 188 183
f 396 196 193
f 193 192 396
f 196 145 193
f 145 192 193
f 177 574 176
f 176 574 558
f 558 150 176
f 391 392 176
f 176 392 177
f 176 390 391
f 176 150 390
f 156 365 367
f 364 157 363
f 364 365 156
f 156 157 364
f 155 367 366
f 156 367 155
f 155 552 156
f 343 342 153
f 153 342 152
f 152 555 153
f 153 555 554
f 554 154 153
f 551 157 156
f 156 552 551
f 550 157 551
f 17 419 420
f 22 429 428
f 378 170 384
f 173 385 384
f 384 170 173
f 568 170 171
f 382 172 388
f 388 175 389
f 388 172 175
f 151 557 556
f 151 556 152
f 150 557 151
f 151 340 339
f 152 340 151
f 339 338 151
f 151 338 150
f 490 489 117
f 500 499 122
f 65 458 457
f 459 66 460
f 460 66 461
f 463 462 68
f 68 462 67
f 67 99 68
f 99 280 90
f 90 68 99
f 90 280 279
f 90 279 91
f 91 69 90
f 69 68 90
f 288 92 290
f 288 289 92
f 283 281 98
f 98 281 99
f 97 283 98
f 98 66 97
f 98 99 67
f 67 66 98
f 62 453 452
f 59 60 448
f 483 57 443
f 57 442 443
f 444 442 57
f 113 186 580
f 198 113 395
f 484 131 130
f 484 130 112
f 417 418 6
f 19 417 6
f 6 5 37
f 37 36 6
f 6 36 19
f 421 18 422
f 197 145 196
f 197 199 145
f 197 196 396
f 396 199 197
f 145 202 203
f 203 204 145
f 203 202 396
f 396 204 203
f 145 205 206
f 206 207 145
f 206 205 396
f 396 207 206
f 356 161 355
f 357 160 356
f 160 161 356
f 559 161 562
f 562 161 160
f 160 548 562
f 158 550 549
f 544 164 561
f 163 560 561
f 561 164 163
f 162 560 163
f 351 352 163
f 352 162 163
f 163 350 351
f 163 164 350
f 154 345 344
f 343 153 344
f 344 153 154
f 346 155 366
f 346 345 154
f 154 155 346
f 552 155 553
f 553 154 554
f 553 155 154
f 573 172 570
f 570 172 173
f 569 171 168
f 569 568 171
f 498 497 121
f 69 465 464
f 450 61 451
f 59 448 447
f 58 59 447
f 447 446 58
f 58 446 445
f 581 582 113
f 113 580 581
f 586 587 113
f 113 582 583
f 583 584 113
f 328 327 137
f 131 484 515
f 113 587 485
f 404 6 418
f 158 549 159
f 159 549 548
f 159 548 160
f 359 360 159
f 360 158 159
f 159 358 359
f 159 160 358
f 164 544 146
f 146 145 347
f 347 348 146
f 348 164 146
f 571 570 173
f 173 170 571
f 170 568 571
f 566 569 168
f 168 169 566
f 566 169 567
f 449 448 60
f 113 584 585
f 585 586 113
f 194 191 113
f 395 191 194
f 190 191 395
f 113 191 190
f 533 140 532
f 328 137 138
f 138 330 328
f 140 330 138
f 132 517 516
f 324 135 134
f 134 327 324
f 134 137 327
f 195 198 395
f 395 194 195
f 113 198 195
f 195 194 113
f 187 186 113
f 113 190 187
f 395 186 187
f 187 190 395
f 529 138 528
f 522 523 135
f 518 519 133
f 521 520 134
f 527 137 526
f 218 9 84
f 84 298 218
f 84 9 79
f 79 9 7
f 7 405 79
f 405 482 79
f 7 8 406
f 8 407 406
f 78 79 481
f 481 477 78
f 48 434 435
f 48 435 50
f 119 493 492
f 119 492 118
f 531 140 533
f 531 139 140
f 142 139 536
f 139 530 536
f 136 143 538
f 143 539 538
f 213 215 216
f 214 215 213
f 486 115 487
f 115 116 487
f 513 116 129
f 129 514 513
f 136 525 524
f 524 128 136
f 74 473 472
f 472 73 74
f 142 537 535
f 535 141 142
f 542 540 144
f 144 540 143
f 411 12 412
f 12 13 412
f 427 22 21
f 427 429 22
f 546 148 547
f 546 147 148
f 129 117 512
f 117 489 512
f 494 119 495
f 495 119 120
f 508 127 509
f 126 127 508
f 125 126 506
f 126 507 506
f 504 124 125
f 125 505 504
f 502 123 124
f 124 503 502
f 510 128 511
f 510 127 128
f 459 458 66
f 66 458 65
f 470 72 471
f 72 73 471
f 541 141 534
f 541 144 141
f 402 4 181
f 181 578 402
f 422 18 420
f 420 18 17
f 23 22 428
f 428 430 23
f 490 117 118
f 118 491 490
f 122 123 500
f 500 123 501
f 120 121 497
f 497 496 120
f 457 456 64
f 64 65 457
f 70 466 465
f 465 69 70
f 451 61 452
f 61 62 452
f 580 184 579
f 580 186 184
f 579 184 576
f 184 178 576
f 180 577 576
f 576 178 180
f 19 18 421
f 421 423 19
f 324 327 346
f 249 242 346
f 346 371 370
f 382 388 346
f 346 319 305
f 346 306 401
f 363 362 346
f 346 348 347
f 346 325 324
f 359 358 346
f 346 320 321
f 346 302 303
f 221 220 346
f 245 246 346
f 346 301 291
f 346 303 395
f 311 310 346
f 317 316 346
f 346 288 290
f 347 396 346
f 217 258 346
f 351 350 346
f 305 306 346
f 346 280 282
f 291 292 346
f 346 218 298
f 346 312 311
f 304 320 346
f 298 299 346
f 346 352 351
f 346 397 398
f 234 235 346
f 396 217 346
f 346 238 240
f 346 309 308
f 346 237 234
f 346 315 314
f 391 390 346
f 346 260 261
f 272 271 346
f 346 270 272
f 349 348 346
f 346 219 221
f 346 233 230
f 346 222 218
f 370 376 346
f 346 336 335
f 346 375 374
f 346 360 359
f 355 354 346
f 401 400 346
f 314 313 346
f 335 368 346
f 346 392 391
f 346 387 386
f 346 284 285
f 346 265 266
f 346 264 259
f 259 302 346
f 346 398 304
f 346 299 300
f 300 301 346
f 395 399 346
f 346 330 329
f 226 227 346
f 346 318 317
f 256 252 346
f 346 255 256
f 251 244 346
f 346 220 222
f 346 254 257
f 374 380 346
f 346 372 373
f 361 360 346
f 346 358 357
f 346 364 363
f 346 354 353
f 353 352 346
f 346 350 349
f 308 307 346
f 310 309 346
f 313 312 346
f 316 315 346
f 339 340 346
f 378 384 346
f 386 393 346
f 282 281 346
f 346 296 295
f 295 297 346
f 346 262 264
f 261 263 346
f 322 325 346
f 328 330 346
f 346 327 328
f 321 323 346
f 266 267 346
f 230 231 346
f 346 225 226
f 252 253 346
f 257 255 346
f 346 242 243
f 346 250 251
f 346 244 245
f 346 247 249
f 346 376 377
f 366 367 346
f 346 379 378
f 373 371 346
f 346 400 336
f 307 319 346
f 346 390 337
f 394 392 346
f 346 383 382
f 346 393 394
f 293 294 346
f 346 292 293
f 346 274 275
f 346 338 339
f 346 297 284
f 346 273 260
f 275 277 346
f 346 263 262
f 399 397 346
f 333 326 346
f 346 227 223
f 223 224 346
f 346 231 228
f 228 229 346
f 346 334 333
f 346 235 232
f 232 233 346
f 243 238 346
f 346 362 361
f 253 250 346
f 258 254 346
f 248 247 346
f 346 246 248
f 377 375 346
f 346 380 381
f 346 356 355
f 369 372 346
f 346 368 369
f 346 342 343
f 294 296 346
f 346 276 278
f 290 279 346
f 285 286 346
f 346 283 274
f 278 265 346
f 346 271 273
f 346 268 269
f 269 270 346
f 346 323 322
f 329 332 346
f 326 318 346
f 224 219 346
f 229 225 346
f 346 241 236
f 236 237 346
f 240 239 346
f 381 379 346
f 385 383 346
f 389 387 346
f 341 342 346
f 346 340 341
f 337 338 346
f 279 280 346
f 346 286 287
f 287 289 346
f 346 281 283
f 346 277 276
f 346 267 268
f 346 332 331
f 331 334 346
f 346 239 241
f 346 367 365
f 365 364 346
f 343 344 346
f 346 384 385
f 346 388 389
f 289 288 346
f 357 356 346
f 346 344 345
f 498 121 122
f 122 499 498
f 463 68 464
f 464 68 69
f 57 58 445
f 445 444 57
f 485 112 113
f 485 484 112
f 403 5 404
f 5 6 404
f 146 544 543
f 146 543 145
f 449 60 61
f 61 450 449
f 529 532 138
f 138 532 140
f 519 132 133
f 519 517 132
f 528 137 527
f 528 138 137
f 522 135 132
f 132 516 522
f 133 131 518
f 131 515 518
f 135 523 521
f 521 134 135
f 475 476 526
f 526 432 431
f 526 440 441
f 526 482 405
f 410 411 526
f 526 589 486
f 526 557 558
f 579 576 526
f 537 536 526
f 446 447 526
f 526 469 470
f 466 467 526
f 478 477 526
f 526 535 537
f 525 538 526
f 526 428 429
f 492 493 526
f 514 512 526
f 526 479 478
f 526 577 483
f 526 416 403
f 526 434 438
f 526 413 414
f 567 564 526
f 547 588 526
f 470 471 526
f 461 462 526
f 405 406 526
f 439 440 526
f 480 479 526
f 526 476 480
f 526 408 439
f 526 481 482
f 501 502 526
f 558 574 526
f 542 541 526
f 414 415 526
f 441 409 526
f 431 402 526
f 526 436 410
f 526 425 424
f 565 563 526
f 526 493 494
f 526 513 514
f 526 474 475
f 526 524 525
f 526 406 407
f 407 408 526
f 477 481 526
f 526 516 517
f 526 531 533
f 526 504 505
f 526 540 542
f 526 427 426
f 526 415 416
f 543 544 526
f 526 409 435
f 435 434 526
f 438 437 526
f 411 412 526
f 550 551 526
f 526 588 589
f 486 487 526
f 489 490 526
f 456 457 526
f 473 474 526
f 496 497 526
f 451 452 526
f 530 531 526
f 526 536 530
f 539 540 526
f 526 538 539
f 426 433 526
f 533 532 526
f 526 421 422
f 526 572 573
f 437 436 526
f 424 430 526
f 526 564 565
f 526 546 547
f 554 555 526
f 526 491 492
f 526 487 488
f 488 513 526
f 494 495 526
f 526 508 509
f 505 506 526
f 511 524 526
f 509 510 526
f 526 460 461
f 526 468 469
f 526 472 473
f 526 465 466
f 526 455 456
f 582 581 526
f 463 464 526
f 534 535 526
f 433 432 526
f 526 485 587
f 526 578 543
f 526 549 550
f 526 574 575
f 575 572 526
f 526 560 559
f 526 412 413
f 526 419 425
f 422 420 526
f 429 427 526
f 545 546 526
f 526 563 545
f 526 555 556
f 556 557 526
f 526 553 554
f 526 512 489
f 526 495 496
f 526 500 501
f 507 508 526
f 526 506 507
f 503 504 526
f 526 502 503
f 526 510 511
f 526 458 459
f 526 462 463
f 526 467 468
f 526 471 472
f 526 453 454
f 454 455 526
f 483 443 526
f 526 580 579
f 526 583 582
f 526 541 534
f 526 418 417
f 417 423 526
f 526 402 578
f 559 562 526
f 561 560 526
f 526 551 552
f 526 420 419
f 430 428 526
f 573 570 526
f 526 490 491
f 499 500 526
f 526 571 568
f 526 457 458
f 459 460 526
f 526 498 499
f 526 452 453
f 526 450 451
f 526 443 442
f 442 444 526
f 526 445 446
f 587 586 526
f 526 576 577
f 526 585 584
f 423 421 526
f 526 562 548
f 548 549 526
f 526 544 561
f 552 553 526
f 403 404 526
f 568 569 526
f 497 498 526
f 526 464 465
f 526 566 567
f 526 447 448
f 444 445 526
f 526 581 580
f 448 449 526
f 584 583 526
f 517 519 526
f 523 522 526
f 526 515 484
f 484 485 526
f 526 404 418
f 570 571 526
f 569 566 526
f 526 449 450
f 586 585 526
f 526 532 529
f 526 528 527
f 526 521 523
f 529 528 526
f 526 522 516
f 526 518 515
f 519 518 526
f 520 521 526
f 137 134 526
f 134 520 526
