# https://github.com/mikedh/trimesh
v -0.01357802 0.01155549 0.04606567
v -0.01358521 0.01156338 0.04606567
v -0.01342905 0.01134288 0.04606567
v -0.01345851 0.01139471 0.04606567
v -0.01347346 0.01141867 0.04606567
v -0.01352317 0.01148952 0.04606567
v -0.01353172 0.01150056 0.04606567
v -0.01335815 0.01117831 0.04606567
v -0.01337353 0.01122102 0.04606567
v -0.01339044 0.01126256 0.04606567
v -0.01339842 0.01128060 0.04606567
v -0.01330000 0.01082272 0.04606567
v -0.01330019 0.01084312 0.04606567
v -0.01330339 0.01090969 0.04606567
v -0.01330992 0.01097137 0.04606567
v -0.01331436 0.01100131 0.04606567
v -0.01333270 0.01109108 0.04606567
v -0.01333443 0.01109797 0.04606567
v -0.01330000 -0.01082272 0.04606567
v -0.01330133 -0.01087722 0.04606567
v -0.01330423 -0.01091994 0.04606567
v -0.01331506 -0.01100564 0.04606567
v -0.01331609 -0.01101174 0.04606567
v -0.01333552 -0.01110220 0.04606567
v -0.01334482 -0.01113593 0.04606567
v -0.01336233 -0.01119047 0.04606567
v -0.01338966 -0.01126074 0.04606567
v -0.01339620 -0.01127568 0.04606567
v -0.01343662 -0.01135684 0.04606567
v -0.01344869 -0.01137815 0.04606567
v -0.01348323 -0.01143360 0.04606567
v -0.01352082 -0.01148645 0.04606567
v -0.01353553 -0.01150538 0.04606567
v -0.01358341 -0.01156142 0.04606567
v -0.03397354 -0.01175637 0.04475623
v -0.03410845 -0.01165107 0.04473723
v -0.03414584 -0.01161978 0.04473112
v -0.03418344 -0.01158732 0.04472459
v -0.03424897 -0.01152824 0.04471220
v -0.03432494 -0.01145547 0.04469612
v -0.03438111 -0.01139843 0.04468292
v -0.03449615 -0.01127190 0.04465192
v -0.03456859 -0.01118454 0.04462926
v -0.03461933 -0.01111924 0.04461172
v -0.03465113 -0.01107638 0.04459994
v -0.03472440 -0.01097118 0.04457017
v -0.03472899 -0.01096427 0.04456817
v -0.03478403 -0.01087787 0.04454283
v -0.03481965 -0.01081823 0.04452492
v -0.03489679 -0.01067669 0.04448116
v -0.03499558 -0.01046146 0.04441139
v -0.03504344 -0.01033627 0.04436909
v -0.03507569 -0.01023996 0.04433574
v -0.03509668 -0.01017003 0.04431108
v -0.03513639 -0.01001382 0.04425473
v -0.03517514 -0.00979925 0.04417456
v -0.03519883 -0.00950082 0.04410946
v -0.03520000 -0.00941222 0.04410625
v -0.03518247 -0.00974104 0.04415442
v -0.03519027 -0.00966085 0.04413297
v -0.03519552 -0.00958328 0.04411856
v -0.02836065 -0.00596397 0.06289723
v -0.03465107 0.01107653 0.04459984
v -0.03517514 0.00979925 0.04417456
v -0.03515481 0.00992404 0.04422154
v -0.03513639 0.01001389 0.04425469
v -0.03511598 0.01009900 0.04428557
v -0.03507581 0.01023970 0.04433550
v -0.03506747 0.01026579 0.04434460
v -0.03499588 0.01046083 0.04441106
v -0.03497876 0.01050170 0.04442462
v -0.03493102 0.01060731 0.04445903
v -0.03489733 0.01067567 0.04448082
v -0.03486593 0.01073558 0.04449957
v -0.03478421 0.01087760 0.04454271
v -0.03472900 0.01096430 0.04456810
v -0.03432593 0.01145454 0.04469585
v -0.03438612 0.01139327 0.04468159
v -0.03449655 0.01127153 0.04465166
v -0.03453747 0.01122297 0.04463918
v -0.03456862 0.01118460 0.04462911
v -0.03428579 0.01149361 0.04470462
v -0.03414705 0.01161876 0.04473091
v -0.03418344 0.01158733 0.04472459
v -0.03397446 0.01175580 0.04475593
v -0.03407529 0.01167806 0.04474226
v -0.03373095 0.00025652 0.04814245
v -0.03373095 -0.00025652 0.04814245
v -0.03520000 0.00941222 0.04410625
v -0.03519932 0.00947995 0.04410812
v -0.03519650 0.00956393 0.04411587
v -0.03518466 0.00972100 0.04414840
v -0.03519159 0.00964416 0.04412937
v -0.01587451 0.01474157 0.04000000
v -0.01582860 0.01473324 0.04000000
v -0.01599658 0.01475176 0.04000000
v -0.01600000 0.01475178 0.04000000
v -0.01598361 0.01475122 0.04000000
v -0.01574793 0.01471304 0.04000000
v -0.01575315 0.01471467 0.04000000
v -0.01581081 0.01472969 0.04000000
v -0.01576545 0.01471799 0.04000000
v -0.01581506 0.01473067 0.04000000
v -0.01542391 0.01453717 0.04000000
v -0.01546298 0.01456805 0.04000000
v -0.01547844 0.01457890 0.04000000
v -0.01551896 0.01460677 0.04000000
v -0.01557703 0.01464117 0.04000000
v -0.01558246 0.01464401 0.04000000
v -0.01562526 0.01466555 0.04000000
v -0.01563296 0.01466928 0.04000000
v -0.01520041 0.01428387 0.04000000
v -0.01523040 0.01432858 0.04000000
v -0.01524201 0.01434398 0.04000000
v -0.01527416 0.01438622 0.04000000
v -0.01531698 0.01443590 0.04000000
v -0.01532222 0.01444148 0.04000000
v -0.01535797 0.01447809 0.04000000
v -0.01540925 0.01452512 0.04000000
v -0.01537177 0.01449132 0.04000000
v -0.01541326 0.01452860 0.04000000
v -0.01507353 0.01402259 0.04000000
v -0.01507743 0.01403305 0.04000000
v -0.01509782 0.01408675 0.04000000
v -0.01512818 0.01415500 0.04000000
v -0.01515852 0.01421392 0.04000000
v -0.01519012 0.01426781 0.04000000
v -0.01516242 0.01422080 0.04000000
v -0.01519354 0.01427346 0.04000000
v -0.01504957 0.01394549 0.04000000
v -0.01505427 0.01396230 0.04000000
v -0.01500000 0.01358363 0.04000000
v -0.01500002 0.01358620 0.04000000
v -0.01500334 0.01367872 0.04000000
v -0.01500992 0.01374747 0.04000000
v -0.01501087 0.01375424 0.04000000
v -0.01502245 0.01382807 0.04000000
v -0.01501979 0.01381432 0.04000000
v -0.01503443 0.01388701 0.04000000
v -0.01570326 0.01469800 0.04000000
v -0.01564221 0.01467333 0.04000000
v -0.01568602 0.01469165 0.04000000
v -0.01588945 0.01474346 0.04000000
v -0.01594121 0.01474881 0.04000000
v -0.01593571 0.01474836 0.04000000
v -0.03335148 -0.01449293 0.04000000
v -0.03328469 -0.01452558 0.04000000
v -0.03220000 -0.01476230 0.04000000
v -0.03231405 -0.01475854 0.04000000
v -0.03237637 -0.01475639 0.04000000
v -0.03239245 -0.01475514 0.04000000
v -0.03251562 -0.01474211 0.04000000
v -0.03258928 -0.01473264 0.04000000
v -0.03271177 -0.01471048 0.04000000
v -0.03275486 -0.01470205 0.04000000
v -0.03278442 -0.01469500 0.04000000
v -0.03290580 -0.01466377 0.04000000
v -0.03294058 -0.01465411 0.04000000
v -0.03297709 -0.01464235 0.04000000
v -0.03309703 -0.01460208 0.04000000
v -0.03312292 -0.01459269 0.04000000
v -0.03375774 -0.01425242 0.04000000
v -0.03364500 -0.01432974 0.04000000
v -0.03358981 -0.01436279 0.04000000
v -0.03346750 -0.01443473 0.04000000
v -0.03347463 -0.01443085 0.04000000
v -0.03381644 -0.01421092 0.04000000
v -0.03392610 -0.01412451 0.04000000
v -0.03380482 -0.01421970 0.04000000
v -0.03398092 -0.01407873 0.04000000
v -0.03408705 -0.01398335 0.04000000
v -0.03396029 -0.01409684 0.04000000
v -0.03434893 -0.01370402 0.04000000
v -0.03424906 -0.01381945 0.04000000
v -0.03413742 -0.01393394 0.04000000
v -0.03423953 -0.01382974 0.04000000
v -0.03410855 -0.01396323 0.04000000
v -0.03439418 -0.01364976 0.04000000
v -0.03448901 -0.01352561 0.04000000
v -0.03438219 -0.01366510 0.04000000
v -0.03480757 -0.01299505 0.04000000
v -0.03472731 -0.01315044 0.04000000
v -0.03470563 -0.01318791 0.04000000
v -0.03461939 -0.01333365 0.04000000
v -0.03452507 -0.01347414 0.04000000
v -0.03461442 -0.01334151 0.04000000
v -0.03450487 -0.01350407 0.04000000
v -0.03504005 -0.01239526 0.04000000
v -0.03497972 -0.01258375 0.04000000
v -0.03497259 -0.01260273 0.04000000
v -0.03490476 -0.01278042 0.04000000
v -0.03482745 -0.01295399 0.04000000
v -0.03490053 -0.01279043 0.04000000
v -0.03481968 -0.01297105 0.04000000
v -0.03516835 -0.01178842 0.04000000
v -0.03517024 -0.01177623 0.04000000
v -0.03513899 -0.01197807 0.04000000
v -0.03509670 -0.01218062 0.04000000
v -0.03504517 -0.01237811 0.04000000
v -0.03509631 -0.01218224 0.04000000
v -0.03504347 -0.01238440 0.04000000
v -0.03520000 -0.01132996 0.04000000
v -0.03519944 -0.01136929 0.04000000
v -0.03519039 -0.01157305 0.04000000
v -0.01500000 -0.01359311 0.04000000
v -0.03520000 0.01133122 0.04000000
v -0.03515481 0.01188499 0.04000000
v -0.03518178 0.01167401 0.04000000
v -0.03518299 0.01165728 0.04000000
v -0.03519602 0.01147749 0.04000000
v -0.03506569 0.01230466 0.04000000
v -0.03511599 0.01209338 0.04000000
v -0.03511601 0.01209328 0.04000000
v -0.03484787 0.01291098 0.04000000
v -0.03493104 0.01271511 0.04000000
v -0.03500122 0.01252037 0.04000000
v -0.03493557 0.01270286 0.04000000
v -0.03500380 0.01251274 0.04000000
v -0.03441152 0.01362839 0.04000000
v -0.03453928 0.01345507 0.04000000
v -0.03465043 0.01328349 0.04000000
v -0.03474580 0.01311625 0.04000000
v -0.03466143 0.01326453 0.04000000
v -0.03475394 0.01310124 0.04000000
v -0.03400670 0.01405681 0.04000000
v -0.03414796 0.01392470 0.04000000
v -0.03426699 0.01379942 0.04000000
v -0.03416557 0.01390652 0.04000000
v -0.03428588 0.01377866 0.04000000
v -0.03383978 0.01419346 0.04000000
v -0.03373072 0.01427150 0.04000000
v -0.03385098 0.01418493 0.04000000
v -0.03366597 0.01431584 0.04000000
v -0.03355436 0.01438507 0.04000000
v -0.03369321 0.01429818 0.04000000
v -0.03299810 0.01463622 0.04000000
v -0.03301469 0.01463090 0.04000000
v -0.03318683 0.01456766 0.04000000
v -0.03336203 0.01448922 0.04000000
v -0.03348642 0.01442347 0.04000000
v -0.03337272 0.01448386 0.04000000
v -0.03353000 0.01439973 0.04000000
v -0.03288159 0.01467002 0.04000000
v -0.03283661 0.01468272 0.04000000
v -0.03261507 0.01472818 0.04000000
v -0.03265649 0.01472168 0.04000000
v -0.03280738 0.01468966 0.04000000
v -0.03269010 0.01471495 0.04000000
v -0.03230429 0.01476029 0.04000000
v -0.03249734 0.01474501 0.04000000
v -0.03247502 0.01474770 0.04000000
v -0.02399855 -0.01479230 0.04000000
v -0.01600000 -0.01479230 0.04000000
v -0.01500584 -0.01370919 0.04000000
v -0.01500133 -0.01364372 0.04000000
v -0.01511315 -0.01412204 0.04000000
v -0.01509070 -0.01406900 0.04000000
v -0.01508498 -0.01405314 0.04000000
v -0.01506524 -0.01399800 0.04000000
v -0.01504483 -0.01392888 0.04000000
v -0.01504350 -0.01392360 0.04000000
v -0.01502939 -0.01386392 0.04000000
v -0.01501531 -0.01378683 0.04000000
v -0.01502625 -0.01384800 0.04000000
v -0.01501507 -0.01378529 0.04000000
v -0.01525338 -0.01435929 0.04000000
v -0.01522191 -0.01431651 0.04000000
v -0.01518201 -0.01425468 0.04000000
v -0.01514871 -0.01419571 0.04000000
v -0.01512068 -0.01413896 0.04000000
v -0.01514570 -0.01418978 0.04000000
v -0.01511748 -0.01413219 0.04000000
v -0.01549077 -0.01458760 0.04000000
v -0.01545145 -0.01455937 0.04000000
v -0.01539858 -0.01451594 0.04000000
v -0.01534802 -0.01446836 0.04000000
v -0.01530474 -0.01442230 0.04000000
v -0.01526525 -0.01437503 0.04000000
v -0.01529860 -0.01441506 0.04000000
v -0.01526145 -0.01437026 0.04000000
v -0.01550643 -0.01459858 0.04000000
v -0.01554691 -0.01462376 0.04000000
v -0.01550232 -0.01459587 0.04000000
v -0.01572983 -0.01470738 0.04000000
v -0.01566958 -0.01468520 0.04000000
v -0.01561031 -0.01465845 0.04000000
v -0.01556334 -0.01463348 0.04000000
v -0.01560483 -0.01465558 0.04000000
v -0.01555672 -0.01462977 0.04000000
v -0.01430000 0.00870280 0.06500000
v -0.01330000 0.00769026 0.06500000
v -0.01330453 0.00779282 0.06500000
v -0.01330053 0.00772528 0.06500000
v -0.01330376 0.00778582 0.06500000
v -0.01330016 0.00771606 0.06500000
v -0.01331467 0.00786986 0.06500000
v -0.01330992 0.00783994 0.06500000
v -0.01333636 0.00796632 0.06500000
v -0.01333431 0.00795952 0.06500000
v -0.01332034 0.00790028 0.06500000
v -0.01335970 0.00804035 0.06500000
v -0.01335218 0.00801885 0.06500000
v -0.01339472 0.00812521 0.06500000
v -0.01337353 0.00807661 0.06500000
v -0.01343378 0.00820031 0.06500000
v -0.01342679 0.00818796 0.06500000
v -0.01348312 0.00827770 0.06500000
v -0.01345853 0.00824111 0.06500000
v -0.01353464 0.00834476 0.06500000
v -0.01353174 0.00834129 0.06500000
v -0.01365910 0.00846922 0.06500000
v -0.01359674 0.00841226 0.06500000
v -0.01361701 0.00843189 0.06500000
v -0.01359163 0.00840715 0.06500000
v -0.01372603 0.00852063 0.06500000
v -0.01371328 0.00851153 0.06500000
v -0.01388490 0.00861166 0.06500000
v -0.01387815 0.00860874 0.06500000
v -0.01382565 0.00858209 0.06500000
v -0.01380334 0.00856986 0.06500000
v -0.01381911 0.00857875 0.06500000
v -0.01379705 0.00856613 0.06500000
v -0.01395596 0.00864110 0.06500000
v -0.01393298 0.00863237 0.06500000
v -0.01404330 0.00866877 0.06500000
v -0.01399239 0.00865374 0.06500000
v -0.01421642 0.00869885 0.06500000
v -0.01412554 0.00868700 0.06500000
v -0.01411507 0.00868509 0.06500000
v -0.01420902 0.00869817 0.06500000
v -0.01424121 0.00870066 0.06500000
v -0.01421257 -0.00869856 0.06500000
v -0.01404041 -0.00866799 0.06500000
v -0.01408782 -0.00867955 0.06500000
v -0.01412936 -0.00868766 0.06500000
v -0.01412235 -0.00868635 0.06500000
v -0.01414786 -0.00869072 0.06500000
v -0.01379525 -0.00856497 0.06500000
v -0.01380137 -0.00856875 0.06500000
v -0.01385037 -0.00859502 0.06500000
v -0.01385671 -0.00859842 0.06500000
v -0.01387599 -0.00860770 0.06500000
v -0.01388252 -0.00861069 0.06500000
v -0.01396027 -0.00864271 0.06500000
v -0.01395359 -0.00864013 0.06500000
v -0.01397001 -0.00864619 0.06500000
v -0.01365757 -0.00846792 0.06500000
v -0.01369911 -0.00850103 0.06500000
v -0.01373027 -0.00852357 0.06500000
v -0.01372438 -0.00851940 0.06500000
v -0.01374971 -0.00853680 0.06500000
v -0.01353337 -0.00834320 0.06500000
v -0.01356144 -0.00837546 0.06500000
v -0.01359531 -0.00841089 0.06500000
v -0.01359028 -0.00840569 0.06500000
v -0.01360474 -0.00842018 0.06500000
v -0.01339370 -0.00812302 0.06500000
v -0.01341747 -0.00817082 0.06500000
v -0.01343270 -0.00819831 0.06500000
v -0.01343632 -0.00820464 0.06500000
v -0.01348192 -0.00827602 0.06500000
v -0.01347792 -0.00826994 0.06500000
v -0.01348321 -0.00827787 0.06500000
v -0.01331526 -0.00787359 0.06500000
v -0.01332801 -0.00793476 0.06500000
v -0.01333356 -0.00795660 0.06500000
v -0.01333550 -0.00796367 0.06500000
v -0.01336122 -0.00804462 0.06500000
v -0.01335884 -0.00803770 0.06500000
v -0.01336540 -0.00805588 0.06500000
v -0.01330000 -0.00769895 0.06500000
v -0.01330117 -0.00774469 0.06500000
v -0.01330409 -0.00778929 0.06500000
v -0.01330607 -0.00780937 0.06500000
v -0.01426598 -0.00870185 0.06500000
v -0.01430000 -0.00870259 0.06500000
v -0.02463842 -0.00871305 0.06500000
v -0.02758498 -0.00603934 0.06500000
v -0.02759530 -0.00579475 0.06500000
v -0.02754813 -0.00631203 0.06500000
v -0.02751906 -0.00644957 0.06500000
v -0.02748262 -0.00658728 0.06500000
v -0.02743865 -0.00672467 0.06500000
v -0.02738705 -0.00686121 0.06500000
v -0.02732777 -0.00699635 0.06500000
v -0.02726080 -0.00712955 0.06500000
v -0.02718621 -0.00726024 0.06500000
v -0.02710412 -0.00738787 0.06500000
v -0.02701470 -0.00751189 0.06500000
v -0.02691822 -0.00763177 0.06500000
v -0.02681496 -0.00774700 0.06500000
v -0.02757002 -0.00617514 0.06500000
v -0.02478139 -0.00870423 0.06500000
v -0.02492589 -0.00868905 0.06500000
v -0.02521760 -0.00863865 0.06500000
v -0.02507145 -0.00866726 0.06500000
v -0.02550958 -0.00856026 0.06500000
v -0.02536382 -0.00860302 0.06500000
v -0.02670528 -0.00785710 0.06500000
v -0.02565431 -0.00851026 0.06500000
v -0.02579745 -0.00845299 0.06500000
v -0.02607652 -0.00831678 0.06500000
v -0.02593838 -0.00838848 0.06500000
v -0.02634208 -0.00815241 0.06500000
v -0.02621128 -0.00823803 0.06500000
v -0.02658960 -0.00796162 0.06500000
v -0.02646836 -0.00806018 0.06500000
v -0.02758498 0.00603934 0.06500000
v -0.02759530 0.00579556 0.06500000
v -0.02670532 0.00785706 0.06500000
v -0.02666292 0.00789565 0.06500000
v -0.02658965 0.00796158 0.06500000
v -0.02654570 0.00799760 0.06500000
v -0.02646842 0.00806014 0.06500000
v -0.02642318 0.00809347 0.06500000
v -0.02634214 0.00815237 0.06500000
v -0.02629588 0.00818294 0.06500000
v -0.02621134 0.00823799 0.06500000
v -0.02616433 0.00826576 0.06500000
v -0.02463853 0.00871304 0.06500000
v -0.02473975 0.00870710 0.06500000
v -0.02478150 0.00870422 0.06500000
v -0.02488292 0.00869387 0.06500000
v -0.02492599 0.00868904 0.06500000
v -0.02502729 0.00867418 0.06500000
v -0.02507155 0.00866725 0.06500000
v -0.02517238 0.00864780 0.06500000
v -0.02521770 0.00863862 0.06500000
v -0.02531771 0.00861456 0.06500000
v -0.02536391 0.00860300 0.06500000
v -0.02546277 0.00857429 0.06500000
v -0.02550967 0.00856023 0.06500000
v -0.02560700 0.00852691 0.06500000
v -0.02565440 0.00851023 0.06500000
v -0.02574985 0.00847234 0.06500000
v -0.02579753 0.00845296 0.06500000
v -0.02589074 0.00841058 0.06500000
v -0.02593845 0.00838844 0.06500000
v -0.02607659 0.00831674 0.06500000
v -0.02602910 0.00834169 0.06500000
v -0.02757918 0.00609214 0.06500000
v -0.02757002 0.00617514 0.06500000
v -0.02751906 0.00644956 0.06500000
v -0.02753684 0.00636565 0.06500000
v -0.02756153 0.00622845 0.06500000
v -0.02754813 0.00631202 0.06500000
v -0.02743866 0.00672465 0.06500000
v -0.02746556 0.00664081 0.06500000
v -0.02750491 0.00650326 0.06500000
v -0.02748262 0.00658727 0.06500000
v -0.02732778 0.00699633 0.06500000
v -0.02736415 0.00691366 0.06500000
v -0.02741866 0.00677779 0.06500000
v -0.02738706 0.00686119 0.06500000
v -0.02718623 0.00726021 0.06500000
v -0.02723220 0.00717991 0.06500000
v -0.02730198 0.00704789 0.06500000
v -0.02726082 0.00712952 0.06500000
v -0.02701473 0.00751186 0.06500000
v -0.02707023 0.00743514 0.06500000
v -0.02715490 0.00730917 0.06500000
v -0.02710414 0.00738784 0.06500000
v -0.02677439 0.00778799 0.06500000
v -0.02681499 0.00774696 0.06500000
v -0.02687968 0.00767505 0.06500000
v -0.02697840 0.00755727 0.06500000
v -0.02691825 0.00763173 0.06500000
v -0.01718805 -0.00874232 0.06500000
v -0.02260564 0.00872615 0.06500000
v -0.02260564 -0.00872615 0.06500000
v -0.02264834 -0.00872599 0.06500000
v -0.02165456 -0.00872921 0.06500000
v -0.02759530 0.00344114 0.06500000
v -0.02759530 0.00309180 0.06500000
f 249 469 97
f 420 469 249
f 12 133 13
f 86 412 85
f 2 314 309
f 2 309 1
f 290 97 469
f 249 422 421
f 421 420 249
f 133 12 132
f 277 34 353
f 253 468 252
f 376 468 253
f 70 69 443
f 72 215 71
f 251 422 249
f 86 85 225
f 412 232 225
f 225 85 412
f 219 78 229
f 92 64 208
f 208 93 92
f 92 93 64
f 64 93 91
f 67 442 68
f 68 446 69
f 45 387 386
f 52 381 380
f 383 50 384
f 377 393 150
f 471 377 148
f 472 252 468
f 375 253 332
f 375 376 253
f 155 396 395
f 1 309 7
f 125 11 124
f 13 133 134
f 134 14 13
f 8 18 131
f 9 301 8
f 69 70 218
f 73 454 74
f 426 245 246
f 238 239 436
f 233 418 234
f 235 418 233
f 67 212 66
f 66 408 67
f 65 408 66
f 208 64 207
f 64 65 207
f 65 66 207
f 77 229 78
f 78 467 77
f 227 77 82
f 229 77 227
f 210 91 93
f 90 206 89
f 90 210 206
f 91 210 90
f 55 56 196
f 314 2 116
f 116 2 1
f 33 34 277
f 332 253 337
f 253 335 337
f 253 333 334
f 443 69 444
f 69 446 444
f 445 68 442
f 446 68 445
f 441 442 67
f 67 408 441
f 51 381 52
f 50 383 51
f 51 191 50
f 184 186 45
f 149 377 150
f 149 148 377
f 252 472 470
f 470 148 252
f 471 148 470
f 406 399 36
f 405 404 163
f 307 5 6
f 114 6 113
f 6 5 113
f 9 124 10
f 10 124 11
f 14 134 135
f 300 296 16
f 16 296 297
f 122 8 131
f 9 8 122
f 131 18 130
f 18 139 130
f 16 136 138
f 216 218 70
f 211 68 69
f 69 218 211
f 211 212 67
f 67 68 211
f 450 72 71
f 450 448 72
f 71 70 450
f 72 448 447
f 447 73 72
f 76 457 458
f 75 457 76
f 75 224 74
f 222 224 75
f 76 222 75
f 429 244 430
f 417 418 235
f 235 416 417
f 414 230 232
f 213 66 212
f 213 207 66
f 74 224 214
f 214 73 74
f 215 72 214
f 72 73 214
f 79 78 219
f 79 462 460
f 82 77 464
f 228 82 226
f 228 227 82
f 209 93 208
f 209 210 93
f 378 55 392
f 62 87 88
f 88 56 62
f 64 87 473
f 87 62 473
f 473 62 474
f 59 204 196
f 196 56 59
f 203 204 61
f 61 59 56
f 90 58 61
f 91 90 61
f 61 56 64
f 64 91 61
f 120 313 118
f 1 7 115
f 115 116 1
f 115 6 114
f 115 7 6
f 144 98 331
f 144 331 327
f 327 145 144
f 290 331 96
f 331 98 96
f 97 290 96
f 32 33 280
f 31 267 268
f 31 268 30
f 32 267 31
f 259 260 25
f 254 255 21
f 21 265 254
f 22 265 21
f 360 31 30
f 336 335 253
f 253 334 336
f 276 353 355
f 277 353 276
f 284 344 346
f 253 284 346
f 346 333 253
f 285 344 284
f 45 386 46
f 183 184 46
f 46 184 45
f 381 51 382
f 382 51 383
f 189 51 52
f 50 191 193
f 50 194 49
f 384 50 49
f 49 182 48
f 49 385 384
f 48 385 49
f 179 43 187
f 42 43 179
f 44 185 187
f 187 43 44
f 186 185 44
f 45 186 44
f 44 387 45
f 387 44 388
f 388 44 43
f 388 42 389
f 388 43 42
f 42 180 41
f 41 40 390
f 390 389 41
f 389 42 41
f 390 40 391
f 39 40 176
f 39 391 40
f 163 404 162
f 404 169 162
f 153 394 396
f 395 398 156
f 156 155 395
f 36 172 35
f 35 406 36
f 172 406 35
f 407 406 172
f 407 169 404
f 400 160 397
f 147 401 403
f 403 146 147
f 5 307 308
f 308 305 4
f 4 5 308
f 310 307 6
f 310 7 309
f 6 7 310
f 128 127 4
f 126 128 3
f 3 128 4
f 125 126 3
f 3 11 125
f 305 306 3
f 4 305 3
f 112 113 5
f 303 10 11
f 11 3 303
f 303 3 306
f 17 300 16
f 16 139 17
f 17 139 18
f 18 8 299
f 299 17 18
f 300 17 299
f 16 297 15
f 14 135 15
f 15 135 136
f 15 136 16
f 14 15 294
f 123 124 9
f 9 122 123
f 137 139 16
f 16 138 137
f 217 216 70
f 71 215 217
f 217 70 71
f 449 70 443
f 449 450 70
f 454 73 453
f 73 447 453
f 457 75 451
f 428 247 244
f 428 244 429
f 236 430 243
f 243 430 244
f 236 432 431
f 431 430 236
f 250 424 251
f 245 424 250
f 245 426 425
f 425 424 245
f 422 251 423
f 251 424 423
f 435 238 436
f 435 434 238
f 238 434 237
f 237 432 236
f 439 240 242
f 242 419 439
f 418 419 242
f 234 418 242
f 241 240 439
f 241 438 239
f 436 239 437
f 239 438 437
f 231 416 235
f 231 230 416
f 413 232 412
f 413 414 232
f 416 230 415
f 230 414 415
f 223 222 76
f 76 221 223
f 63 221 76
f 455 81 63
f 220 221 63
f 81 220 63
f 63 456 455
f 458 456 63
f 76 458 63
f 461 81 455
f 461 462 81
f 459 79 460
f 78 79 459
f 81 462 80
f 462 79 80
f 80 220 81
f 219 220 80
f 80 79 219
f 465 77 467
f 465 464 77
f 411 412 86
f 226 82 84
f 463 410 84
f 84 464 463
f 82 464 84
f 380 392 54
f 54 392 55
f 195 55 196
f 195 197 55
f 474 62 379
f 379 62 56
f 379 55 378
f 56 55 379
f 64 473 409
f 409 65 64
f 409 408 65
f 203 61 57
f 57 61 58
f 57 202 203
f 57 58 202
f 204 59 60
f 60 61 204
f 59 61 60
f 107 322 315
f 314 116 117
f 117 118 314
f 314 118 312
f 312 118 313
f 268 269 29
f 30 268 29
f 26 27 257
f 26 259 25
f 370 27 26
f 278 280 33
f 266 267 32
f 32 280 266
f 25 260 24
f 23 262 264
f 23 24 262
f 22 364 23
f 20 21 255
f 205 19 20
f 20 255 205
f 19 371 20
f 20 371 372
f 22 21 374
f 374 364 22
f 32 31 363
f 274 347 348
f 349 351 283
f 283 351 281
f 47 46 386
f 386 385 47
f 47 385 48
f 48 182 47
f 47 182 183
f 183 46 47
f 191 51 190
f 51 189 190
f 188 52 201
f 188 189 52
f 192 194 50
f 50 193 192
f 181 49 194
f 182 49 181
f 178 180 42
f 42 179 178
f 176 40 174
f 40 41 174
f 170 172 36
f 36 171 170
f 175 39 176
f 177 39 175
f 38 39 177
f 399 391 38
f 391 39 38
f 394 153 152
f 396 155 154
f 154 153 396
f 158 398 397
f 168 407 172
f 164 405 163
f 164 166 405
f 405 166 402
f 165 146 403
f 403 402 165
f 165 402 166
f 401 147 161
f 161 400 401
f 160 400 161
f 129 112 5
f 129 5 4
f 4 127 129
f 10 303 304
f 304 301 9
f 9 10 304
f 302 8 301
f 13 14 293
f 14 294 293
f 292 15 297
f 292 294 15
f 74 454 452
f 452 75 74
f 452 451 75
f 247 428 248
f 427 426 246
f 246 248 427
f 427 248 428
f 432 237 433
f 433 237 434
f 440 241 439
f 438 241 440
f 466 467 78
f 78 459 466
f 83 84 410
f 410 411 83
f 83 411 86
f 86 225 83
f 83 225 226
f 226 84 83
f 52 380 53
f 380 54 53
f 201 52 53
f 55 197 198
f 198 54 55
f 119 313 120
f 107 315 106
f 106 315 105
f 311 119 121
f 313 119 311
f 318 111 141
f 318 109 110
f 110 111 318
f 319 109 318
f 319 321 109
f 109 321 108
f 142 323 324
f 324 141 142
f 330 328 94
f 94 143 330
f 330 143 145
f 330 145 327
f 359 360 30
f 30 29 359
f 271 29 269
f 257 27 256
f 27 272 256
f 258 26 257
f 259 26 258
f 279 33 277
f 279 278 33
f 261 24 260
f 262 24 261
f 25 24 367
f 263 23 264
f 263 265 22
f 22 23 263
f 365 23 364
f 24 23 365
f 373 374 21
f 373 20 372
f 21 20 373
f 352 353 34
f 34 33 352
f 352 33 32
f 32 363 352
f 31 360 362
f 274 348 350
f 349 283 350
f 354 276 355
f 354 356 276
f 275 356 347
f 276 356 275
f 275 347 274
f 287 289 339
f 339 340 287
f 287 340 341
f 287 341 288
f 339 289 282
f 281 351 282
f 344 285 345
f 285 343 345
f 286 343 285
f 342 343 286
f 286 341 342
f 288 341 286
f 173 41 180
f 173 174 41
f 177 171 37
f 37 38 177
f 37 171 36
f 36 399 37
f 399 38 37
f 393 394 151
f 394 152 151
f 150 393 151
f 157 156 398
f 398 158 157
f 397 160 159
f 159 158 397
f 169 407 167
f 407 168 167
f 298 299 8
f 8 302 298
f 13 293 295
f 295 291 12
f 295 12 13
f 201 53 199
f 105 311 104
f 104 311 121
f 105 315 316
f 316 311 105
f 320 108 321
f 107 108 320
f 320 322 107
f 318 141 317
f 141 324 317
f 325 326 100
f 100 102 325
f 94 328 95
f 325 102 101
f 101 103 325
f 357 27 370
f 369 26 25
f 25 367 369
f 366 367 24
f 24 365 366
f 361 363 31
f 31 362 361
f 274 350 273
f 273 350 283
f 339 282 338
f 338 282 351
f 200 199 53
f 200 53 54
f 54 198 200
f 140 326 323
f 140 323 142
f 103 95 329
f 329 95 328
f 325 103 329
f 27 357 28
f 270 272 28
f 28 272 27
f 28 271 270
f 29 271 28
f 358 359 29
f 29 28 358
f 358 28 357
f 370 26 368
f 26 369 368
f 99 100 326
f 326 140 99
f 132 12 19
f 132 19 205
f 19 12 291
f 291 371 19
f 56 87 64
f 88 87 56
f 58 90 89
f 206 202 58
f 89 206 58
f 378 392 368
f 372 371 368
f 368 407 404
f 342 341 368
f 368 411 410
f 371 291 368
f 314 312 368
f 368 310 309
f 368 421 422
f 327 331 368
f 368 383 384
f 368 419 418
f 309 314 368
f 469 420 368
f 368 375 332
f 368 319 318
f 436 437 368
f 408 409 368
f 333 346 368
f 368 472 468
f 471 470 368
f 368 425 426
f 368 290 469
f 420 421 368
f 355 353 368
f 335 336 368
f 368 351 349
f 368 389 390
f 368 465 467
f 393 377 368
f 468 376 368
f 368 394 393
f 387 388 368
f 404 405 368
f 305 308 368
f 301 304 368
f 368 449 443
f 429 430 368
f 418 417 368
f 368 440 439
f 474 379 368
f 368 331 290
f 332 337 368
f 368 334 333
f 443 444 368
f 368 445 442
f 381 382 368
f 368 386 387
f 368 380 381
f 384 385 368
f 368 377 471
f 442 441 368
f 376 375 368
f 395 396 368
f 397 398 368
f 390 391 368
f 368 402 403
f 368 302 301
f 455 456 368
f 454 453 368
f 368 292 297
f 422 423 368
f 368 435 436
f 368 461 455
f 416 415 368
f 412 411 368
f 368 379 378
f 467 466 368
f 368 326 325
f 368 337 335
f 368 365 364
f 349 350 368
f 368 362 360
f 368 444 446
f 446 445 368
f 368 441 408
f 368 470 472
f 396 394 368
f 368 398 395
f 399 406 368
f 368 343 342
f 403 401 368
f 368 400 397
f 368 306 305
f 296 300 368
f 368 297 296
f 448 450 368
f 368 447 448
f 368 458 457
f 368 428 429
f 368 431 432
f 426 427 368
f 439 419 368
f 432 433 368
f 368 417 416
f 368 413 412
f 460 462 368
f 463 464 368
f 368 410 463
f 368 392 380
f 368 473 474
f 313 311 368
f 368 409 473
f 291 295 368
f 368 329 328
f 368 330 327
f 368 336 334
f 368 373 372
f 368 340 339
f 368 346 344
f 368 385 386
f 368 382 383
f 368 388 389
f 368 391 399
f 406 407 368
f 401 400 368
f 368 308 307
f 307 310 368
f 368 303 306
f 300 299 368
f 299 298 368
f 450 449 368
f 368 453 447
f 368 456 458
f 457 451 368
f 368 452 454
f 430 431 368
f 424 425 368
f 368 423 424
f 434 435 368
f 368 437 438
f 414 413 368
f 368 415 414
f 462 461 368
f 368 459 460
f 464 465 368
f 368 315 322
f 368 312 313
f 368 316 315
f 322 320 368
f 318 317 368
f 364 374 368
f 353 352 368
f 341 340 368
f 368 348 347
f 347 356 368
f 363 361 368
f 368 354 355
f 405 402 368
f 368 304 303
f 344 345 368
f 368 293 294
f 294 292 368
f 451 452 368
f 368 427 428
f 368 433 434
f 438 440 368
f 368 466 459
f 321 319 368
f 368 324 323
f 323 326 368
f 328 330 368
f 360 359 368
f 368 357 370
f 359 358 368
f 374 373 368
f 368 352 363
f 367 366 368
f 368 350 348
f 356 354 368
f 368 345 343
f 368 298 302
f 368 295 293
f 311 316 368
f 368 320 321
f 368 317 324
f 339 338 368
f 325 329 368
f 368 369 367
f 368 366 365
f 368 361 362
f 368 338 351
f 368 358 357
f 249 97 99
f 99 231 235
f 203 202 99
f 99 129 127
f 99 144 145
f 99 143 94
f 99 204 203
f 99 228 226
f 163 162 99
f 99 284 253
f 99 261 260
f 172 170 99
f 99 251 249
f 136 135 99
f 99 250 251
f 270 271 99
f 99 225 232
f 120 118 99
f 133 132 99
f 99 193 191
f 176 174 99
f 246 245 99
f 99 233 234
f 99 237 236
f 99 213 212
f 99 202 206
f 219 229 99
f 109 108 99
f 99 132 205
f 99 269 268
f 99 108 107
f 99 209 208
f 187 185 99
f 253 252 99
f 99 149 150
f 99 126 125
f 99 134 133
f 99 138 136
f 99 217 215
f 99 122 131
f 208 207 99
f 226 225 99
f 99 220 219
f 99 248 246
f 145 143 99
f 264 262 99
f 205 255 99
f 99 101 102
f 281 282 99
f 99 184 183
f 180 178 99
f 252 148 99
f 99 175 176
f 99 154 155
f 125 124 99
f 114 113 99
f 131 130 99
f 139 137 99
f 236 243 99
f 212 211 99
f 239 238 99
f 235 233 99
f 232 230 99
f 99 224 222
f 215 214 99
f 229 227 99
f 206 210 99
f 196 204 99
f 99 119 120
f 99 115 114
f 107 106 99
f 99 255 254
f 97 96 99
f 268 267 99
f 257 256 99
f 277 276 99
f 191 190 99
f 186 184 99
f 99 185 186
f 183 182 99
f 99 179 187
f 156 157 99
f 148 149 99
f 99 168 172
f 146 165 99
f 127 128 99
f 99 135 134
f 160 161 99
f 99 130 139
f 124 123 99
f 218 216 99
f 99 211 218
f 244 247 99
f 234 242 99
f 99 241 239
f 207 213 99
f 99 214 224
f 99 221 220
f 227 228 99
f 210 209 99
f 222 223 99
f 99 195 196
f 169 167 99
f 116 115 99
f 99 117 116
f 98 144 99
f 99 96 98
f 99 200 198
f 99 258 257
f 260 259 99
f 99 279 277
f 254 265 99
f 267 266 99
f 276 275 99
f 99 285 284
f 99 275 274
f 99 188 201
f 194 192 99
f 99 181 194
f 99 171 177
f 99 162 169
f 99 173 180
f 155 156 99
f 99 164 163
f 99 147 146
f 99 128 126
f 113 112 99
f 99 123 122
f 99 137 138
f 216 217 99
f 99 243 244
f 245 250 99
f 238 237 99
f 99 242 240
f 240 241 99
f 230 231 99
f 99 223 221
f 197 195 99
f 201 199 99
f 118 117 99
f 142 141 99
f 99 110 109
f 105 104 99
f 99 272 270
f 280 278 99
f 99 266 280
f 99 263 264
f 99 283 281
f 99 287 288
f 99 190 189
f 189 188 99
f 99 192 193
f 182 181 99
f 99 178 179
f 288 286 99
f 99 170 171
f 177 175 99
f 99 152 153
f 153 154 99
f 150 151 99
f 99 159 160
f 166 164 99
f 99 165 166
f 99 161 147
f 112 129 99
f 247 248 99
f 99 198 197
f 121 119 99
f 99 106 105
f 99 141 111
f 111 110 99
f 94 95 99
f 99 271 269
f 99 256 272
f 259 258 99
f 278 279 99
f 262 261 99
f 265 263 99
f 289 287 99
f 99 282 289
f 99 286 285
f 174 173 99
f 99 151 152
f 99 157 158
f 158 159 99
f 99 167 168
f 274 273 99
f 99 104 121
f 102 100 99
f 99 95 103
f 103 101 99
f 99 273 283
f 199 200 99
f 99 140 142
