# T-shirt cloth mesh for OmniSim `Cloth { url ... }`.
# GENERATED by scripts/dev/usd_to_cloth_obj.py -- do not hand-edit.
# source: msys64\mingw64\bin\newton-runtime\site-packages\newton\examples\assets\unisex_shirt.usd (/root/shirt)
# Y-up 0.01 m/unit -> ENU Z-up metres; 616 verts, 1157 tris, surface 0.6641 m^2
# welded 0 dup verts, dropped 0 degenerate / 0 duplicate tris, 0 orphan verts
# non-manifold edges 0 (must be 0), boundary edges 89 (the hems)
# local frame: bbox centred on XY, lowest vertex at z = 0
# uv: arap-panel, 6 tiles/m, one uv per position (no seam split -- see the note in write_obj)
# uv distortion: mip spread 0.20, 0.00% of area over 1 mip, anisotropy p50 1.06 p95 1.41 max 3.70, 35.5 texels^2/m^2 (ideal 36.0)
v -0.324151 0.001031 0.374979
v -0.316481 -0.042751 0.374018
v -0.310112 -0.001752 0.397667
v -0.306884 0.028824 0.369735
v -0.304107 -0.038082 0.395176
v -0.298409 0.023191 0.395221
v -0.294587 -0.062206 0.363035
v -0.294366 -0.007941 0.426102
v -0.292804 -0.026192 0.424447
v -0.290490 -0.060104 0.378046
v -0.282294 0.001962 0.440449
v -0.281054 -0.054842 0.405777
v -0.274026 -0.041524 0.437504
v -0.271115 0.036721 0.402708
v -0.268882 0.026983 0.433205
v -0.268240 -0.070271 0.360359
v -0.267926 0.039355 0.359049
v -0.266807 -0.003346 0.472504
v -0.263983 -0.064750 0.399913
v -0.260816 -0.035234 0.470222
v -0.258227 -0.071063 0.338722
v -0.257963 0.027800 0.334092
v -0.256580 0.022490 0.469539
v -0.253910 -0.061660 0.424979
v -0.253776 -0.004675 0.497459
v -0.249222 0.032143 0.455480
v -0.247842 -0.062644 0.333367
v -0.246157 -0.058008 0.451034
v -0.244772 0.020148 0.338135
v -0.241246 -0.001435 0.516359
v -0.237729 0.040435 0.441228
v -0.237557 -0.051112 0.478063
v -0.237110 -0.069097 0.359777
v -0.236776 0.000726 0.333835
v -0.235867 -0.039983 0.332612
v -0.233700 -0.066918 0.431820
v -0.233147 0.029928 0.359688
v -0.231501 0.036705 0.477037
v -0.230705 -0.040728 0.511861
v -0.230263 -0.071605 0.397562
v -0.228455 0.041114 0.397854
v -0.228306 0.027564 0.510986
v -0.224561 -0.043155 0.355698
v -0.223924 -0.000181 0.349908
v -0.220675 -0.004860 0.544559
v -0.219690 -0.031903 0.539603
v -0.219294 -0.062883 0.471453
v -0.215457 0.020804 0.537828
v -0.206992 -0.057106 0.519184
v -0.205221 0.022815 0.373942
v -0.201379 0.046665 0.516271
v -0.201027 -0.001965 0.562439
v -0.200678 -0.031348 0.374667
v -0.196244 -0.067299 0.401406
v -0.195200 -0.002386 0.368143
v -0.193274 0.030955 0.396947
v -0.192852 0.033208 0.547236
v -0.192696 -0.070963 0.435500
v -0.192154 0.043032 0.432772
v -0.192152 -0.040414 0.553201
v -0.191458 -0.070608 0.471334
v -0.191242 -0.046116 0.389013
v -0.190015 -0.065168 0.515023
v -0.189828 0.049908 0.471650
v -0.184185 -0.007224 0.574681
v -0.181232 0.058650 0.514161
v -0.178393 0.010562 0.384709
v -0.177878 0.061147 0.477644
v -0.176813 0.057497 0.534546
v -0.174542 -0.014933 0.379542
v -0.172691 -0.022053 0.571639
v -0.171200 -0.041350 0.017596
v -0.168758 -0.001331 0.012708
v -0.168581 -0.046424 0.395533
v -0.168033 -0.007903 0.053423
v -0.167435 0.003395 0.383512
v -0.166306 0.046692 0.431303
v -0.164306 -0.043324 0.051702
v -0.162936 -0.077534 0.014805
v -0.162561 0.029949 0.398101
v -0.162039 -0.002684 0.357752
v -0.162019 0.003170 0.090516
v -0.161357 0.072305 0.472783
v -0.161037 -0.044829 0.361362
v -0.160057 0.042947 0.558867
v -0.159635 -0.005842 0.319941
v -0.158866 -0.062855 0.534280
v -0.158366 -0.079910 0.431970
v -0.158357 -0.000886 0.284821
v -0.157717 -0.048209 0.555348
v -0.156244 -0.078790 0.056920
v -0.156068 -0.039646 0.094384
v -0.155167 -0.004675 0.241091
v -0.155154 0.038444 0.355892
v -0.155006 0.033137 0.054916
v -0.154804 -0.001577 0.122818
v -0.154596 -0.081624 0.477789
v -0.154249 -0.003104 0.583913
v -0.154142 -0.004750 0.205553
v -0.154006 0.040390 0.092165
v -0.153841 0.031047 0.131872
v -0.153717 -0.044442 0.321607
v -0.153018 -0.001536 0.166936
v -0.152996 -0.038360 0.134609
v -0.152865 0.064016 0.542144
v -0.151967 0.034096 0.324729
v -0.151875 -0.076150 0.403251
v -0.151829 0.076589 0.435949
v -0.151605 0.068716 0.405610
v -0.151209 0.028800 0.577594
v -0.151201 -0.070226 0.514198
v -0.150849 0.074525 0.512379
v -0.148980 0.034519 0.009692
v -0.148682 -0.080597 0.090695
v -0.148474 -0.046362 0.285394
v -0.148454 0.024283 0.288561
v -0.148375 -0.070160 0.359044
v -0.147137 0.035792 0.168773
v -0.146624 -0.031318 0.573932
v -0.146510 -0.040737 0.169409
v -0.146344 -0.039895 0.248126
v -0.145624 0.058593 0.362825
v -0.144833 -0.037951 0.202226
v -0.144271 -0.099027 0.090189
v -0.143350 -0.106809 0.017952
v -0.143012 -0.104068 0.057363
v -0.142217 0.064747 0.173841
v -0.141965 0.063574 0.131785
v -0.141246 0.059029 0.093549
v -0.140848 -0.069407 0.311680
v -0.140333 -0.078916 0.133646
v -0.140255 0.038338 0.206189
v -0.139867 0.021509 0.248995
v -0.139592 0.065858 0.208172
v -0.138444 -0.102546 0.118841
v -0.137608 -0.064278 0.162378
v -0.137265 -0.067787 0.291885
v -0.137006 0.066833 0.232726
v -0.136934 0.058404 0.056551
v -0.135908 0.028906 0.223958
v -0.134598 -0.058721 0.242415
v -0.133001 -0.085374 0.166824
v -0.132992 0.041607 0.245407
v -0.132911 -0.056074 0.212698
v -0.132347 0.046073 0.314747
v -0.131776 -0.096172 0.400507
v -0.131673 0.072376 0.247037
v -0.131644 0.089549 0.472498
v -0.129355 0.083226 0.199782
v -0.128710 0.046372 0.279678
v -0.127275 -0.079614 0.201613
v -0.126090 0.082912 0.169930
v -0.125939 0.078918 0.283915
v -0.124574 0.086204 0.430551
v -0.124356 -0.092493 0.347328
v -0.124176 0.071399 0.359959
v -0.122535 -0.113143 0.169111
v -0.122520 -0.086729 0.316016
v -0.122019 -0.081050 0.281285
v -0.121982 0.086866 0.517114
v -0.120952 0.082390 0.130479
v -0.120945 0.081776 0.398953
v -0.120778 -0.116988 0.133003
v -0.120720 -0.081658 0.246648
v -0.120598 0.075253 0.320376
v -0.120546 -0.118794 0.090744
v -0.119926 -0.092362 0.478980
v -0.119593 0.078794 0.092068
v -0.119025 -0.105428 0.436473
v -0.118968 -0.053231 0.557051
v -0.118867 -0.117374 0.012949
v -0.118847 0.070892 0.014634
v -0.116985 0.035838 0.589425
v -0.116902 -0.112707 0.208771
v -0.116604 -0.003658 0.598810
v -0.116013 -0.078742 0.511192
v -0.115688 -0.120533 0.053731
v -0.114808 0.074896 0.551703
v -0.114720 0.078792 0.053765
v -0.114216 -0.034626 0.581523
v -0.113750 -0.065211 0.538538
v -0.112446 -0.113035 0.401131
v -0.111115 -0.108656 0.363512
v -0.110961 0.103170 0.321403
v -0.110489 0.099207 0.245722
v -0.110180 -0.101300 0.463806
v -0.109207 -0.119342 0.240755
v -0.109109 0.102502 0.357031
v -0.108598 0.061407 0.575652
v -0.108585 0.100078 0.435278
v -0.108230 0.102863 0.280054
v -0.107594 0.101538 0.479427
v -0.107373 0.097505 0.204509
v -0.106785 0.095763 0.181752
v -0.105401 0.096834 0.507446
v -0.104973 -0.118773 0.283539
v -0.104921 0.104957 0.392917
v -0.102908 -0.117090 0.324333
v -0.100507 0.095041 0.139569
v -0.099002 0.002737 0.609669
v -0.097774 0.090798 0.070173
v -0.096649 0.092347 0.083374
v -0.095727 -0.058266 0.560861
v -0.094013 -0.018724 0.603895
v -0.093499 0.090460 0.041834
v -0.092396 0.089840 0.012714
v -0.091681 -0.096603 0.489520
v -0.083574 0.113537 0.396590
v -0.082799 -0.127468 0.094277
v -0.081606 -0.132041 0.245960
v -0.081412 -0.124451 0.012982
v -0.080934 0.112747 0.432820
v -0.080928 -0.043520 0.589166
v -0.080609 -0.132183 0.279340
v -0.080440 -0.125716 0.053050
v -0.079800 0.042833 0.599618
v -0.079735 -0.130825 0.206716
v -0.079426 0.099566 0.515396
v -0.079018 -0.118989 0.436190
v -0.078982 -0.089091 0.512874
v -0.078899 0.099852 0.130417
v -0.078662 0.112172 0.362637
v -0.078403 -0.001988 0.618571
v -0.078334 -0.071198 0.549687
v -0.078209 0.084995 0.551869
v -0.078100 -0.105648 0.472771
v -0.078096 -0.129917 0.170527
v -0.077559 -0.129093 0.131095
v -0.077534 0.105573 0.244845
v -0.077487 0.065611 0.581162
v -0.077411 0.101992 0.168127
v -0.077208 0.103793 0.208043
v -0.076897 -0.027351 0.610330
v -0.076860 0.099731 0.095266
v -0.076307 0.108201 0.284611
v -0.075572 0.108855 0.479804
v -0.075291 -0.129167 0.394405
v -0.073992 -0.132534 0.321173
v -0.073450 0.103497 0.010404
v -0.073249 0.101664 0.054116
v -0.071773 -0.131690 0.360205
v -0.071680 -0.061513 0.571987
v -0.070967 0.025246 0.614458
v -0.068719 0.110071 0.320368
v -0.064653 -0.098606 0.497920
v -0.057273 -0.058451 0.592640
v -0.051016 0.121171 0.015849
v -0.050275 0.011223 0.632994
v -0.048422 0.121322 0.055133
v -0.046727 -0.067816 0.581375
v -0.045702 -0.131340 0.052834
v -0.045430 -0.131913 0.394550
v -0.045380 -0.094110 0.519638
v -0.045260 0.116178 0.208374
v -0.044973 -0.132823 0.204102
v -0.044420 -0.110022 0.473090
v -0.043844 0.106772 0.474069
v -0.043706 0.120923 0.130914
v -0.042349 0.123095 0.090994
v -0.042332 -0.131678 0.017775
v -0.042323 0.048691 0.602236
v -0.042217 -0.133548 0.246348
v -0.042017 -0.082297 0.549178
v -0.041003 0.115422 0.286073
v -0.040856 0.064670 0.583390
v -0.040478 -0.134062 0.285848
v -0.040267 -0.134419 0.323592
v -0.039715 0.098346 0.513351
v -0.039630 0.084096 0.552578
v -0.039608 0.117268 0.243683
v -0.039556 -0.123055 0.435766
v -0.039408 0.109998 0.435612
v -0.039276 -0.133197 0.169596
v -0.039012 -0.132924 0.131007
v -0.038836 0.028961 0.622177
v -0.038800 0.114182 0.360583
v -0.038534 0.114889 0.319671
v -0.038480 -0.134067 0.362041
v -0.038297 -0.132801 0.089891
v -0.036916 0.122829 0.168468
v -0.036675 -0.101322 0.504275
v -0.035956 0.112416 0.396535
v -0.031784 0.132792 0.014894
v -0.027662 0.132918 0.041964
v -0.025075 0.132249 0.063779
v -0.009866 0.134189 0.057514
v -0.008012 0.131954 0.088294
v -0.007493 0.128248 0.131301
v -0.007420 -0.130147 0.400675
v -0.005363 0.110844 0.358232
v -0.004566 -0.135201 0.319790
v -0.004202 0.113774 0.317834
v -0.004154 -0.135866 0.204623
v -0.004085 0.102666 0.471830
v -0.003886 -0.135071 0.017280
v -0.003670 0.064060 0.584235
v -0.003508 -0.136093 0.054591
v -0.003296 0.033072 0.626254
v -0.003282 -0.135554 0.246785
v -0.003211 0.136093 0.015460
v -0.003024 -0.134345 0.356138
v -0.002903 0.096640 0.516887
v -0.002882 0.084822 0.550774
v -0.002850 -0.135823 0.167928
v -0.002838 0.120844 0.210509
v -0.002788 -0.122251 0.437390
v -0.002786 -0.095770 0.525649
v -0.002740 0.118748 0.242330
v -0.002715 -0.102421 0.506238
v -0.002504 -0.111774 0.474851
v -0.002357 -0.135352 0.284802
v -0.001604 -0.136031 0.087706
v -0.001142 -0.135871 0.129941
v -0.000910 0.104112 0.434365
v -0.000888 -0.085292 0.550710
v -0.000868 0.115669 0.281601
v -0.000640 0.123784 0.167035
v -0.000441 0.106530 0.393802
v -0.000214 -0.080310 0.579875
v 0.000120 0.050463 0.603231
v 0.008301 0.126533 0.097444
v 0.010265 0.129145 0.061690
v 0.017558 0.131209 0.000000
v 0.020079 0.092683 0.531418
v 0.029585 -0.134782 0.322208
v 0.029883 -0.101525 0.506039
v 0.031466 -0.131841 0.015708
v 0.032166 0.119197 0.053850
v 0.032604 -0.133546 0.244626
v 0.033345 -0.082141 0.552997
v 0.033780 0.064386 0.583969
v 0.034146 -0.132362 0.166997
v 0.034198 0.029746 0.622610
v 0.034402 -0.072490 0.578653
v 0.034446 -0.131131 0.399676
v 0.034648 0.109711 0.287878
v 0.034844 0.116447 0.092169
v 0.035258 0.083402 0.554480
v 0.035386 0.121896 0.015464
v 0.035401 0.106833 0.432693
v 0.035406 0.098085 0.514194
v 0.036108 -0.122508 0.437528
v 0.036196 0.104417 0.478517
v 0.036593 -0.133807 0.280513
v 0.036622 0.110918 0.244909
v 0.036684 -0.111036 0.472085
v 0.036996 0.048604 0.603220
v 0.037180 0.109121 0.324486
v 0.037311 0.114931 0.134063
v 0.037411 -0.131058 0.093650
v 0.037763 -0.134028 0.360036
v 0.037852 -0.093604 0.523515
v 0.037876 0.113181 0.165748
v 0.037907 0.108381 0.361076
v 0.038075 -0.132647 0.207000
v 0.038154 -0.131377 0.130909
v 0.038263 0.107952 0.403256
v 0.038428 -0.130717 0.055966
v 0.040535 0.112269 0.206008
v 0.046066 0.010748 0.634640
v 0.050333 0.093069 0.533265
v 0.054870 -0.059035 0.593243
v 0.059625 -0.100347 0.494679
v 0.063483 -0.061342 0.576173
v 0.068564 -0.131250 0.206724
v 0.069010 -0.124908 0.012111
v 0.070386 -0.127417 0.093994
v 0.070440 -0.132877 0.317198
v 0.070918 0.115047 0.320106
v 0.071060 0.115480 0.092996
v 0.071127 0.116133 0.211126
v 0.071253 0.115737 0.169707
v 0.071893 0.024365 0.614177
v 0.071950 0.114277 0.400038
v 0.072003 -0.125560 0.056288
v 0.072166 -0.090183 0.513297
v 0.072672 0.100833 0.512116
v 0.072674 -0.072679 0.549650
v 0.072927 0.114819 0.052902
v 0.073606 -0.128697 0.127896
v 0.073689 -0.106406 0.471912
v 0.073924 0.085028 0.552194
v 0.074061 0.065204 0.581671
v 0.074093 -0.118959 0.438017
v 0.074415 0.115007 0.360986
v 0.074443 -0.129956 0.167053
v 0.074555 0.043045 0.600322
v 0.074752 -0.026233 0.612023
v 0.075024 0.114858 0.134089
v 0.075031 -0.132572 0.282811
v 0.075198 0.115259 0.281559
v 0.075660 -0.131953 0.244314
v 0.075752 -0.131570 0.357108
v 0.075847 -0.045248 0.589772
v 0.075892 0.114443 0.014542
v 0.075942 0.093566 0.532377
v 0.076060 -0.001566 0.619072
v 0.076412 0.109246 0.477695
v 0.076414 0.115292 0.241948
v 0.078667 -0.127485 0.401975
v 0.080002 0.113633 0.437143
v 0.089461 -0.018052 0.605989
v 0.089756 -0.096399 0.490693
v 0.091567 -0.057536 0.564193
v 0.095331 0.019319 0.607786
v 0.096683 0.005344 0.609867
v 0.100561 0.102931 0.048071
v 0.102016 0.100469 0.017638
v 0.102793 -0.113420 0.358681
v 0.102895 0.104188 0.164429
v 0.103086 -0.111983 0.316717
v 0.103289 0.104930 0.397801
v 0.104645 -0.117970 0.281709
v 0.104917 0.102840 0.436961
v 0.104974 -0.102007 0.464897
v 0.105358 0.109051 0.361003
v 0.105472 0.100016 0.092952
v 0.105518 0.061404 0.576228
v 0.106384 -0.116523 0.398104
v 0.106389 0.104005 0.203804
v 0.106441 0.095999 0.507013
v 0.106446 0.107579 0.321049
v 0.106527 0.101386 0.472618
v 0.107836 0.098989 0.124817
v 0.108014 -0.116703 0.242372
v 0.108493 -0.065044 0.540189
v 0.108998 -0.036154 0.581107
v 0.110315 0.105038 0.280460
v 0.110469 -0.121687 0.092218
v 0.110652 -0.117666 0.211495
v 0.110825 0.103153 0.247532
v 0.110896 -0.078674 0.513490
v 0.111372 -0.121268 0.125774
v 0.111505 -0.108420 0.434893
v 0.111884 -0.120298 0.052312
v 0.112277 0.037479 0.590253
v 0.114082 -0.117409 0.015437
v 0.114263 0.073612 0.552927
v 0.114940 -0.003072 0.598899
v 0.115270 -0.053098 0.557475
v 0.115537 -0.092555 0.480943
v 0.116059 0.075602 0.325400
v 0.116352 -0.116963 0.170171
v 0.117313 -0.083275 0.282559
v 0.119158 -0.088042 0.319611
v 0.119269 0.078845 0.012342
v 0.119512 0.070817 0.356722
v 0.119783 0.081117 0.397160
v 0.120029 -0.080260 0.243416
v 0.120614 0.087184 0.516871
v 0.121040 0.080690 0.051895
v 0.121442 0.086421 0.422350
v 0.121836 -0.094557 0.351539
v 0.122054 0.072745 0.287364
v 0.122501 0.086238 0.130020
v 0.122822 0.054597 0.573420
v 0.123146 -0.083382 0.209896
v 0.124252 0.089645 0.175101
v 0.124518 0.080376 0.093920
v 0.124688 0.045986 0.290968
v 0.126028 0.040829 0.246626
v 0.126057 -0.097640 0.397067
v 0.126482 0.089820 0.209564
v 0.126989 0.072226 0.251689
v 0.127567 0.049402 0.310079
v 0.129252 0.087555 0.481478
v 0.129257 -0.086074 0.172324
v 0.129514 -0.055368 0.233911
v 0.129980 0.042146 0.220557
v 0.132314 -0.086535 0.156723
v 0.132653 0.066009 0.236661
v 0.133537 0.034838 0.209820
v 0.134386 -0.066497 0.165403
v 0.134860 0.058875 0.025290
v 0.135090 -0.104601 0.121212
v 0.135579 -0.107680 0.093404
v 0.136492 0.070870 0.205344
v 0.136851 0.061914 0.060097
v 0.137527 0.028944 0.288165
v 0.137823 -0.063026 0.285443
v 0.137956 0.070650 0.169763
v 0.138342 -0.108170 0.014193
v 0.139506 -0.106125 0.053438
v 0.139552 -0.071964 0.324793
v 0.139818 -0.078474 0.129376
v 0.139856 0.060598 0.366265
v 0.140482 -0.037930 0.205636
v 0.140663 0.034504 0.167512
v 0.142557 0.062417 0.095961
v 0.142677 0.067331 0.131698
v 0.143122 -0.042869 0.167906
v 0.143669 -0.031673 0.573493
v 0.144526 0.028963 0.580299
v 0.144576 0.037619 0.325625
v 0.144786 -0.072594 0.364853
v 0.145403 -0.040148 0.251127
v 0.147246 -0.061762 0.536713
v 0.147421 0.062249 0.545367
v 0.147527 -0.084226 0.475316
v 0.147546 -0.076355 0.403332
v 0.147824 -0.004311 0.244228
v 0.148082 -0.043982 0.282178
v 0.148137 -0.048477 0.556286
v 0.148392 0.035486 0.128993
v 0.148619 -0.079389 0.088621
v 0.148887 -0.042420 0.129926
v 0.148914 0.000334 0.207361
v 0.149564 0.032701 0.009215
v 0.149722 -0.006367 0.282056
v 0.149889 0.076725 0.474650
v 0.151155 -0.070363 0.512379
v 0.151473 0.072291 0.515592
v 0.151609 -0.002992 0.584089
v 0.151691 0.000141 0.168106
v 0.151702 -0.043428 0.322125
v 0.152365 0.071042 0.434816
v 0.152733 -0.082026 0.429324
v 0.152821 0.062924 0.397101
v 0.152975 0.000003 0.127363
v 0.154799 0.034428 0.093670
v 0.154805 0.038393 0.356808
v 0.154889 -0.005813 0.321024
v 0.155081 -0.078622 0.055161
v 0.155449 -0.035910 0.089708
v 0.155975 -0.006258 0.086643
v 0.156099 0.033953 0.055474
v 0.157616 -0.041834 0.359843
v 0.158421 0.040732 0.561411
v 0.160293 -0.078260 0.019242
v 0.160826 -0.003255 0.363640
v 0.161761 -0.043338 0.052445
v 0.163255 0.007096 0.006515
v 0.163875 -0.042557 0.392726
v 0.164293 -0.002335 0.054916
v 0.165266 0.038602 0.399707
v 0.166215 -0.051652 0.025708
v 0.166235 -0.001594 0.383526
v 0.169294 -0.019591 0.029187
v 0.169966 -0.063065 0.532346
v 0.170658 -0.011623 0.014125
v 0.170784 -0.038167 0.008906
v 0.171427 -0.014842 0.379900
v 0.173741 0.058353 0.441422
v 0.178356 0.011081 0.385732
v 0.178688 -0.009867 0.574504
v 0.179925 0.061105 0.506097
v 0.180855 0.062190 0.475856
v 0.184167 -0.066297 0.513689
v 0.184264 0.043469 0.431555
v 0.185300 -0.071438 0.473865
v 0.185323 -0.061475 0.531851
v 0.185339 -0.044726 0.389797
v 0.186091 0.033173 0.550754
v 0.188041 0.028226 0.401219
v 0.188750 -0.041189 0.553823
v 0.191455 -0.021544 0.569124
v 0.191520 -0.005977 0.369241
v 0.192206 -0.070846 0.432825
v 0.192865 -0.000427 0.563681
v 0.193117 -0.065841 0.400107
v 0.193895 0.046794 0.513902
v 0.193996 0.050241 0.474685
v 0.199919 -0.035284 0.373799
v 0.202173 0.020604 0.374191
v 0.202375 -0.057414 0.522915
v 0.213438 0.021623 0.539543
v 0.213857 -0.034675 0.542608
v 0.214583 -0.063448 0.473658
v 0.218071 -0.003997 0.545355
v 0.219529 -0.003581 0.351762
v 0.221236 -0.043082 0.354320
v 0.223904 0.028588 0.511431
v 0.224523 0.040333 0.393030
v 0.225827 -0.071801 0.396132
v 0.226505 -0.067078 0.434405
v 0.227276 0.038751 0.476162
v 0.227359 0.044689 0.434848
v 0.228283 0.028087 0.360926
v 0.228473 -0.040994 0.513001
v 0.232377 -0.066721 0.359498
v 0.233743 -0.053642 0.475042
v 0.234205 0.001753 0.335230
v 0.236624 -0.040034 0.334821
v 0.237131 -0.000772 0.519502
v 0.241903 0.018689 0.337181
v 0.242829 -0.057661 0.446467
v 0.247892 -0.058741 0.332253
v 0.248499 -0.025878 0.499326
v 0.249624 -0.004017 0.501255
v 0.252300 -0.061372 0.421736
v 0.253561 -0.067207 0.337206
v 0.257090 0.030105 0.336571
v 0.257315 0.020810 0.471266
v 0.258821 -0.034983 0.472428
v 0.261339 0.039245 0.357517
v 0.263372 -0.001983 0.475563
v 0.264492 -0.070870 0.356657
v 0.264856 0.039638 0.397212
v 0.265098 -0.064378 0.395274
v 0.268012 0.027386 0.433403
v 0.269020 -0.045375 0.438529
v 0.276702 0.001227 0.444262
v 0.279579 -0.053852 0.406041
v 0.281802 -0.060099 0.388796
v 0.287797 -0.060211 0.378913
v 0.288934 -0.063976 0.365057
v 0.289040 -0.032036 0.428116
v 0.291787 -0.008457 0.424909
v 0.296149 0.023803 0.395047
v 0.300505 0.030888 0.371265
v 0.302995 -0.039219 0.396207
v 0.307153 -0.051201 0.372960
v 0.308938 -0.003260 0.396055
v 0.319919 0.013039 0.372919
v 0.323692 -0.024847 0.376389
v 0.324151 -0.010356 0.376263
vt 7.765668 6.006901
vt 7.556804 5.991587
vt 7.758557 6.165648
vt 7.517026 6.038420
vt 7.563548 6.140698
vt 7.576973 6.189150
vt 7.387319 5.959584
vt 7.751065 6.363287
vt 7.633053 6.337138
vt 7.396073 6.052013
vt 7.734247 6.493899
vt 7.419503 6.236897
vt 7.505658 6.443103
vt 7.456986 6.326493
vt 7.554562 6.483712
vt 7.222227 5.978152
vt 7.216747 6.166600
vt 7.717618 6.733186
vt 7.295193 6.225324
vt 7.525278 6.675495
vt 7.069732 5.881927
vt 7.231849 5.953917
vt 7.563566 6.716640
vt 7.320687 6.389302
vt 7.656724 6.899267
vt 7.474693 6.651481
vt 7.134384 5.887579
vt 7.349114 6.561762
vt 7.321556 5.959755
vt 7.632264 7.041793
vt 7.394106 6.565543
vt 7.375518 6.745198
vt 7.067148 6.051762
vt 7.456186 5.912387
vt 7.255666 5.918176
vt 7.229186 6.463164
vt 7.317389 6.082709
vt 7.415221 6.795355
vt 7.406851 6.971264
vt 7.075422 6.254272
vt 7.212710 6.327196
vt 7.444514 7.005029
vt 7.240434 6.067174
vt 7.484559 6.034758
vt 7.524303 7.269300
vt 7.390365 7.168178
vt 7.254508 6.735019
vt 7.394712 7.188027
vt 7.247376 7.035704
vt 7.376038 6.267028
vt 7.246441 7.048493
vt 7.402881 7.423064
vt 7.302543 6.246569
vt 7.016630 6.372001
vt 7.496711 6.230233
vt 7.361270 6.456847
vt 7.238350 7.253785
vt 7.079396 6.575928
vt 7.197265 6.617404
vt 7.231878 7.284536
vt 7.102918 6.779967
vt 7.198370 6.348395
vt 7.140515 7.031736
vt 7.171222 6.808684
vt 7.299164 7.527852
vt 7.105555 7.039570
vt 7.455472 6.351004
vt 7.078632 6.837129
vt 7.079928 7.154814
vt 7.388759 6.365521
vt 7.182647 7.478003
vt 7.247140 4.095969
vt 7.453944 4.061273
vt 7.193024 6.467266
vt 7.455232 4.310568
vt 7.481728 6.395041
vt 7.097120 6.559076
vt 7.234808 4.299111
vt 7.040991 4.072089
vt 7.244483 6.385170
vt 7.459172 6.205657
vt 7.441833 4.540383
vt 6.968381 6.801299
vt 7.201407 6.234398
vt 7.024589 7.337820
vt 7.443132 5.954717
vt 6.987626 7.192719
vt 6.914519 6.621118
vt 7.436055 5.730238
vt 7.022768 7.338956
vt 7.020949 4.324244
vt 7.221717 4.558795
vt 7.428751 5.457911
vt 7.198935 6.159197
vt 7.212285 4.321357
vt 7.437925 4.740919
vt 6.901491 6.864236
vt 7.113699 7.644659
vt 7.426970 5.240898
vt 7.184578 4.543901
vt 7.233367 4.781171
vt 7.199703 5.974358
vt 7.426770 5.005001
vt 7.222287 4.805104
vt 6.933740 7.205669
vt 7.208613 5.970004
vt 6.970876 6.456340
vt 6.926234 6.588457
vt 6.985975 6.415892
vt 7.003023 7.485260
vt 6.918101 7.079948
vt 6.904105 7.027047
vt 7.191997 4.047067
vt 6.989986 4.529010
vt 7.170910 5.740923
vt 7.264949 5.746794
vt 7.030060 6.197417
vt 7.190571 5.004915
vt 6.994622 7.499989
vt 7.199785 5.021614
vt 7.207296 5.505277
vt 7.051876 6.182669
vt 7.216020 5.221936
vt 6.882657 4.522994
vt 6.841954 4.091979
vt 6.856644 4.327169
vt 7.006996 5.027733
vt 7.016860 4.777632
vt 7.039436 4.550460
vt 7.028387 5.901736
vt 6.978129 4.795390
vt 7.158995 5.233624
vt 7.247298 5.501870
vt 6.988465 5.230790
vt 6.850182 4.693792
vt 7.051795 4.974705
vt 7.027108 5.777694
vt 6.973879 5.377143
vt 7.020817 4.328258
vt 7.198610 5.351239
vt 7.074730 5.467038
vt 6.924012 4.998136
vt 7.119453 5.474173
vt 7.086110 5.286557
vt 7.083579 5.877157
vt 6.808695 6.416328
vt 6.931691 5.465004
vt 6.777227 6.786663
vt 6.866864 5.180448
vt 7.082229 5.673987
vt 6.943461 5.213337
vt 6.856455 5.001942
vt 6.880643 5.683256
vt 6.774715 6.536237
vt 6.838842 6.098716
vt 6.900738 6.134765
vt 6.749975 5.006684
vt 6.873796 5.909761
vt 6.912422 5.700317
vt 6.721907 7.047746
vt 6.839808 4.764834
vt 6.802870 6.349150
vt 6.725779 4.788939
vt 6.913129 5.488286
vt 6.889917 5.903235
vt 6.707907 4.532803
vt 6.698656 6.874520
vt 6.851805 4.535230
vt 6.679106 6.609673
vt 6.782509 7.384276
vt 6.689475 4.067077
vt 6.895443 4.070168
vt 6.783701 7.564298
vt 6.733999 5.246927
vt 6.875993 7.778140
vt 6.706500 7.079827
vt 6.673829 4.312265
vt 6.697116 7.261218
vt 6.832494 4.303707
vt 6.796261 7.573040
vt 6.724224 7.261565
vt 6.662394 6.400353
vt 6.701850 6.178163
vt 6.705624 5.894804
vt 6.720130 5.451005
vt 6.634306 6.775700
vt 6.678690 5.440214
vt 6.687682 6.099452
vt 6.677262 7.423820
vt 6.653019 6.557140
vt 6.696195 5.653477
vt 6.625745 6.816170
vt 6.707770 5.205193
vt 6.712980 5.070086
vt 6.615479 6.981930
vt 6.662186 5.697828
vt 6.642165 6.307275
vt 6.650961 5.941714
vt 6.690176 4.814884
vt 6.775121 7.870600
vt 6.701307 4.396341
vt 6.688498 4.474878
vt 6.636479 7.409426
vt 6.701307 7.756016
vt 6.685868 4.224702
vt 6.689528 4.049679
vt 6.538919 6.937669
vt 6.506400 6.324983
vt 6.488126 4.562133
vt 6.498141 5.471243
vt 6.471937 4.073344
vt 6.480891 6.536969
vt 6.579105 7.609621
vt 6.494210 5.668767
vt 6.471320 4.314006
vt 6.536169 7.631245
vt 6.486200 5.237889
vt 6.464891 7.030226
vt 6.450551 6.597199
vt 6.479988 7.089656
vt 6.557835 4.750609
vt 6.491237 6.126603
vt 6.634340 7.905376
vt 6.508494 7.331160
vt 6.472875 7.258708
vt 6.451691 6.831078
vt 6.471569 5.021025
vt 6.463440 4.784275
vt 6.512346 5.434545
vt 6.488723 7.463935
vt 6.534000 4.976519
vt 6.517933 5.215652
vt 6.557315 7.767449
vt 6.555251 4.539994
vt 6.495632 5.669458
vt 6.441826 6.814672
vt 6.439120 6.342811
vt 6.452527 5.914032
vt 6.543680 4.029215
vt 6.538764 4.291571
vt 6.431291 6.142191
vt 6.486129 7.479547
vt 6.511518 7.775700
vt 6.442220 5.877415
vt 6.385147 6.991570
vt 6.404019 7.610619
vt 6.362140 4.053528
vt 6.406556 7.931747
vt 6.337727 4.287835
vt 6.324639 7.532219
vt 6.270517 4.317659
vt 6.268583 6.342420
vt 6.279521 7.130426
vt 6.305389 5.208894
vt 6.278022 5.222223
vt 6.260349 6.832974
vt 6.263144 6.785507
vt 6.299806 4.743929
vt 6.292483 4.504302
vt 6.247412 4.107831
vt 6.290865 7.650494
vt 6.262089 5.471875
vt 6.273545 7.321636
vt 6.273475 5.670572
vt 6.266134 7.501090
vt 6.251898 5.703981
vt 6.249263 5.924994
vt 6.238624 7.028863
vt 6.246254 7.280517
vt 6.266878 5.418671
vt 6.230632 6.593912
vt 6.242552 6.554601
vt 6.241870 5.016959
vt 6.237623 4.786464
vt 6.294980 7.820393
vt 6.252248 6.109936
vt 6.255765 5.868823
vt 6.233690 6.150066
vt 6.230351 4.540681
vt 6.250278 4.967298
vt 6.222001 7.031195
vt 6.228893 6.321807
vt 6.219760 4.042244
vt 6.192517 4.204160
vt 6.178168 4.337949
vt 6.083815 4.299612
vt 6.070349 4.483798
vt 6.067348 4.741929
vt 6.051763 6.380065
vt 6.051526 6.094631
vt 6.035594 5.901802
vt 6.046798 5.855877
vt 6.033504 5.225441
vt 6.037090 6.777668
vt 6.030316 4.107055
vt 6.034041 7.516523
vt 6.028564 4.331137
vt 6.036212 7.834535
vt 6.028040 5.474028
vt 6.034860 4.046552
vt 6.026554 6.114200
vt 6.027985 7.055377
vt 6.028321 7.276538
vt 6.026084 5.008024
vt 6.039128 5.217596
vt 6.024912 6.606365
vt 6.025896 7.167550
vt 6.038792 5.407797
vt 6.025410 7.042059
vt 6.023457 6.842787
vt 6.022431 5.697100
vt 6.018329 4.529796
vt 6.015947 4.781921
vt 6.020505 6.550736
vt 6.016094 7.333336
vt 6.027074 5.641609
vt 6.023968 4.957264
vt 6.018971 6.306999
vt 6.012040 7.510675
vt 6.009813 7.660408
vt 5.963491 4.540957
vt 5.951779 4.326283
vt 5.899787 3.955818
vt 5.894707 7.146701
vt 5.830995 5.916260
vt 5.834986 7.037980
vt 5.829108 4.098415
vt 5.796901 4.283983
vt 5.812027 5.462003
vt 5.801054 7.343829
vt 5.800582 7.509505
vt 5.806585 5.002835
vt 5.754829 7.825286
vt 5.780378 7.508750
vt 5.814498 6.371181
vt 5.806955 5.681244
vt 5.783638 4.514312
vt 5.800895 7.294858
vt 5.777090 4.052956
vt 5.812462 6.539529
vt 5.808772 7.035453
vt 5.806954 6.603759
vt 5.807858 6.815787
vt 5.787776 5.673004
vt 5.791326 5.427335
vt 5.801246 6.823584
vt 5.764769 7.657346
vt 5.794236 5.897058
vt 5.773914 4.765655
vt 5.791944 4.565709
vt 5.787704 6.138074
vt 5.783741 7.152025
vt 5.774611 4.956039
vt 5.793406 6.113196
vt 5.780346 5.240206
vt 5.785286 4.788555
vt 5.793552 6.363083
vt 5.787839 4.339971
vt 5.763412 5.196698
vt 5.648986 7.948883
vt 5.716628 7.150729
vt 5.639561 7.610956
vt 5.663442 6.967019
vt 5.588510 7.501391
vt 5.597834 5.238705
vt 5.613288 4.075909
vt 5.601719 4.566913
vt 5.583390 5.890019
vt 5.584923 5.875670
vt 5.555344 4.522936
vt 5.572619 5.231791
vt 5.566365 4.984151
vt 5.507968 7.771033
vt 5.592336 6.344759
vt 5.594991 4.341051
vt 5.580120 7.086965
vt 5.599027 7.012430
vt 5.552121 7.325301
vt 5.535461 4.281167
vt 5.579164 4.769144
vt 5.591378 6.820901
vt 5.573747 7.265932
vt 5.554970 7.470131
vt 5.594802 6.606261
vt 5.572980 6.115124
vt 5.568257 5.002772
vt 5.523339 7.635045
vt 5.495801 7.779035
vt 5.537306 4.771032
vt 5.556181 5.689450
vt 5.555247 5.649800
vt 5.552544 5.462289
vt 5.562464 6.124031
vt 5.485072 7.605530
vt 5.511458 4.051450
vt 5.570075 7.137855
vt 5.417849 7.910092
vt 5.580574 6.803749
vt 5.543679 5.416011
vt 5.563649 6.387151
vt 5.556255 6.563334
vt 5.360938 7.770140
vt 5.489173 6.939001
vt 5.412684 7.428440
vt 5.356109 7.738789
vt 5.311924 7.807197
vt 5.343244 4.257845
vt 5.319173 4.073944
vt 5.368041 6.144736
vt 5.355969 4.959370
vt 5.344940 5.898456
vt 5.397910 6.336191
vt 5.358440 5.685910
vt 5.403955 6.569986
vt 5.411205 6.776515
vt 5.386016 6.120845
vt 5.318145 4.529707
vt 5.365962 7.432104
vt 5.391969 6.375638
vt 5.340652 5.197137
vt 5.401807 6.984903
vt 5.361752 5.889090
vt 5.404696 6.782031
vt 5.308016 4.722830
vt 5.336902 5.451840
vt 5.329644 7.269154
vt 5.267252 7.569674
vt 5.330565 5.651920
vt 5.369425 4.551685
vt 5.331821 5.265603
vt 5.319364 5.458086
vt 5.341629 7.089632
vt 5.356828 4.750985
vt 5.381765 6.592273
vt 5.366308 4.314102
vt 5.283122 7.576696
vt 5.354878 4.093479
vt 5.324130 7.276047
vt 5.168451 7.782791
vt 5.265529 7.386004
vt 5.340666 6.879474
vt 5.157141 5.930490
vt 5.309350 5.016491
vt 5.137184 5.708039
vt 5.167987 5.929517
vt 5.134285 4.046222
vt 5.140013 6.116810
vt 5.226870 6.346398
vt 5.104854 5.473972
vt 5.309658 7.051997
vt 5.152159 4.284792
vt 5.262085 6.495273
vt 5.201999 6.121108
vt 5.120647 5.703605
vt 5.187681 4.757829
vt 5.245057 7.427852
vt 5.113781 5.266796
vt 5.195903 5.026299
vt 5.147531 4.541125
vt 4.956882 5.742254
vt 4.906109 5.480957
vt 5.235265 6.386574
vt 5.189682 5.227125
vt 5.103533 5.487290
vt 4.974290 5.858442
vt 5.257476 6.850053
vt 5.112796 5.034572
vt 4.946232 5.419190
vt 4.892938 5.323761
vt 5.105700 4.938898
vt 5.051718 5.396998
vt 4.842291 5.259680
vt 4.992018 4.996043
vt 4.977472 4.128764
vt 5.190704 4.717554
vt 5.203863 4.553365
vt 5.060646 5.207989
vt 5.000638 4.339518
vt 4.825783 5.742032
vt 4.963307 5.740594
vt 5.048472 4.998940
vt 5.210731 4.082997
vt 5.191095 4.318065
vt 5.012060 5.980429
vt 5.040167 4.774172
vt 5.015832 6.200738
vt 4.827085 5.248484
vt 4.820418 5.003944
vt 4.991299 4.562178
vt 5.015510 4.774738
vt 4.843866 5.014609
vt 5.055512 7.500409
vt 5.066864 7.509604
vt 4.861961 5.976744
vt 5.018594 6.223902
vt 4.818915 5.534239
vt 5.101175 7.216348
vt 5.111415 7.238584
vt 5.157405 6.839896
vt 5.067527 6.444197
vt 4.605591 5.482560
vt 4.832044 5.725928
vt 5.065333 7.352712
vt 4.813764 4.768048
vt 5.022855 4.525871
vt 4.825312 4.779168
vt 4.603066 5.256913
vt 4.781465 4.037157
vt 4.600411 5.719154
vt 5.121941 6.822072
vt 5.103552 7.060440
vt 5.107126 7.057317
vt 4.933012 7.651299
vt 4.594104 5.018129
vt 4.821736 5.977743
vt 5.084091 6.595266
vt 5.125345 6.589743
vt 5.008554 6.386058
vt 4.585072 4.771163
vt 4.807125 4.553307
vt 4.841677 6.174495
vt 4.589596 5.969528
vt 5.012012 4.326625
vt 4.760727 4.538442
vt 4.574813 4.522164
vt 4.790395 4.320025
vt 4.809798 6.222511
vt 5.000049 7.367199
vt 5.009915 4.113052
vt 4.572650 6.261032
vt 4.806615 4.315974
vt 4.579758 4.025878
vt 4.817737 6.440137
vt 4.562804 4.321777
vt 4.845618 6.416699
vt 4.857174 4.152585
vt 4.572580 6.407789
vt 4.686218 4.176784
vt 4.974905 7.154119
vt 4.662779 4.084965
vt 4.783009 4.052707
vt 4.637203 6.372218
vt 4.958839 6.653137
vt 4.632148 6.355104
vt 4.807953 7.507865
vt 4.924425 7.005747
vt 4.923280 6.841690
vt 4.914265 7.025525
vt 4.868925 6.601326
vt 4.932862 6.794376
vt 4.909664 7.136220
vt 4.827682 6.319468
vt 4.822333 7.297103
vt 4.718025 6.465239
vt 4.818933 7.288105
vt 4.867769 7.422519
vt 4.529161 6.266585
vt 4.935918 6.534875
vt 4.679212 7.471331
vt 4.982947 6.312562
vt 4.808098 7.058278
vt 4.817493 6.826471
vt 4.732209 6.209899
vt 4.663745 6.264029
vt 4.794394 7.069637
vt 4.644478 7.215520
vt 4.673020 7.201591
vt 4.764530 6.767124
vt 4.522594 7.313341
vt 4.513292 6.075182
vt 4.745266 6.032930
vt 4.595823 7.030231
vt 4.830615 6.289428
vt 4.805182 6.319735
vt 4.746568 6.526394
vt 4.618341 6.797733
vt 4.676256 6.536889
vt 4.697944 6.105552
vt 4.613588 7.004998
vt 4.863553 6.101897
vt 4.640812 6.759312
vt 4.507460 5.947254
vt 4.784643 5.879420
vt 4.411123 7.116197
vt 4.618544 5.938185
vt 4.627908 6.576391
vt 4.814309 5.993768
vt 4.464710 6.916672
vt 4.346437 6.974874
vt 4.617066 6.420971
vt 4.791351 6.051079
vt 4.706603 5.879084
vt 4.419196 6.730829
vt 4.464655 6.728935
vt 4.776478 5.995848
vt 4.283370 6.781166
vt 4.680025 6.071496
vt 4.594949 6.237129
vt 4.601197 6.254772
vt 4.438967 6.472774
vt 4.469010 6.494901
vt 4.245258 6.555543
vt 4.489261 6.285136
vt 4.524038 6.179351
vt 4.511491 6.112560
vt 4.545861 6.036637
vt 4.347386 6.391619
vt 4.205059 6.401182
vt 4.382738 6.180970
vt 4.434426 6.030490
vt 4.352882 6.179621
vt 4.412509 6.033470
vt 4.178287 6.190656
vt 4.268967 6.013968
vt 4.230272 6.019329
vt 4.142106 6.044193
f 397/397 373/373 333/333
f 388/388 394/394 397/397
f 248/248 275/275 243/243
f 213/213 233/233 223/223
f 394/394 334/334 364/364
f 446/446 474/474 508/508
f 73/73 72/72 75/75
f 203/203 224/224 213/213
f 103/103 96/96 104/104
f 306/306 342/342 346/346
f 98/98 90/90 119/119
f 330/330 307/307 352/352
f 111/111 60/60 63/63
f 224/224 250/250 242/242
f 404/404 394/394 378/378
f 180/180 213/213 204/204
f 375/375 366/366 437/437
f 536/536 538/538 531/531
f 220/220 176/176 207/207
f 524/524 531/531 525/525
f 224/224 220/220 263/263
f 499/499 548/548 511/511
f 402/402 394/394 427/427
f 503/503 513/513 492/492
f 176/176 181/181 111/111
f 540/540 534/534 538/538
f 457/457 430/430 443/443
f 426/426 440/440 404/404
f 426/426 503/503 440/440
f 170/170 224/224 203/203
f 511/511 539/539 497/497
f 511/511 497/497 432/432
f 91/91 114/114 78/78
f 297/297 295/295 358/358
f 376/376 378/378 352/352
f 432/432 403/403 441/441
f 307/307 330/330 315/315
f 352/352 309/309 326/326
f 441/441 403/403 381/381
f 169/169 167/167 88/88
f 107/107 146/146 169/169
f 126/126 125/125 177/177
f 468/468 496/496 449/449
f 534/534 531/531 538/538
f 211/211 251/251 215/215
f 327/327 366/366 358/358
f 432/432 426/426 376/376
f 415/415 384/384 434/434
f 441/441 381/381 415/415
f 253/253 315/315 263/263
f 177/177 125/125 171/171
f 529/529 531/531 523/523
f 99/99 120/120 123/123
f 211/211 260/260 251/251
f 215/215 251/251 279/279
f 297/297 251/251 260/260
f 167/167 226/226 207/207
f 126/126 114/114 91/91
f 483/483 437/437 482/482
f 483/483 482/482 529/529
f 523/523 505/505 483/483
f 506/506 505/505 524/524
f 433/433 476/476 475/475
f 505/505 485/485 475/475
f 443/443 433/433 475/475
f 491/491 485/485 506/506
f 501/501 496/496 507/507
f 177/177 166/166 126/126
f 126/126 124/124 114/114
f 121/121 89/89 93/93
f 123/123 93/93 99/99
f 211/211 177/177 171/171
f 327/327 358/358 295/295
f 515/515 527/527 484/484
f 226/226 256/256 281/281
f 137/137 159/159 130/130
f 310/310 256/256 306/306
f 462/462 409/409 495/495
f 335/335 384/384 342/342
f 335/335 400/400 384/384
f 434/434 384/384 400/400
f 517/517 434/434 500/500
f 120/120 99/99 103/103
f 114/114 124/124 135/135
f 131/131 136/136 120/120
f 114/114 92/92 78/78
f 166/166 177/177 209/209
f 365/365 430/430 392/392
f 279/279 228/228 209/209
f 273/273 313/313 304/304
f 130/130 117/117 102/102
f 209/209 228/228 163/163
f 273/273 227/227 274/274
f 356/356 332/332 304/304
f 392/392 430/430 425/425
f 462/462 500/500 434/434
f 419/419 400/400 393/393
f 484/484 495/495 453/453
f 411/411 444/444 445/445
f 484/484 480/480 515/515
f 480/480 484/484 445/445
f 266/266 214/214 262/262
f 413/413 390/390 392/392
f 390/390 368/368 344/344
f 329/329 392/392 344/344
f 344/344 325/325 311/311
f 182/182 237/237 219/219
f 182/182 169/169 146/146
f 131/131 142/142 136/136
f 163/163 166/166 209/209
f 123/123 120/120 151/151
f 196/196 187/187 210/210
f 299/299 293/293 329/329
f 311/311 266/266 299/299
f 325/325 291/291 311/311
f 238/238 241/241 198/198
f 198/198 241/241 183/183
f 262/262 299/299 266/266
f 238/238 267/267 278/278
f 278/278 267/267 301/301
f 219/219 237/237 271/271
f 166/166 135/135 124/124
f 157/157 228/228 227/227
f 157/157 174/174 142/142
f 151/151 187/187 164/164
f 4/4 1/1 3/3
f 5/5 3/3 2/2
f 27/27 35/35 33/33
f 16/16 10/10 7/7
f 62/62 74/74 54/54
f 46/46 39/39 49/49
f 44/44 53/53 43/43
f 55/55 62/62 53/53
f 52/52 45/45 60/60
f 10/10 19/19 5/5
f 61/61 47/47 58/58
f 56/56 80/80 67/67
f 42/42 30/30 45/45
f 45/45 30/30 39/39
f 15/15 23/23 26/26
f 13/13 20/20 18/18
f 25/25 30/30 18/18
f 56/56 50/50 41/41
f 16/16 33/33 19/19
f 48/48 45/45 52/52
f 4/4 6/6 17/17
f 31/31 38/38 59/59
f 18/18 15/15 11/11
f 26/26 23/23 31/31
f 8/8 11/11 6/6
f 20/20 28/28 32/32
f 8/8 9/9 13/13
f 38/38 42/42 51/51
f 581/581 579/579 568/568
f 560/560 533/533 552/552
f 613/613 608/608 611/611
f 610/610 595/595 598/598
f 552/552 557/557 563/563
f 548/548 550/550 568/568
f 567/567 569/569 555/555
f 579/579 555/555 565/565
f 594/594 581/581 601/601
f 568/568 558/558 575/575
f 563/563 571/571 552/552
f 594/594 596/596 588/588
f 611/611 603/603 599/599
f 589/589 584/584 588/588
f 576/576 577/577 562/562
f 599/599 605/605 604/604
f 572/572 566/566 569/569
f 601/601 575/575 590/590
f 590/590 574/574 599/599
f 572/572 589/589 593/593
f 593/593 600/600 576/576
f 598/598 595/595 573/573
f 609/609 608/608 613/613
f 616/616 614/614 613/613
f 580/580 571/571 583/583
f 583/583 571/571 570/570
f 606/606 612/612 605/605
f 611/611 615/615 613/613
f 592/592 585/585 578/578
f 582/582 570/570 585/585
f 614/614 610/610 613/613
f 379/379 339/339 328/328
f 534/534 526/526 525/525
f 532/532 534/534 540/540
f 507/507 514/514 488/488
f 373/373 347/347 333/333
f 395/395 339/339 379/379
f 478/478 474/474 451/451
f 230/230 261/261 265/265
f 261/261 298/298 320/320
f 402/402 439/439 397/397
f 240/240 201/201 234/234
f 73/73 75/75 95/95
f 73/73 95/95 113/113
f 223/223 175/175 204/204
f 64/64 66/66 68/68
f 286/286 322/322 300/300
f 240/240 206/206 205/205
f 249/249 285/285 286/286
f 249/249 247/247 240/240
f 513/513 559/559 528/528
f 519/519 525/525 520/520
f 477/477 471/471 472/472
f 478/478 526/526 508/508
f 417/417 407/407 379/379
f 379/379 408/408 395/395
f 275/275 216/216 243/243
f 528/528 553/553 498/498
f 118/118 128/128 101/101
f 101/101 100/100 82/82
f 105/105 112/112 66/66
f 320/320 298/298 333/333
f 513/513 436/436 439/439
f 179/179 240/240 205/205
f 417/417 451/451 407/407
f 287/287 321/321 322/322
f 96/96 103/103 101/101
f 407/407 451/451 408/408
f 57/57 110/110 85/85
f 240/240 259/259 249/249
f 259/259 234/234 258/258
f 321/321 337/337 322/322
f 317/317 353/353 349/349
f 349/349 389/389 370/370
f 370/370 337/337 349/349
f 521/521 535/535 530/530
f 89/89 106/106 116/116
f 77/77 108/108 109/109
f 510/510 547/547 543/543
f 69/69 105/105 66/66
f 417/417 379/379 370/370
f 320/320 331/331 296/296
f 373/373 436/436 387/387
f 288/288 259/259 258/258
f 389/389 417/417 370/370
f 535/535 544/544 537/537
f 143/143 133/133 116/116
f 504/504 488/488 519/519
f 173/173 178/178 85/85
f 160/160 148/148 83/83
f 64/64 68/68 83/83
f 112/112 83/83 68/68
f 387/387 331/331 347/347
f 450/450 438/438 512/512
f 418/418 438/438 383/383
f 377/377 438/438 421/421
f 512/512 510/510 450/450
f 466/466 510/510 516/516
f 504/504 489/489 490/490
f 460/460 465/465 479/479
f 116/116 133/133 93/93
f 83/83 108/108 77/77
f 338/338 341/341 324/324
f 414/414 452/452 448/448
f 554/554 535/535 549/549
f 80/80 94/94 76/76
f 143/143 150/150 147/147
f 101/101 128/128 100/100
f 127/127 132/132 134/134
f 303/303 324/324 302/302
f 149/149 185/185 193/193
f 231/231 194/194 232/232
f 199/199 161/161 152/152
f 168/168 161/161 221/221
f 108/108 148/148 154/154
f 377/377 398/398 343/343
f 221/221 234/234 168/168
f 288/288 349/349 321/321
f 414/414 423/423 516/516
f 454/454 464/464 428/428
f 461/461 454/454 460/460
f 454/454 461/461 464/464
f 454/454 428/428 422/422
f 442/442 454/454 422/422
f 232/232 185/185 229/229
f 138/138 134/134 132/132
f 377/377 421/421 423/423
f 305/305 270/270 308/308
f 412/412 401/401 414/414
f 398/398 423/423 401/401
f 232/232 254/254 231/231
f 197/197 188/188 162/162
f 343/343 294/294 341/341
f 294/294 257/257 268/268
f 461/461 469/469 471/471
f 423/423 414/414 401/401
f 264/264 277/277 292/292
f 208/208 272/272 282/282
f 292/292 316/316 264/264
f 353/353 317/317 305/305
f 463/463 477/477 458/458
f 314/314 340/340 357/357
f 372/372 410/410 389/389
f 314/314 318/318 272/272
f 314/314 357/357 318/318
f 290/290 318/318 354/354
f 354/354 357/357 374/374
f 374/374 412/412 385/385
f 401/401 357/357 340/340
f 277/277 276/276 290/290
f 282/282 290/290 276/276
f 277/277 290/290 292/292
f 282/282 276/276 222/222
f 292/292 336/336 316/316
f 106/106 165/165 145/145
f 156/156 106/106 122/122
f 197/197 208/208 188/188
f 162/162 109/109 108/108
f 197/197 212/212 208/208
f 153/153 145/145 165/165
f 244/244 264/264 235/235
f 154/154 148/148 190/190
f 192/192 148/148 160/160
f 269/269 268/268 218/218
f 236/236 192/192 218/218
f 192/192 195/195 218/218
f 455/455 489/489 459/459
f 481/481 455/455 458/458
f 122/122 80/80 109/109
f 371/371 420/420 372/372
f 372/372 420/420 410/410
f 420/420 458/458 410/410
f 399/399 345/345 391/391
f 345/345 308/308 336/336
f 399/399 431/431 420/420
f 360/360 397/397 333/333
f 394/394 402/402 397/397
f 223/223 248/248 243/243
f 223/223 204/204 213/213
f 315/315 319/319 250/250
f 334/334 319/319 315/315
f 242/242 250/250 213/213
f 213/213 250/250 246/246
f 315/315 250/250 263/263
f 330/330 334/334 315/315
f 394/394 362/362 334/334
f 339/339 323/323 300/300
f 529/529 541/541 536/536
f 213/213 224/224 242/242
f 75/75 72/72 78/78
f 120/120 103/103 104/104
f 558/558 550/550 517/517
f 310/310 306/306 346/346
f 92/92 104/104 96/96
f 92/92 96/96 82/82
f 63/63 61/61 111/111
f 98/98 71/71 90/90
f 75/75 92/92 82/82
f 91/91 78/78 79/79
f 81/81 74/74 76/76
f 102/102 84/84 86/86
f 167/167 111/111 97/97
f 84/84 74/74 81/81
f 427/427 440/440 503/503
f 119/119 90/90 170/170
f 550/550 499/499 517/517
f 98/98 119/119 180/180
f 224/224 263/263 250/250
f 404/404 427/427 394/394
f 90/90 71/71 60/60
f 394/394 364/364 378/378
f 180/180 175/175 98/98
f 503/503 497/497 555/555
f 175/175 180/180 204/204
f 97/97 111/111 61/61
f 511/511 548/548 539/539
f 483/483 435/435 437/437
f 207/207 176/176 167/167
f 525/525 531/531 534/534
f 541/541 540/540 538/538
f 492/492 513/513 427/427
f 263/263 220/220 253/253
f 519/519 514/514 506/506
f 499/499 550/550 548/548
f 378/378 364/364 334/334
f 439/439 402/402 427/427
f 427/427 513/513 439/439
f 503/503 545/545 513/513
f 551/551 548/548 555/555
f 533/533 530/530 537/537
f 495/495 533/533 500/500
f 60/60 111/111 87/87
f 530/530 533/533 527/527
f 495/495 484/484 527/527
f 330/330 378/378 334/334
f 97/97 61/61 58/58
f 167/167 97/97 88/88
f 88/88 74/74 107/107
f 503/503 555/555 545/545
f 441/441 499/499 511/511
f 527/527 533/533 495/495
f 88/88 97/97 58/58
f 74/74 117/117 107/107
f 517/517 499/499 434/434
f 517/517 500/500 533/533
f 213/213 170/170 203/203
f 155/155 183/183 117/117
f 84/84 81/81 86/86
f 180/180 170/170 213/213
f 74/74 84/84 117/117
f 312/312 350/350 356/356
f 378/378 426/426 404/404
f 404/404 440/440 427/427
f 497/497 426/426 432/432
f 426/426 497/497 503/503
f 346/346 363/363 326/326
f 432/432 441/441 511/511
f 180/180 119/119 170/170
f 503/503 492/492 427/427
f 522/522 530/530 527/527
f 527/527 515/515 522/522
f 170/170 181/181 224/224
f 253/253 281/281 307/307
f 111/111 167/167 176/176
f 497/497 539/539 555/555
f 87/87 90/90 60/60
f 181/181 90/90 87/87
f 170/170 90/90 181/181
f 111/111 181/181 87/87
f 375/375 437/437 435/435
f 536/536 541/541 538/538
f 514/514 491/491 506/506
f 352/352 378/378 330/330
f 352/352 307/307 309/309
f 352/352 363/363 376/376
f 381/381 376/376 363/363
f 363/363 346/346 381/381
f 384/384 381/381 346/346
f 403/403 376/376 381/381
f 352/352 326/326 363/363
f 346/346 342/342 384/384
f 434/434 499/499 441/441
f 441/441 415/415 434/434
f 403/403 432/432 376/376
f 226/226 167/167 186/186
f 220/220 224/224 181/181
f 220/220 181/181 176/176
f 72/72 79/79 78/78
f 79/79 125/125 91/91
f 89/89 121/121 115/115
f 115/115 102/102 89/89
f 89/89 102/102 86/86
f 215/215 279/279 209/209
f 509/509 522/522 515/515
f 376/376 426/426 378/378
f 415/415 381/381 384/384
f 310/310 281/281 256/256
f 315/315 253/253 307/307
f 307/307 281/281 309/309
f 310/310 309/309 281/281
f 346/346 326/326 310/310
f 226/226 186/186 169/169
f 226/226 169/169 219/219
f 78/78 92/92 75/75
f 91/91 125/125 126/126
f 529/529 536/536 531/531
f 483/483 529/529 523/523
f 123/123 121/121 93/93
f 367/367 375/375 435/435
f 515/515 502/502 509/509
f 253/253 220/220 245/245
f 245/245 220/220 226/226
f 326/326 309/309 310/310
f 92/92 114/114 104/104
f 367/367 435/435 429/429
f 524/524 523/523 531/531
f 476/476 483/483 505/505
f 483/483 476/476 429/429
f 505/505 475/475 476/476
f 476/476 433/433 429/429
f 524/524 505/505 523/523
f 473/473 467/467 485/485
f 457/457 491/491 487/487
f 467/467 470/470 485/485
f 470/470 443/443 485/485
f 457/457 467/467 491/491
f 485/485 491/491 473/473
f 366/366 375/375 358/358
f 487/487 491/491 514/514
f 507/507 487/487 514/514
f 519/519 506/506 525/525
f 524/524 525/525 506/506
f 115/115 121/121 159/159
f 487/487 507/507 496/496
f 509/509 496/496 501/501
f 496/496 509/509 502/502
f 226/226 220/220 207/207
f 166/166 124/124 126/126
f 121/121 164/164 159/159
f 144/144 121/121 123/123
f 215/215 209/209 177/177
f 297/297 358/358 312/312
f 260/260 295/295 297/297
f 350/350 312/312 358/358
f 502/502 515/515 480/480
f 449/449 496/496 502/502
f 245/245 226/226 281/281
f 253/253 245/245 281/281
f 443/443 475/475 485/485
f 137/137 115/115 159/159
f 155/155 117/117 158/158
f 130/130 159/159 158/158
f 177/177 211/211 215/215
f 297/297 312/312 251/251
f 449/449 502/502 480/480
f 470/470 467/467 443/443
f 457/457 425/425 430/430
f 449/449 457/457 468/468
f 491/491 467/467 473/473
f 487/487 468/468 457/457
f 467/467 457/457 443/443
f 449/449 425/425 457/457
f 306/306 256/256 271/271
f 342/342 306/306 335/335
f 351/351 393/393 335/335
f 434/434 400/400 419/419
f 335/335 393/393 400/400
f 462/462 434/434 419/419
f 131/131 114/114 135/135
f 142/142 131/131 163/163
f 274/274 279/279 313/313
f 251/251 312/312 279/279
f 380/380 433/433 443/443
f 164/164 121/121 141/141
f 279/279 274/274 228/228
f 279/279 312/312 313/313
f 351/351 368/368 393/393
f 409/409 453/453 495/495
f 313/313 312/312 356/356
f 350/350 375/375 367/367
f 350/350 358/358 375/375
f 115/115 130/130 102/102
f 137/137 130/130 115/115
f 237/237 183/183 241/241
f 117/117 130/130 158/158
f 84/84 102/102 117/117
f 144/144 141/141 121/121
f 228/228 274/274 227/227
f 273/273 274/274 313/313
f 227/227 273/273 255/255
f 304/304 332/332 293/293
f 356/356 304/304 313/313
f 332/332 356/356 386/386
f 273/273 304/304 255/255
f 293/293 299/299 255/255
f 413/413 392/392 425/425
f 392/392 329/329 355/355
f 409/409 462/462 419/419
f 462/462 495/495 500/500
f 429/429 435/435 483/483
f 380/380 386/386 356/356
f 380/380 356/356 367/367
f 350/350 367/367 356/356
f 293/293 332/332 355/355
f 411/411 445/445 453/453
f 411/411 453/453 409/409
f 368/368 411/411 409/409
f 484/484 453/453 445/445
f 411/411 413/413 444/444
f 444/444 480/480 445/445
f 411/411 390/390 413/413
f 425/425 449/449 444/444
f 480/480 444/444 449/449
f 444/444 413/413 425/425
f 367/367 433/433 380/380
f 433/433 367/367 429/429
f 386/386 380/380 443/443
f 355/355 386/386 365/365
f 386/386 355/355 332/332
f 419/419 393/393 409/409
f 409/409 393/393 368/368
f 365/365 392/392 355/355
f 344/344 368/368 325/325
f 238/238 198/198 214/214
f 411/411 368/368 390/390
f 351/351 325/325 368/368
f 386/386 443/443 430/430
f 430/430 365/365 386/386
f 329/329 344/344 311/311
f 351/351 301/301 325/325
f 392/392 390/390 344/344
f 355/355 329/329 293/293
f 88/88 107/107 169/169
f 169/169 186/186 167/167
f 117/117 183/183 107/107
f 182/182 219/219 169/169
f 256/256 219/219 271/271
f 219/219 256/256 226/226
f 107/107 183/183 146/146
f 198/198 183/183 155/155
f 155/155 158/158 198/198
f 146/146 183/183 182/182
f 505/505 506/506 485/485
f 468/468 487/487 496/496
f 104/104 131/131 120/120
f 114/114 131/131 104/104
f 142/142 163/163 157/157
f 135/135 166/166 163/163
f 131/131 135/135 163/163
f 120/120 136/136 142/142
f 120/120 142/142 151/151
f 141/141 144/144 164/164
f 123/123 151/151 144/144
f 144/144 151/151 164/164
f 335/335 306/306 289/289
f 214/214 198/198 196/196
f 196/196 159/159 164/164
f 187/187 196/196 164/164
f 196/196 198/198 158/158
f 196/196 158/158 159/159
f 210/210 187/187 217/217
f 210/210 214/214 196/196
f 262/262 214/214 210/210
f 262/262 255/255 299/299
f 238/238 214/214 266/266
f 304/304 293/293 255/255
f 311/311 299/299 329/329
f 335/335 289/289 301/301
f 301/301 351/351 335/335
f 237/237 241/241 252/252
f 252/252 241/241 278/278
f 182/182 183/183 237/237
f 301/301 291/291 325/325
f 291/291 301/301 267/267
f 267/267 266/266 291/291
f 241/241 238/238 278/278
f 266/266 267/267 238/238
f 289/289 306/306 271/271
f 289/289 278/278 301/301
f 252/252 289/289 271/271
f 289/289 252/252 278/278
f 271/271 237/237 252/252
f 291/291 266/266 311/311
f 217/217 187/187 174/174
f 163/163 228/228 157/157
f 255/255 217/217 227/227
f 217/217 157/157 227/227
f 217/217 174/174 157/157
f 151/151 142/142 174/174
f 187/187 151/151 174/174
f 217/217 255/255 262/262
f 262/262 210/210 217/217
f 22/22 29/29 34/34
f 16/16 21/21 33/33
f 4/4 3/3 6/6
f 29/29 17/17 37/37
f 29/29 37/37 44/44
f 34/34 29/29 44/44
f 29/29 22/22 17/17
f 2/2 7/7 5/5
f 2/2 3/3 1/1
f 7/7 10/10 5/5
f 43/43 34/34 44/44
f 33/33 35/35 43/43
f 34/34 43/43 35/35
f 21/21 27/27 33/33
f 55/55 44/44 37/37
f 37/37 50/50 55/55
f 47/47 39/39 32/32
f 54/54 74/74 88/88
f 76/76 55/55 67/67
f 38/38 51/51 64/64
f 54/54 88/88 58/58
f 60/60 46/46 49/49
f 47/47 61/61 63/63
f 63/63 49/49 47/47
f 44/44 55/55 53/53
f 76/76 74/74 70/70
f 63/63 60/60 49/49
f 10/10 16/16 19/19
f 5/5 19/19 12/12
f 36/36 47/47 32/32
f 47/47 49/49 39/39
f 28/28 36/36 32/32
f 36/36 58/58 47/47
f 36/36 19/19 40/40
f 36/36 40/40 58/58
f 67/67 80/80 76/76
f 67/67 55/55 56/56
f 55/55 50/50 56/56
f 39/39 30/30 25/25
f 39/39 25/25 18/18
f 19/19 33/33 40/40
f 48/48 42/42 45/45
f 46/46 45/45 39/39
f 45/45 46/46 60/60
f 76/76 70/70 55/55
f 62/62 55/55 70/70
f 62/62 70/70 74/74
f 43/43 53/53 62/62
f 40/40 33/33 43/43
f 40/40 43/43 62/62
f 54/54 40/40 62/62
f 20/20 39/39 18/18
f 32/32 39/39 20/20
f 31/31 15/15 26/26
f 11/11 13/13 18/18
f 18/18 30/30 42/42
f 37/37 17/17 14/14
f 41/41 50/50 37/37
f 59/59 41/41 31/31
f 8/8 3/3 5/5
f 51/51 42/42 57/57
f 57/57 42/42 48/48
f 58/58 40/40 54/54
f 23/23 18/18 42/42
f 42/42 38/38 23/23
f 56/56 41/41 59/59
f 13/13 9/9 5/5
f 9/9 8/8 5/5
f 57/57 48/48 52/52
f 13/13 19/19 24/24
f 64/64 59/59 38/38
f 17/17 6/6 14/14
f 15/15 31/31 41/41
f 14/14 15/15 41/41
f 37/37 14/14 41/41
f 6/6 15/15 14/14
f 12/12 19/19 13/13
f 28/28 13/13 24/24
f 5/5 12/12 13/13
f 31/31 23/23 38/38
f 6/6 11/11 15/15
f 18/18 23/23 15/15
f 8/8 6/6 3/3
f 36/36 28/28 24/24
f 19/19 36/36 24/24
f 28/28 20/20 13/13
f 13/13 11/11 8/8
f 542/542 537/537 557/557
f 557/557 570/570 571/571
f 560/560 517/517 533/533
f 571/571 580/580 574/574
f 571/571 574/574 560/560
f 565/565 555/555 548/548
f 557/557 552/552 542/542
f 542/542 552/552 533/533
f 554/554 564/564 544/544
f 548/548 568/568 579/579
f 568/568 550/550 558/558
f 566/566 553/553 569/569
f 555/555 569/569 559/559
f 563/563 557/557 571/571
f 576/576 561/561 572/572
f 533/533 537/537 542/542
f 558/558 517/517 560/560
f 548/548 579/579 565/565
f 579/579 567/567 555/555
f 574/574 575/575 558/558
f 564/564 578/578 557/557
f 552/552 571/571 560/560
f 560/560 574/574 558/558
f 599/599 574/574 597/597
f 574/574 580/580 597/597
f 588/588 596/596 589/589
f 604/604 611/611 599/599
f 572/572 584/584 589/589
f 567/567 579/579 569/569
f 559/559 569/569 553/553
f 579/579 581/581 594/594
f 601/601 586/586 575/575
f 586/586 581/581 575/575
f 584/584 569/569 579/579
f 588/588 584/584 579/579
f 611/611 608/608 607/607
f 572/572 561/561 553/553
f 576/576 600/600 577/577
f 547/547 546/546 562/562
f 549/549 562/562 577/577
f 570/570 557/557 578/578
f 599/599 597/597 605/605
f 604/604 605/605 611/611
f 584/584 572/572 569/569
f 566/566 572/572 553/553
f 581/581 586/586 601/601
f 599/599 603/603 601/601
f 607/607 601/601 611/611
f 601/601 590/590 599/599
f 590/590 575/575 574/574
f 579/579 594/594 588/588
f 576/576 572/572 593/593
f 593/593 589/589 596/596
f 562/562 561/561 576/576
f 593/593 602/602 600/600
f 598/598 609/609 610/610
f 600/600 609/609 598/598
f 573/573 577/577 598/598
f 600/600 602/602 608/608
f 596/596 602/602 593/593
f 549/549 577/577 573/573
f 573/573 554/554 549/549
f 577/577 600/600 598/598
f 554/554 573/573 578/578
f 562/562 546/546 561/561
f 554/554 578/578 564/564
f 537/537 544/544 557/557
f 611/611 601/601 603/603
f 568/568 575/575 581/581
f 596/596 594/594 602/602
f 608/608 601/601 607/607
f 594/594 601/601 602/602
f 608/608 602/602 601/601
f 573/573 595/595 578/578
f 609/609 600/600 608/608
f 564/564 557/557 544/544
f 615/615 611/611 612/612
f 578/578 585/585 570/570
f 597/597 580/580 583/583
f 582/582 583/583 570/570
f 597/597 606/606 605/605
f 605/605 612/612 611/611
f 616/616 613/613 615/615
f 595/595 592/592 578/578
f 582/582 585/585 592/592
f 609/609 613/613 610/610
f 583/583 587/587 591/591
f 583/583 591/591 597/597
f 341/341 338/338 361/361
f 508/508 474/474 478/478
f 408/408 451/451 446/446
f 373/373 387/387 347/347
f 469/469 461/461 472/472
f 534/534 508/508 526/526
f 283/283 249/249 284/284
f 508/508 534/534 532/532
f 239/239 240/240 247/247
f 230/230 216/216 261/261
f 239/239 206/206 240/240
f 556/556 545/545 555/555
f 261/261 275/275 298/298
f 387/387 436/436 383/383
f 405/405 439/439 436/436
f 406/406 405/405 397/397
f 300/300 322/322 328/328
f 535/535 554/554 544/544
f 205/205 206/206 172/172
f 132/132 118/118 103/103
f 474/474 446/446 451/451
f 284/284 300/300 283/283
f 243/243 216/216 223/223
f 216/216 173/173 175/175
f 223/223 175/175 200/200
f 93/93 133/133 143/143
f 81/81 106/106 86/86
f 317/317 280/280 305/305
f 328/328 339/339 300/300
f 320/320 296/296 261/261
f 66/66 51/51 57/57
f 328/328 337/337 370/370
f 230/230 265/265 225/225
f 459/459 478/478 451/451
f 64/64 51/51 66/66
f 113/113 95/95 172/172
f 249/249 283/283 247/247
f 300/300 284/284 286/286
f 95/95 139/139 172/172
f 205/205 172/172 179/179
f 493/493 513/513 528/528
f 513/513 545/545 559/559
f 528/528 559/559 553/553
f 65/65 60/60 71/71
f 52/52 65/65 57/57
f 436/436 418/418 383/383
f 95/95 75/75 82/82
f 95/95 82/82 100/100
f 178/178 230/230 225/225
f 520/520 525/525 526/526
f 478/478 520/520 526/526
f 275/275 261/261 216/216
f 189/189 216/216 230/230
f 173/173 110/110 98/98
f 173/173 98/98 175/175
f 397/397 439/439 406/406
f 405/405 373/373 397/397
f 259/259 287/287 286/286
f 328/328 370/370 379/379
f 494/494 522/522 509/509
f 494/494 486/486 521/521
f 66/66 57/57 69/69
f 69/69 57/57 105/105
f 65/65 52/52 60/60
f 98/98 65/65 71/71
f 520/520 504/504 519/519
f 417/417 459/459 451/451
f 408/408 379/379 407/407
f 173/173 216/216 189/189
f 189/189 230/230 178/178
f 331/331 320/320 347/347
f 333/333 347/347 320/320
f 513/513 493/493 436/436
f 259/259 240/240 234/234
f 179/179 139/139 168/168
f 179/179 201/201 240/240
f 328/328 322/322 337/337
f 287/287 322/322 286/286
f 287/287 288/288 321/321
f 249/249 286/286 284/284
f 507/507 488/488 472/472
f 472/472 501/501 507/507
f 546/546 512/512 561/561
f 101/101 103/103 118/118
f 99/99 132/132 103/103
f 85/85 105/105 57/57
f 65/65 98/98 110/110
f 57/57 65/65 110/110
f 173/173 189/189 178/178
f 261/261 296/296 265/265
f 225/225 265/265 269/269
f 439/439 405/405 406/406
f 493/493 528/528 438/438
f 249/249 259/259 285/285
f 259/259 288/288 287/287
f 259/259 286/286 285/285
f 549/549 516/516 543/543
f 530/530 522/522 521/521
f 494/494 509/509 479/479
f 521/521 522/522 494/494
f 89/89 86/86 106/106
f 106/106 81/81 94/94
f 145/145 116/116 106/106
f 80/80 77/77 109/109
f 501/501 472/472 461/461
f 89/89 116/116 93/93
f 296/296 303/303 265/265
f 265/265 303/303 269/269
f 373/373 405/405 436/436
f 168/168 201/201 179/179
f 234/234 201/201 202/202
f 424/424 455/455 417/417
f 520/520 478/478 489/489
f 478/478 459/459 489/489
f 258/258 234/234 221/221
f 372/372 389/389 349/349
f 424/424 417/417 389/389
f 424/424 389/389 410/410
f 479/479 509/509 501/501
f 486/486 518/518 521/521
f 549/549 518/518 516/516
f 143/143 116/116 150/150
f 489/489 504/504 520/520
f 519/519 488/488 514/514
f 481/481 472/472 488/488
f 501/501 461/461 479/479
f 561/561 498/498 553/553
f 512/512 498/498 561/561
f 528/528 498/498 438/438
f 543/543 547/547 549/549
f 549/549 547/547 562/562
f 510/510 543/543 516/516
f 546/546 547/547 510/510
f 143/143 140/140 93/93
f 93/93 140/140 132/132
f 132/132 140/140 143/143
f 132/132 99/99 93/93
f 110/110 173/173 85/85
f 85/85 178/178 105/105
f 105/105 178/178 112/112
f 77/77 64/64 83/83
f 66/66 112/112 68/68
f 160/160 83/83 112/112
f 296/296 331/331 303/303
f 331/331 338/338 303/303
f 387/387 383/383 331/331
f 382/382 383/383 438/438
f 382/382 331/331 383/383
f 382/382 338/338 331/331
f 436/436 456/456 438/438
f 361/361 377/377 341/341
f 438/438 498/498 512/512
f 377/377 382/382 438/438
f 423/423 421/421 450/450
f 546/546 510/510 512/512
f 168/168 202/202 201/201
f 479/479 465/465 494/494
f 535/535 537/537 530/530
f 535/535 521/521 518/518
f 447/447 448/448 486/486
f 94/94 81/81 76/76
f 116/116 145/145 150/150
f 59/59 80/80 56/56
f 59/59 77/77 80/80
f 504/504 490/490 488/488
f 420/420 463/463 458/458
f 481/481 477/477 472/472
f 134/134 147/147 149/149
f 112/112 178/178 160/160
f 272/272 212/212 257/257
f 77/77 59/59 64/64
f 108/108 83/83 148/148
f 377/377 382/382 396/396
f 466/466 516/516 423/423
f 302/302 294/294 268/268
f 455/455 490/490 489/489
f 100/100 128/128 129/129
f 280/280 258/258 231/231
f 288/288 280/280 317/317
f 448/448 518/518 486/486
f 518/518 448/448 516/516
f 452/452 414/414 516/516
f 452/452 516/516 448/448
f 518/518 549/549 535/535
f 80/80 122/122 94/94
f 465/465 460/460 442/442
f 461/461 460/460 479/479
f 96/96 101/101 82/82
f 128/128 118/118 127/127
f 161/161 127/127 152/152
f 168/168 128/128 161/161
f 221/221 199/199 231/231
f 161/161 128/128 127/127
f 129/129 139/139 95/95
f 168/168 129/129 128/128
f 132/132 127/127 118/118
f 382/382 361/361 338/338
f 510/510 466/466 450/450
f 466/466 423/423 450/450
f 303/303 338/338 324/324
f 302/302 324/324 341/341
f 231/231 258/258 221/221
f 321/321 349/349 337/337
f 280/280 288/288 258/258
f 447/447 486/486 494/494
f 442/442 494/494 465/465
f 494/494 442/442 447/447
f 127/127 134/134 152/152
f 152/152 231/231 199/199
f 231/231 152/152 194/194
f 193/193 232/232 194/194
f 193/193 194/194 149/149
f 161/161 199/199 221/221
f 129/129 168/168 139/139
f 421/421 438/438 450/450
f 341/341 377/377 343/343
f 303/303 302/302 268/268
f 303/303 268/268 269/269
f 302/302 341/341 294/294
f 422/422 447/447 442/442
f 254/254 280/280 231/231
f 280/280 254/254 305/305
f 416/416 447/447 422/422
f 442/442 460/460 454/454
f 147/147 138/138 132/132
f 194/194 152/152 149/149
f 149/149 152/152 134/134
f 398/398 377/377 423/423
f 314/314 294/294 343/343
f 288/288 317/317 349/349
f 305/305 254/254 270/270
f 448/448 412/412 414/414
f 448/448 447/447 412/412
f 374/374 357/357 401/401
f 464/464 461/461 471/471
f 471/471 477/477 464/464
f 464/464 431/431 428/428
f 477/477 463/463 464/464
f 477/477 481/481 458/458
f 193/193 185/185 232/232
f 149/149 147/147 185/185
f 134/134 138/138 147/147
f 143/143 147/147 132/132
f 340/340 398/398 401/401
f 398/398 340/340 343/343
f 353/353 372/372 349/349
f 447/447 416/416 412/412
f 471/471 469/469 472/472
f 147/147 153/153 185/185
f 153/153 191/191 185/185
f 229/229 254/254 232/232
f 254/254 229/229 270/270
f 229/229 235/235 270/270
f 257/257 294/294 272/272
f 316/316 308/308 270/270
f 308/308 316/316 336/336
f 316/316 270/270 264/264
f 353/353 305/305 359/359
f 359/359 372/372 353/353
f 343/343 340/340 314/314
f 270/270 235/235 264/264
f 412/412 374/374 401/401
f 455/455 410/410 458/458
f 282/282 272/272 318/318
f 272/272 294/294 314/314
f 348/348 290/290 354/354
f 318/318 357/357 354/354
f 385/385 412/412 416/416
f 416/416 422/422 385/385
f 385/385 354/354 374/374
f 369/369 385/385 422/422
f 354/354 385/385 348/348
f 369/369 336/336 348/348
f 290/290 282/282 318/318
f 222/222 276/276 244/244
f 292/292 290/290 348/348
f 348/348 336/336 292/292
f 391/391 345/345 336/336
f 385/385 369/369 348/348
f 336/336 369/369 391/391
f 172/172 139/139 179/179
f 129/129 95/95 100/100
f 436/436 438/438 418/418
f 168/168 234/234 202/202
f 122/122 106/106 94/94
f 108/108 154/154 162/162
f 106/106 156/156 165/165
f 162/162 188/188 156/156
f 109/109 162/162 156/156
f 154/154 190/190 162/162
f 235/235 185/185 191/191
f 188/188 184/184 165/165
f 153/153 147/147 150/150
f 153/153 184/184 191/191
f 145/145 153/153 150/150
f 222/222 188/188 208/208
f 190/190 212/212 197/197
f 185/185 235/235 229/229
f 244/244 277/277 264/264
f 222/222 208/208 282/282
f 277/277 244/244 276/276
f 222/222 244/244 188/188
f 184/184 244/244 235/235
f 184/184 235/235 191/191
f 109/109 156/156 122/122
f 192/192 190/190 148/148
f 236/236 212/212 192/192
f 195/195 192/192 160/160
f 195/195 160/160 218/218
f 192/192 212/212 190/190
f 268/268 257/257 236/236
f 268/268 236/236 218/218
f 225/225 269/269 218/218
f 197/197 162/162 190/190
f 188/188 165/165 156/156
f 272/272 208/208 212/212
f 212/212 236/236 257/257
f 165/165 184/184 153/153
f 490/490 481/481 488/488
f 455/455 481/481 490/490
f 424/424 410/410 455/455
f 417/417 455/455 459/459
f 218/218 160/160 178/178
f 225/225 218/218 178/178
f 420/420 464/464 463/463
f 420/420 431/431 464/464
f 399/399 428/428 431/431
f 372/372 359/359 371/371
f 391/391 369/369 422/422
f 391/391 422/422 428/428
f 428/428 399/399 391/391
f 345/345 305/305 308/308
f 371/371 359/359 345/345
f 420/420 371/371 399/399
f 345/345 399/399 371/371
f 345/345 359/359 305/305
f 184/184 188/188 244/244
