<?xml version="1.0" encoding="UTF-8"?>
<!--
  OmniLink × OmniSim co-lockup — for surfaces where the parent brand
  and the product brand both need to be visible (nav bars, product
  cards, docs headers).
-->
<svg xmlns="http://www.w3.org/2000/svg" viewBox="0 0 1080 200" role="img" aria-label="OmniLink / OmniSim">
  <title>OmniLink × OmniSim co-lockup</title>
  <!-- OmniLink connector mark — concentric ring + dot, mimosa on dark -->
  <g transform="translate(80 100)">
    <circle cx="0" cy="0" r="42" fill="none" stroke="#F6E905" stroke-width="11.5"/>
    <circle cx="0" cy="0" r="14" fill="#F6E905"/>
  </g>
  <text x="148" y="120" font-family="Space Grotesk, Inter, ui-sans-serif, system-ui, sans-serif"
        font-weight="500" font-size="64" fill="#F6F4EF">OmniLink</text>
  <text x="450" y="120" font-family="Space Grotesk, Inter, ui-sans-serif, system-ui, sans-serif"
        font-weight="400" font-size="64" fill="#6F6E60">/</text>
  <g transform="translate(540 100) scale(0.5)">
<g aria-hidden="true">
              <circle cx="-1.72" cy="-0.58" r="0.70" fill="#a89804"></circle>
              <circle cx="10.78" cy="8.21" r="1.09" fill="#a89804"></circle>
              <circle cx="-8.70" cy="12.09" r="1.09" fill="#a89804"></circle>
              <circle cx="-14.38" cy="-14.76" r="1.64" fill="#a89804"></circle>
              <circle cx="16.06" cy="-15.39" r="2.34" fill="#a89804"></circle>
              <circle cx="-23.54" cy="-5.68" r="1.09" fill="#a89804"></circle>
              <circle cx="24.59" cy="-4.63" r="0.70" fill="#a89804"></circle>
              <circle cx="-23.85" cy="17.99" r="1.64" fill="#a89804"></circle>
              <circle cx="-3.64" cy="-30.87" r="0.70" fill="#a89804"></circle>
              <circle cx="25.35" cy="21.45" r="0.70" fill="#a89804"></circle>
              <circle cx="-4.19" cy="33.02" r="1.09" fill="#a89804"></circle>
              <circle cx="34.26" cy="9.63" r="1.64" fill="#a89804"></circle>
              <circle cx="-27.52" cy="-24.07" r="1.09" fill="#a89804"></circle>
              <circle cx="-19.42" cy="-35.68" r="0.70" fill="#a89804"></circle>
              <circle cx="-40.00" cy="9.81" r="1.09" fill="#a89804"></circle>
              <circle cx="-35.94" cy="22.98" r="1.09" fill="#a89804"></circle>
              <circle cx="24.89" cy="35.04" r="1.64" fill="#a89804"></circle>
              <circle cx="11.83" cy="-41.32" r="1.09" fill="#a89804"></circle>
              <circle cx="32.35" cy="-31.30" r="0.70" fill="#a89804"></circle>
              <circle cx="-45.06" cy="-6.60" r="0.70" fill="#a89804"></circle>
              <circle cx="-6.14" cy="-45.20" r="0.70" fill="#a89804"></circle>
              <circle cx="45.02" cy="-9.16" r="1.64" fill="#a89804"></circle>
              <circle cx="43.07" cy="17.26" r="1.09" fill="#a89804"></circle>
              <circle cx="0.96" cy="48.63" r="0.70" fill="#a89804"></circle>
              <circle cx="-34.80" cy="-34.24" r="1.09" fill="#a89804"></circle>
              <circle cx="45.76" cy="-21.88" r="1.09" fill="#a89804"></circle>
              <circle cx="-15.33" cy="48.97" r="1.64" fill="#a89804"></circle>
              <circle cx="27.53" cy="46.07" r="2.34" fill="#a89804"></circle>
              <circle cx="18.28" cy="-50.60" r="1.09" fill="#a89804"></circle>
              <circle cx="3.90" cy="-55.56" r="0.70" fill="#a89804"></circle>
              <circle cx="-54.91" cy="13.72" r="1.09" fill="#a89804"></circle>
              <circle cx="-54.51" cy="-15.41" r="0.70" fill="#a89804"></circle>
              <circle cx="43.62" cy="-38.84" r="0.70" fill="#a89804"></circle>
              <circle cx="40.69" cy="42.27" r="0.70" fill="#a89804"></circle>
              <circle cx="55.71" cy="19.01" r="0.70" fill="#a89804"></circle>
              <circle cx="-8.09" cy="59.66" r="0.70" fill="#a89804"></circle>
              <circle cx="-10.06" cy="-59.45" r="2.34" fill="#a89804"></circle>
              <circle cx="-46.18" cy="38.91" r="2.34" fill="#a89804"></circle>
              <circle cx="-28.16" cy="53.77" r="1.64" fill="#a89804"></circle>
              <circle cx="56.37" cy="-23.14" r="2.34" fill="#a89804"></circle>
              <circle cx="31.82" cy="-52.55" r="0.70" fill="#a89804"></circle>
              <circle cx="15.09" cy="59.91" r="1.64" fill="#a89804"></circle>
              <circle cx="17.66" cy="-61.94" r="1.09" fill="#a89804"></circle>
              <circle cx="-35.85" cy="-54.08" r="0.70" fill="#a89804"></circle>
              <circle cx="52.38" cy="40.13" r="1.09" fill="#a89804"></circle>
              <circle cx="-59.52" cy="-29.16" r="1.64" fill="#a89804"></circle>
              <circle cx="66.81" cy="-11.14" r="0.70" fill="#a89804"></circle>
              <circle cx="-63.09" cy="26.50" r="0.70" fill="#a89804"></circle>
              <circle cx="-42.21" cy="54.54" r="0.70" fill="#a89804"></circle>
              <circle cx="4.64" cy="-69.08" r="0.70" fill="#a89804"></circle>
              <circle cx="69.25" cy="7.82" r="1.09" fill="#a89804"></circle>
              <circle cx="65.06" cy="-27.40" r="1.64" fill="#a89804"></circle>
              <circle cx="-70.70" cy="5.02" r="1.64" fill="#a89804"></circle>
              <circle cx="-53.03" cy="-47.86" r="1.64" fill="#a89804"></circle>
              <circle cx="-58.03" cy="42.80" r="1.64" fill="#a89804"></circle>
              <circle cx="9.31" cy="71.63" r="1.64" fill="#a89804"></circle>
              <circle cx="55.51" cy="-47.64" r="1.64" fill="#a89804"></circle>
              <circle cx="-19.84" cy="72.04" r="1.64" fill="#a89804"></circle>
              <circle cx="32.21" cy="67.56" r="1.09" fill="#a89804"></circle>
              <circle cx="-38.54" cy="64.64" r="1.09" fill="#a89804"></circle>
              <circle cx="-22.33" cy="-72.17" r="0.70" fill="#a89804"></circle>
              <circle cx="30.21" cy="-69.39" r="1.64" fill="#a89804"></circle>
              <circle cx="48.67" cy="58.91" r="1.09" fill="#a89804"></circle>
              <circle cx="64.69" cy="41.15" r="1.64" fill="#a89804"></circle>
              <circle cx="-2.25" cy="77.63" r="0.70" fill="#a89804"></circle>
              <circle cx="-3.00" cy="-77.88" r="1.64" fill="#a89804"></circle>
              <circle cx="-74.94" cy="21.74" r="0.70" fill="#a89804"></circle>
              <circle cx="-69.07" cy="36.53" r="0.70" fill="#a89804"></circle>
              <circle cx="-34.04" cy="-72.02" r="0.70" fill="#a89804"></circle>
              <circle cx="-66.67" cy="-44.19" r="0.70" fill="#a89804"></circle>
              <circle cx="18.33" cy="-78.01" r="1.09" fill="#a89804"></circle>
              <circle cx="-78.67" cy="-16.90" r="1.09" fill="#a89804"></circle>
              <circle cx="12.79" cy="79.59" r="1.09" fill="#a89804"></circle>
              <circle cx="-81.54" cy="-1.71" r="1.64" fill="#a89804"></circle>
              <circle cx="39.24" cy="-72.78" r="1.09" fill="#a89804"></circle>
              <circle cx="79.26" cy="24.75" r="0.70" fill="#a89804"></circle>
              <circle cx="62.77" cy="55.14" r="1.09" fill="#a89804"></circle>
              <circle cx="84.32" cy="-2.06" r="2.34" fill="#a89804"></circle>
              <circle cx="-57.28" cy="-61.94" r="1.09" fill="#a89804"></circle>
              <circle cx="-78.89" cy="-30.93" r="0.70" fill="#a89804"></circle>
              <circle cx="50.75" cy="-68.04" r="0.70" fill="#a89804"></circle>
              <circle cx="82.25" cy="-23.40" r="1.09" fill="#a89804"></circle>
              <circle cx="-9.11" cy="-85.42" r="1.09" fill="#a89804"></circle>
              <circle cx="47.68" cy="71.55" r="2.34" fill="#a89804"></circle>
              <circle cx="7.04" cy="86.30" r="1.09" fill="#a89804"></circle>
              <circle cx="-22.54" cy="-83.60" r="1.64" fill="#a89804"></circle>
              <circle cx="61.68" cy="-61.03" r="1.09" fill="#a89804"></circle>
              <circle cx="73.36" cy="46.36" r="1.64" fill="#a89804"></circle>
              <circle cx="-27.26" cy="83.23" r="1.09" fill="#a89804"></circle>
              <circle cx="9.25" cy="-87.17" r="1.64" fill="#a89804"></circle>
              <circle cx="-46.76" cy="74.49" r="1.64" fill="#a89804"></circle>
              <circle cx="-82.63" cy="30.27" r="2.34" fill="#a89804"></circle>
              <circle cx="-8.75" cy="88.25" r="1.09" fill="#a89804"></circle>
              <circle cx="87.87" cy="15.81" r="0.70" fill="#a89804"></circle>
              <circle cx="77.50" cy="-45.20" r="0.70" fill="#a89804"></circle>
              <circle cx="-89.29" cy="-9.57" r="0.70" fill="#a89804"></circle>
              <circle cx="31.70" cy="84.66" r="1.64" fill="#a89804"></circle>
              <circle cx="31.56" cy="-85.38" r="1.09" fill="#a89804"></circle>
              <circle cx="-46.76" cy="-78.39" r="2.34" fill="#a89804"></circle>
              <circle cx="90.96" cy="-9.76" r="1.64" fill="#a89804"></circle>
              <circle cx="-87.94" cy="-26.10" r="0.70" fill="#a89804"></circle>
              <circle cx="84.50" cy="36.04" r="1.09" fill="#a89804"></circle>
              <circle cx="-81.88" cy="41.97" r="1.09" fill="#a89804"></circle>
              <circle cx="-60.12" cy="70.12" r="1.09" fill="#a89804"></circle>
              <circle cx="-91.71" cy="12.25" r="1.09" fill="#a89804"></circle>
              <circle cx="76.09" cy="52.79" r="1.09" fill="#a89804"></circle>
              <circle cx="13.34" cy="91.89" r="1.09" fill="#a89804"></circle>
              <circle cx="55.96" cy="74.14" r="2.34" fill="#a89804"></circle>
              <circle cx="-10.46" cy="-92.30" r="1.09" fill="#a89804"></circle>
              <circle cx="-72.20" cy="58.70" r="1.09" fill="#a89804"></circle>
              <circle cx="63.87" cy="-67.82" r="1.09" fill="#a89804"></circle>
              <circle cx="49.91" cy="-78.73" r="0.70" fill="#a89804"></circle>
              <circle cx="-82.76" cy="-43.99" r="0.70" fill="#a89804"></circle>
              <circle cx="-48.07" cy="80.54" r="1.09" fill="#a89804"></circle>
              <circle cx="-30.43" cy="88.77" r="0.70" fill="#a89804"></circle>
              <circle cx="6.29" cy="-93.99" r="0.70" fill="#a89804"></circle>
              <circle cx="75.86" cy="-56.05" r="1.09" fill="#a89804"></circle>
              <circle cx="-2.22" cy="94.60" r="1.09" fill="#a89804"></circle>
              <circle cx="-75.22" cy="-57.45" r="1.09" fill="#a89804"></circle>
              <circle cx="70.10" cy="63.90" r="2.34" fill="#a89804"></circle>
              <circle cx="29.28" cy="90.45" r="0.70" fill="#a89804"></circle>
              <circle cx="-31.37" cy="-90.31" r="1.64" fill="#a89804"></circle>
              <circle cx="-95.34" cy="-9.76" r="0.70" fill="#a89804"></circle>
              <circle cx="-89.68" cy="-34.51" r="0.70" fill="#a89804"></circle>
              <circle cx="95.90" cy="8.04" r="0.70" fill="#a89804"></circle>
              <circle cx="96.51" cy="-5.24" r="0.70" fill="#a89804"></circle>
              <circle cx="-60.55" cy="-75.53" r="0.70" fill="#a89804"></circle>
              <circle cx="-9.69" cy="-96.49" r="1.09" fill="#a89804"></circle>
              <circle cx="65.31" cy="-71.80" r="1.09" fill="#a89804"></circle>
              <circle cx="-10.81" cy="96.69" r="1.64" fill="#a89804"></circle>
              <circle cx="-45.24" cy="-86.64" r="1.09" fill="#a89804"></circle>
              <circle cx="-95.15" cy="22.46" r="1.64" fill="#a89804"></circle>
              <circle cx="49.11" cy="84.65" r="0.70" fill="#a89804"></circle>
              <circle cx="68.41" cy="70.38" r="0.70" fill="#a89804"></circle>
              <circle cx="84.24" cy="-50.46" r="1.09" fill="#a89804"></circle>
              <circle cx="-90.38" cy="38.77" r="0.70" fill="#a89804"></circle>
              <circle cx="83.26" cy="52.38" r="1.09" fill="#a89804"></circle>
              <circle cx="-76.01" cy="-62.48" r="0.70" fill="#a89804"></circle>
              <circle cx="95.39" cy="-24.57" r="0.70" fill="#a89804"></circle>
              <circle cx="11.57" cy="-97.87" r="1.09" fill="#a89804"></circle>
              <circle cx="-98.31" cy="8.32" r="0.70" fill="#a89804"></circle>
              <circle cx="90.50" cy="-39.39" r="2.34" fill="#a89804"></circle>
              <circle cx="-55.12" cy="81.95" r="1.09" fill="#a89804"></circle>
              <circle cx="97.90" cy="13.45" r="1.64" fill="#a89804"></circle>
              <circle cx="50.18" cy="-85.16" r="0.70" fill="#a89804"></circle>
              <circle cx="94.59" cy="28.72" r="1.64" fill="#a89804"></circle>
              <circle cx="29.99" cy="-94.30" r="0.70" fill="#a89804"></circle>
              <circle cx="1.52" cy="99.04" r="0.70" fill="#a89804"></circle>
              <circle cx="99.12" cy="-4.69" r="2.34" fill="#a89804"></circle>
              <circle cx="61.67" cy="-77.77" r="1.09" fill="#a89804"></circle>
              <circle cx="34.90" cy="92.95" r="0.70" fill="#a89804"></circle>
              <circle cx="-44.08" cy="89.07" r="0.70" fill="#a89804"></circle>
              <circle cx="-25.20" cy="-96.20" r="1.09" fill="#a89804"></circle>
              <circle cx="-7.78" cy="-99.27" r="1.09" fill="#a89804"></circle>
              <circle cx="-40.30" cy="-91.08" r="1.09" fill="#a89804"></circle>
              <circle cx="-69.70" cy="-71.23" r="1.09" fill="#a89804"></circle>
              <circle cx="52.70" cy="84.64" r="1.09" fill="#a89804"></circle>
              <circle cx="-86.76" cy="49.18" r="0.70" fill="#a89804"></circle>
              <circle cx="-75.50" cy="65.21" r="0.70" fill="#a89804"></circle>
              <circle cx="-93.24" cy="-35.53" r="2.34" fill="#a89804"></circle>
              <circle cx="79.78" cy="59.94" r="1.64" fill="#a89804"></circle>
              <circle cx="-98.18" cy="-17.93" r="1.64" fill="#a89804"></circle>
              <circle cx="-52.58" cy="-84.86" r="1.09" fill="#a89804"></circle>
              <circle cx="-82.78" cy="-55.89" r="1.64" fill="#a89804"></circle>
              <circle cx="76.25" cy="-64.60" r="1.09" fill="#a89804"></circle>
              <circle cx="-93.67" cy="34.83" r="1.09" fill="#a89804"></circle>
              <circle cx="86.86" cy="49.48" r="1.09" fill="#a89804"></circle>
              <circle cx="70.48" cy="70.88" r="1.64" fill="#a89804"></circle>
              <circle cx="-53.68" cy="84.34" r="1.09" fill="#a89804"></circle>
              <circle cx="-35.67" cy="93.39" r="0.70" fill="#a89804"></circle>
              <circle cx="-4.55" cy="99.88" r="1.09" fill="#a89804"></circle>
              <circle cx="28.72" cy="-95.79" r="0.90" fill="#dbcd05"></circle>
              <circle cx="41.19" cy="-91.12" r="3.00" fill="#dbcd05"></circle>
              <circle cx="-16.57" cy="98.61" r="0.90" fill="#dbcd05"></circle>
              <circle cx="57.76" cy="-81.61" r="1.40" fill="#dbcd05"></circle>
              <circle cx="-99.69" cy="7.55" r="1.40" fill="#dbcd05"></circle>
              <circle cx="99.94" cy="-2.53" r="0.90" fill="#dbcd05"></circle>
              <circle cx="9.75" cy="99.49" r="2.10" fill="#dbcd05"></circle>
              <circle cx="-13.67" cy="-99.01" r="0.90" fill="#dbcd05"></circle>
              <circle cx="-99.82" cy="-5.14" r="1.40" fill="#dbcd05"></circle>
              <circle cx="25.05" cy="96.74" r="0.90" fill="#dbcd05"></circle>
              <circle cx="-97.68" cy="20.98" r="1.40" fill="#dbcd05"></circle>
              <circle cx="89.18" cy="-44.98" r="2.10" fill="#dbcd05"></circle>
              <circle cx="-29.71" cy="-95.35" r="2.10" fill="#dbcd05"></circle>
              <circle cx="50.68" cy="86.02" r="0.90" fill="#dbcd05"></circle>
              <circle cx="-88.63" cy="-45.70" r="2.10" fill="#dbcd05"></circle>
              <circle cx="93.96" cy="-33.30" r="0.90" fill="#dbcd05"></circle>
              <circle cx="65.11" cy="-75.25" r="2.10" fill="#dbcd05"></circle>
              <circle cx="63.09" cy="76.88" r="1.40" fill="#dbcd05"></circle>
              <circle cx="-88.26" cy="45.83" r="0.90" fill="#dbcd05"></circle>
              <circle cx="98.04" cy="16.55" r="2.10" fill="#dbcd05"></circle>
              <circle cx="-36.12" cy="92.55" r="1.40" fill="#dbcd05"></circle>
              <circle cx="81.15" cy="57.27" r="1.40" fill="#dbcd05"></circle>
              <circle cx="82.35" cy="-55.49" r="3.00" fill="#dbcd05"></circle>
              <circle cx="-39.26" cy="-91.13" r="1.40" fill="#dbcd05"></circle>
              <circle cx="0.42" cy="-99.14" r="0.90" fill="#dbcd05"></circle>
              <circle cx="-62.64" cy="76.83" r="1.40" fill="#dbcd05"></circle>
              <circle cx="17.38" cy="-97.57" r="2.10" fill="#dbcd05"></circle>
              <circle cx="98.49" cy="-10.80" r="1.40" fill="#dbcd05"></circle>
              <circle cx="31.37" cy="-93.96" r="0.90" fill="#dbcd05"></circle>
              <circle cx="-98.98" cy="0.68" r="2.10" fill="#dbcd05"></circle>
              <circle cx="-97.01" cy="-19.01" r="2.10" fill="#dbcd05"></circle>
              <circle cx="-66.27" cy="-73.31" r="0.90" fill="#dbcd05"></circle>
              <circle cx="-82.11" cy="-54.77" r="2.10" fill="#dbcd05"></circle>
              <circle cx="36.14" cy="91.50" r="0.90" fill="#dbcd05"></circle>
              <circle cx="43.18" cy="-88.20" r="2.10" fill="#dbcd05"></circle>
              <circle cx="2.61" cy="98.15" r="1.40" fill="#dbcd05"></circle>
              <circle cx="-93.39" cy="29.41" r="1.40" fill="#dbcd05"></circle>
              <circle cx="88.84" cy="40.86" r="0.90" fill="#dbcd05"></circle>
              <circle cx="-22.44" cy="95.07" r="2.10" fill="#dbcd05"></circle>
              <circle cx="-90.17" cy="-37.48" r="0.90" fill="#dbcd05"></circle>
              <circle cx="-51.65" cy="82.83" r="2.10" fill="#dbcd05"></circle>
              <circle cx="23.71" cy="94.39" r="0.90" fill="#dbcd05"></circle>
              <circle cx="-71.63" cy="65.64" r="2.10" fill="#dbcd05"></circle>
              <circle cx="97.05" cy="-1.25" r="2.10" fill="#dbcd05"></circle>
              <circle cx="90.58" cy="-34.84" r="1.40" fill="#dbcd05"></circle>
              <circle cx="95.21" cy="-17.83" r="0.90" fill="#dbcd05"></circle>
              <circle cx="-26.22" cy="-93.24" r="1.40" fill="#dbcd05"></circle>
              <circle cx="49.42" cy="83.11" r="1.40" fill="#dbcd05"></circle>
              <circle cx="59.79" cy="75.80" r="3.00" fill="#dbcd05"></circle>
              <circle cx="-95.61" cy="12.80" r="0.90" fill="#dbcd05"></circle>
              <circle cx="4.50" cy="-96.02" r="2.10" fill="#dbcd05"></circle>
              <circle cx="-12.93" cy="-95.06" r="3.00" fill="#dbcd05"></circle>
              <circle cx="-94.71" cy="-12.36" r="0.90" fill="#dbcd05"></circle>
              <circle cx="-47.82" cy="-82.61" r="1.40" fill="#dbcd05"></circle>
              <circle cx="74.44" cy="59.69" r="0.90" fill="#dbcd05"></circle>
              <circle cx="-61.51" cy="-72.90" r="1.40" fill="#dbcd05"></circle>
              <circle cx="-39.12" cy="86.97" r="1.40" fill="#dbcd05"></circle>
              <circle cx="73.89" cy="-60.15" r="1.40" fill="#dbcd05"></circle>
              <circle cx="-87.42" cy="37.49" r="3.00" fill="#dbcd05"></circle>
              <circle cx="18.89" cy="-92.76" r="0.90" fill="#dbcd05"></circle>
              <circle cx="-78.62" cy="52.47" r="1.40" fill="#dbcd05"></circle>
              <circle cx="84.48" cy="41.69" r="1.40" fill="#dbcd05"></circle>
              <circle cx="-7.63" cy="93.58" r="1.40" fill="#dbcd05"></circle>
              <circle cx="-85.94" cy="-37.24" r="1.40" fill="#dbcd05"></circle>
              <circle cx="84.01" cy="-40.95" r="1.40" fill="#dbcd05"></circle>
              <circle cx="6.39" cy="92.95" r="3.00" fill="#dbcd05"></circle>
              <circle cx="39.16" cy="84.51" r="1.40" fill="#dbcd05"></circle>
              <circle cx="58.38" cy="71.49" r="0.90" fill="#dbcd05"></circle>
              <circle cx="33.23" cy="-86.03" r="1.40" fill="#dbcd05"></circle>
              <circle cx="59.09" cy="-70.75" r="1.40" fill="#dbcd05"></circle>
              <circle cx="90.89" cy="-15.22" r="0.90" fill="#dbcd05"></circle>
              <circle cx="-90.84" cy="13.47" r="2.10" fill="#dbcd05"></circle>
              <circle cx="8.46" cy="-91.07" r="2.10" fill="#dbcd05"></circle>
              <circle cx="-53.34" cy="74.20" r="0.90" fill="#dbcd05"></circle>
              <circle cx="69.52" cy="-57.74" r="1.40" fill="#dbcd05"></circle>
              <circle cx="-71.02" cy="-55.59" r="1.40" fill="#dbcd05"></circle>
              <circle cx="-31.09" cy="84.56" r="2.10" fill="#dbcd05"></circle>
              <circle cx="47.09" cy="-76.65" r="2.10" fill="#dbcd05"></circle>
              <circle cx="-56.38" cy="-69.45" r="2.10" fill="#dbcd05"></circle>
              <circle cx="67.90" cy="58.05" r="1.40" fill="#dbcd05"></circle>
              <circle cx="-87.78" cy="-15.99" r="3.00" fill="#f6e905"></circle>
              <circle cx="-15.00" cy="-87.87" r="1.40" fill="#f6e905"></circle>
              <circle cx="-85.49" cy="24.58" r="0.90" fill="#f6e905"></circle>
              <circle cx="88.70" cy="6.13" r="1.40" fill="#f6e905"></circle>
              <circle cx="-35.71" cy="-81.19" r="1.40" fill="#f6e905"></circle>
              <circle cx="-78.57" cy="40.16" r="1.40" fill="#f6e905"></circle>
              <circle cx="84.80" cy="-23.27" r="2.10" fill="#f6e905"></circle>
              <circle cx="41.30" cy="77.60" r="1.40" fill="#f6e905"></circle>
              <circle cx="-18.03" cy="85.59" r="0.90" fill="#f6e905"></circle>
              <circle cx="-63.29" cy="59.71" r="1.40" fill="#f6e905"></circle>
              <circle cx="-77.78" cy="-35.20" r="1.40" fill="#f6e905"></circle>
              <circle cx="61.52" cy="-57.44" r="0.90" fill="#f6e905"></circle>
              <circle cx="24.98" cy="80.34" r="0.90" fill="#f6e905"></circle>
              <circle cx="-83.88" cy="-4.13" r="0.90" fill="#f6e905"></circle>
              <circle cx="70.39" cy="45.15" r="0.90" fill="#f6e905"></circle>
              <circle cx="56.71" cy="60.54" r="1.40" fill="#f6e905"></circle>
              <circle cx="13.95" cy="-81.55" r="3.00" fill="#f6e905"></circle>
              <circle cx="-62.47" cy="-54.10" r="1.40" fill="#f6e905"></circle>
              <circle cx="-77.95" cy="22.85" r="1.40" fill="#f6e905"></circle>
              <circle cx="75.38" cy="29.98" r="3.00" fill="#f6e905"></circle>
              <circle cx="-28.31" cy="-75.76" r="0.90" fill="#f6e905"></circle>
              <circle cx="40.57" cy="-69.87" r="1.40" fill="#f6e905"></circle>
              <circle cx="78.43" cy="-15.43" r="1.40" fill="#f6e905"></circle>
              <circle cx="79.75" cy="-2.62" r="0.90" fill="#f6e905"></circle>
              <circle cx="-79.20" cy="9.67" r="0.90" fill="#f6e905"></circle>
              <circle cx="-32.46" cy="71.33" r="0.90" fill="#f6e905"></circle>
              <circle cx="2.85" cy="-78.16" r="2.10" fill="#f6e905"></circle>
              <circle cx="-51.15" cy="-57.74" r="2.10" fill="#f6e905"></circle>
              <circle cx="67.78" cy="-36.69" r="0.90" fill="#f6e905"></circle>
              <circle cx="-57.73" cy="49.05" r="1.40" fill="#f6e905"></circle>
              <circle cx="-11.64" cy="74.06" r="1.40" fill="#f6e905"></circle>
              <circle cx="72.62" cy="16.56" r="2.10" fill="#f6e905"></circle>
              <circle cx="-69.55" cy="-26.14" r="3.00" fill="#f6e905"></circle>
              <circle cx="-44.59" cy="58.78" r="1.40" fill="#f6e905"></circle>
              <circle cx="9.54" cy="72.06" r="1.40" fill="#f6e905"></circle>
              <circle cx="51.01" cy="-51.53" r="0.90" fill="#f6e905"></circle>
              <circle cx="22.65" cy="-68.21" r="1.40" fill="#f6e905"></circle>
              <circle cx="-70.29" cy="8.04" r="1.40" fill="#f6e905"></circle>
              <circle cx="32.97" cy="-60.38" r="0.90" fill="#f6e905"></circle>
              <circle cx="38.04" cy="56.59" r="1.40" fill="#f6e905"></circle>
              <circle cx="-48.16" cy="47.46" r="1.40" fill="#f6e905"></circle>
              <circle cx="59.48" cy="31.04" r="2.10" fill="#f6e905"></circle>
              <circle cx="-17.35" cy="64.74" r="1.40" fill="#f6e905"></circle>
              <circle cx="-60.48" cy="28.84" r="1.40" fill="#f6e905"></circle>
              <circle cx="-1.54" cy="66.99" r="1.40" fill="#f6e905"></circle>
              <circle cx="5.03" cy="-66.12" r="0.90" fill="#f6e905"></circle>
              <circle cx="-38.98" cy="-50.43" r="2.10" fill="#f6e905"></circle>
              <circle cx="61.68" cy="-15.62" r="2.10" fill="#f6e905"></circle>
              <circle cx="-63.03" cy="0.31" r="1.40" fill="#f6e905"></circle>
              <circle cx="-35.82" cy="51.46" r="1.40" fill="#f6e905"></circle>
              <circle cx="60.76" cy="10.00" r="0.90" fill="#f6e905"></circle>
              <circle cx="44.03" cy="38.95" r="2.10" fill="#f6e905"></circle>
              <circle cx="34.31" cy="-47.56" r="0.90" fill="#f6e905"></circle>
              <circle cx="-12.18" cy="-56.45" r="0.90" fill="#f6e905"></circle>
              <circle cx="-25.38" cy="-50.93" r="0.90" fill="#f6e905"></circle>
              <circle cx="-45.36" cy="-34.34" r="0.90" fill="#f6e905"></circle>
              <circle cx="19.95" cy="52.27" r="2.10" fill="#f6e905"></circle>
              <circle cx="0.53" cy="54.89" r="3.00" fill="#f6e905"></circle>
              <circle cx="1.01" cy="-53.90" r="2.10" fill="#f6e905"></circle>
              <circle cx="-48.84" cy="-21.34" r="2.10" fill="#f6e905"></circle>
              <circle cx="-51.90" cy="6.02" r="2.10" fill="#f6e905"></circle>
              <circle cx="-20.23" cy="46.21" r="1.40" fill="#f6e905"></circle>
              <circle cx="43.27" cy="-25.83" r="1.40" fill="#f6e905"></circle>
              <circle cx="49.54" cy="-0.88" r="1.40" fill="#f6e905"></circle>
              <circle cx="34.22" cy="-34.93" r="2.10" fill="#f6e905"></circle>
              <circle cx="12.45" cy="-47.19" r="1.40" fill="#f6e905"></circle>
              <circle cx="31.70" cy="34.51" r="1.40" fill="#f6e905"></circle>
              <circle cx="42.83" cy="17.62" r="3.00" fill="#f6e905"></circle>
              <circle cx="-28.69" cy="34.07" r="1.40" fill="#f6e905"></circle>
              <circle cx="-9.82" cy="-41.00" r="0.90" fill="#f6e905"></circle>
              <circle cx="-24.62" cy="-33.96" r="0.90" fill="#f6e905"></circle>
              <circle cx="21.35" cy="-33.51" r="0.90" fill="#f6e905"></circle>
              <circle cx="38.14" cy="-6.04" r="1.40" fill="#f6e905"></circle>
              <circle cx="-36.23" cy="5.91" r="3.00" fill="#f6e905"></circle>
              <circle cx="28.87" cy="21.88" r="1.40" fill="#f6e905"></circle>
              <circle cx="-8.76" cy="35.08" r="2.10" fill="#f6e905"></circle>
              <circle cx="28.23" cy="-22.53" r="2.10" fill="#f6e905"></circle>
              <circle cx="-0.99" cy="-32.29" r="2.10" fill="#f6e905"></circle>
              <circle cx="29.72" cy="8.75" r="2.10" fill="#f6e905"></circle>
              <circle cx="-25.73" cy="-13.81" r="3.00" fill="#f6e905"></circle>
              <circle cx="14.14" cy="24.56" r="2.10" fill="#f6e905"></circle>
              <circle cx="13.54" cy="-24.48" r="2.10" fill="#f6e905"></circle>
              <circle cx="-23.48" cy="12.03" r="1.40" fill="#f6e905"></circle>
              <circle cx="-9.12" cy="20.51" r="1.40" fill="#f6e905"></circle>
              <circle cx="-8.64" cy="-18.83" r="2.10" fill="#f6e905"></circle>
              <circle cx="-16.10" cy="-5.26" r="0.90" fill="#f6e905"></circle>
              <circle cx="10.34" cy="-11.45" r="2.10" fill="#f6e905"></circle>
              <circle cx="8.95" cy="3.02" r="1.40" fill="#f6e905"></circle>
              <circle cx="-7.69" cy="5.03" r="2.10" fill="#f6e905"></circle>
            </g>
  </g>
  <text x="640" y="125" font-family="Space Grotesk, Inter, ui-sans-serif, system-ui, sans-serif"
        font-weight="500" font-size="64" letter-spacing="5.12">
    <tspan fill="#F6F4EF">OMNI</tspan><tspan fill="#F6E905">SIM</tspan>
  </text>
</svg>
